<?xml version="1.0" encoding="utf-8"?>
<!-- Generator: Adobe Illustrator 27.0.1, SVG Export Plug-In . SVG Version: 6.00 Build 0)  -->
<svg version="1.1" id="レイヤー_1" xmlns="http://www.w3.org/2000/svg" xmlns:xlink="http://www.w3.org/1999/xlink" x="0px"
	 y="0px" viewBox="0 0 283.5 283.5" style="enable-background:new 0 0 283.5 283.5;" xml:space="preserve">
<style type="text/css">
	.st0{fill:#FF1755;stroke:#000000;stroke-miterlimit:10;}
	.st1{fill:#FFFFFF;}
</style>
<g id="レイヤー_2_00000085936611050619690860000009170013108463865739_">
</g>
<rect y="8" class="st0" width="283.5" height="263"/>
<g id="レイヤー_1_00000163782591439147647870000007430792716059644039_">
	<path class="st1" d="M251.4,49.7c-0.7-1.8-2.5-3-4.4-3H98.5c-52.2,0-94.6,42.5-94.6,94.6S46.3,236,98.5,236
		c50.6,0,92-39.9,94.5-89.9H247c1.9,0,3.7-1.2,4.4-3s0.3-3.9-1.1-5.2l-12-11.5l12-11.5c0.9-0.9,1.5-2.2,1.5-3.4
		c0-1.3-0.5-2.6-1.5-3.4l-11.9-11.5l11.9-11.5c0.9-0.9,1.5-2.2,1.5-3.4s-0.5-2.6-1.5-3.4l-11.9-11.5L250.3,55
		C251.7,53.6,252.1,51.5,251.4,49.7z M98.5,226.4c-46.9,0-85.1-38.2-85.1-85.1s38.2-85.1,85.1-85.1s85.1,38.2,85.1,85.1
		S145.4,226.4,98.5,226.4z"/>
	<path class="st1" d="M98.5,72.6c-37.9,0-68.7,30.8-68.7,68.7s30.8,68.7,68.7,68.7s68.7-30.8,68.7-68.7S136.4,72.6,98.5,72.6z
		 M98.5,200.5c-32.6,0-59.2-26.5-59.2-59.1s26.5-59.2,59.2-59.2s59.2,26.5,59.2,59.2S131.1,200.5,98.5,200.5z"/>
</g>
</svg>
