<?xml version="1.0" encoding="utf-8"?>
<!-- Generator: Adobe Illustrator 27.0.1, SVG Export Plug-In . SVG Version: 6.00 Build 0)  -->
<svg version="1.1" id="レイヤー_1" xmlns="http://www.w3.org/2000/svg" xmlns:xlink="http://www.w3.org/1999/xlink" x="0px"
	 y="0px" viewBox="0 0 283.5 283.5" style="enable-background:new 0 0 283.5 283.5;" xml:space="preserve">
<style type="text/css">
	.st0{fill:#FFFFFF;stroke:#000000;stroke-miterlimit:10;}
	.st1{stroke:#000000;stroke-miterlimit:10;}
	.st2{fill:#00F717;}
</style>
<g id="レイヤー_2_00000098183229690507360530000018328038869032957067_">
</g>
<rect class="st0" width="283.5" height="283.5"/>
<rect y="7" class="st1" width="283.5" height="266"/>
<g id="レイヤー_1_00000073711137737740260160000002705230594370300090_">
	<path d="M135.1,86.6c47.6,6.1,83.8,36.9,83.8,73.8c0,6.9-1.3,13.7-3.7,20h42.4V57.8H135.1V86.6z"/>
	<path class="st2" d="M262.4,48.2H130.3c-2.7,0-4.8,2.2-4.8,4.8v32.7c-2.6-0.2-5.2-0.2-7.9-0.2c-3,0-5.9,0.1-8.9,0.3
		c-4.7,0.3-9,2.7-11.7,6.6c-2.7,3.8-3.6,8.6-2.3,13c2.5,9.1,1.5,18.9-3.1,28.2c-3,6-7.9,10.9-14,13.9c-12.5,6-26,5.7-37-0.9
		c-5-3-11.1-3.1-16.2-0.3c-5.1,2.9-8.1,8-8.1,13.8v0.2c0,41.3,45.5,74.9,101.3,74.9c41.7,0,77.5-18.7,93.1-45.3h51.8
		c2.6,0,4.8-2.1,4.8-4.8V53C267.2,50.4,265.1,48.2,262.4,48.2z M117.6,225.7c-50.6,0-91.8-29.3-91.8-65.3v-0.2c0-3.3,2.2-5,3.2-5.5
		c1-0.6,2.1-0.8,3.1-0.8c1.2,0,2.3,0.3,3.4,0.9c13.8,8.3,30.6,8.8,46.1,1.4c8-3.9,14.6-10.4,18.5-18.3c5.7-11.5,7-23.6,3.8-35.1
		c-0.5-1.7-0.1-3.4,0.9-4.9c1.1-1.5,2.7-2.4,4.5-2.5c2.7-0.2,5.5-0.3,8.2-0.3c50.6,0,91.8,29.3,91.8,65.3S168.2,225.7,117.6,225.7z
		 M257.6,180.4h-42.4c2.4-6.4,3.7-13.1,3.7-20c0-36.9-36.3-67.6-83.8-73.8V57.8h122.6v122.6H257.6z"/>
	<path d="M155.6,178.1c-5.4,0-9.7,4.4-9.7,9.7s4.4,9.7,9.7,9.7s9.7-4.4,9.7-9.7S161,178.1,155.6,178.1z"/>
	<path class="st2" d="M155.6,168.5c-10.6,0-19.3,8.6-19.3,19.3s8.6,19.3,19.3,19.3c10.6,0,19.3-8.6,19.3-19.3
		C174.9,177.2,166.3,168.5,155.6,168.5z M155.6,197.5c-5.4,0-9.7-4.4-9.7-9.7s4.4-9.7,9.7-9.7s9.7,4.4,9.7,9.7
		S161,197.5,155.6,197.5z"/>
	<path d="M164.3,147.4c0,7.5,6.1,13.6,13.6,13.6s13.6-6.1,13.6-13.6s-6.1-13.6-13.6-13.6S164.3,139.9,164.3,147.4z"/>
	<path class="st2" d="M154.8,147.4c0,12.8,10.4,23.2,23.2,23.2s23.2-10.4,23.2-23.2s-10.4-23.2-23.2-23.2S154.8,134.6,154.8,147.4z
		 M191.6,147.4c0,7.5-6.1,13.6-13.6,13.6s-13.6-6.1-13.6-13.6s6.1-13.6,13.6-13.6S191.6,139.9,191.6,147.4z"/>
	<path d="M117.6,196.6c-3.8,0-6.9,3.1-6.9,6.9s3.1,6.9,6.9,6.9s6.9-3.1,6.9-6.9S121.4,196.6,117.6,196.6z"/>
	<path class="st2" d="M117.6,187c-9.1,0-16.5,7.4-16.5,16.5s7.4,16.5,16.5,16.5s16.5-7.4,16.5-16.5S126.7,187,117.6,187z
		 M117.6,210.4c-3.8,0-6.9-3.1-6.9-6.9s3.1-6.9,6.9-6.9s6.9,3.1,6.9,6.9S121.4,210.4,117.6,210.4z"/>
	<path d="M81.7,197.3c-1.9,0-3.5,1.6-3.5,3.5s1.6,3.5,3.5,3.5s3.5-1.6,3.5-3.5S83.6,197.3,81.7,197.3z"/>
	<path class="st2" d="M81.7,187.7c-7.2,0-13.1,5.9-13.1,13.1s5.9,13.1,13.1,13.1s13.1-5.9,13.1-13.1S88.9,187.7,81.7,187.7z
		 M81.7,204.3c-1.9,0-3.5-1.6-3.5-3.5s1.6-3.5,3.5-3.5s3.5,1.6,3.5,3.5S83.6,204.3,81.7,204.3z"/>
</g>
</svg>
