<?xml version="1.0" encoding="utf-8"?>
<!-- Generator: Adobe Illustrator 27.0.1, SVG Export Plug-In . SVG Version: 6.00 Build 0)  -->
<svg version="1.1" id="レイヤー_1" xmlns="http://www.w3.org/2000/svg" xmlns:xlink="http://www.w3.org/1999/xlink" x="0px"
	 y="0px" viewBox="0 0 283.5 283.5" style="enable-background:new 0 0 283.5 283.5;" xml:space="preserve">
<style type="text/css">
	.st0{fill:#C6A2FF;stroke:#000000;stroke-miterlimit:10;}
	.st1{fill:#FFFFFF;}
	.st2{fill:#C6A2FF;}
	.st3{fill:none;stroke:#000000;stroke-miterlimit:10;}
</style>
<g id="レイヤー_2_00000036929559317952749920000004565582713948298935_">
</g>
<rect y="5" class="st0" width="283.5" height="273"/>
<g id="レイヤー_1_00000026128220801204715070000007454701499767083699_" transform="rotate(90),translate(0,-283.46)">
	<g>
		<polygon class="st1" points="30.9,257.4 45.6,257.4 45.6,257.4 65.3,257.4 65.3,257.4 80.1,257.4 80.1,257.4 99.8,257.4 
			99.8,257.4 114.6,257.4 114.6,257.4 134.3,257.4 134.3,257.4 136.9,257.4 136.9,146.5 26,146.5 26,149.1 26,168.8 26,183.6 
			26,203.3 26,218.1 26,237.8 26,252.6 26,257.4 		"/>
		<path class="st1" d="M16.5,149.1v19.7v14.8v19.7v14.8v19.7v14.8v9.6l0,0c0,2.6,2.1,4.8,4.8,4.8h120.5c2.6,0,4.8-2.1,4.8-4.8V141.7
			c0-2.6-2.1-4.8-4.8-4.8H21.3c-2.6,0-4.8,2.1-4.8,4.8C16.5,141.7,16.5,149.1,16.5,149.1z M26,252.6v-14.8v-19.7v-14.8v-19.7v-14.8
			v-19.7v-2.6h110.9v110.9h-2.6l0,0h-19.7l0,0H99.8l0,0H80.1l0,0H65.3l0,0H45.6l0,0H30.9l0,0h-4.8L26,252.6L26,252.6z"/>
		
			<rect x="11.4" y="85.2" transform="matrix(2.535182e-06 1 -1 2.535182e-06 111.2499 68.7198)" class="st1" width="19.7" height="9.6"/>
		
			<rect x="11.4" y="119.7" transform="matrix(2.535182e-06 1 -1 2.535182e-06 145.7499 103.2197)" class="st1" width="19.7" height="9.6"/>
		
			<rect x="11.4" y="50.7" transform="matrix(2.535182e-06 1 -1 2.535182e-06 76.7499 34.2199)" class="st1" width="19.7" height="9.6"/>
		<path class="st1" d="M26,26h4.8v-9.6h-9.6c-2.6,0-4.8,2.1-4.8,4.8v9.6H26V26z"/>
		
			<rect x="85.2" y="11.4" transform="matrix(2.535182e-06 1 -1 2.535182e-06 111.2498 -68.7201)" class="st1" width="9.6" height="19.7"/>
		
			<rect x="50.7" y="11.4" transform="matrix(2.535182e-06 1 -1 2.535182e-06 76.7499 -34.2201)" class="st1" width="9.6" height="19.7"/>
		
			<rect x="119.7" y="11.4" transform="matrix(2.535182e-06 1 -1 2.535182e-06 145.7497 -103.2201)" class="st1" width="9.6" height="19.7"/>
		
			<rect x="223.2" y="11.4" transform="matrix(2.535182e-06 1 -1 2.535182e-06 249.2394 -206.7101)" class="st1" width="9.6" height="19.7"/>
		
			<rect x="154.2" y="11.4" transform="matrix(2.535182e-06 1 -1 2.535182e-06 180.2396 -137.7101)" class="st1" width="9.6" height="19.7"/>
		
			<rect x="188.7" y="11.4" transform="matrix(2.535182e-06 1 -1 2.535182e-06 214.7395 -172.2101)" class="st1" width="9.6" height="19.7"/>
		<path class="st1" d="M262.2,16.5h-9.6v9.6h4.8v4.8h9.6v-9.6C267,18.6,264.9,16.5,262.2,16.5z"/>
		
			<rect x="252.4" y="85.2" transform="matrix(2.535182e-06 1 -1 2.535182e-06 352.1893 -172.2202)" class="st1" width="19.7" height="9.6"/>
		
			<rect x="252.4" y="50.7" transform="matrix(2.535182e-06 1 -1 2.535182e-06 317.6893 -206.7201)" class="st1" width="19.7" height="9.6"/>
		
			<rect x="252.4" y="188.7" transform="matrix(2.535182e-06 1 -1 2.535182e-06 455.6793 -68.7305)" class="st1" width="19.7" height="9.6"/>
		
			<rect x="252.4" y="119.7" transform="matrix(2.535182e-06 1 -1 2.535182e-06 386.6893 -137.7203)" class="st1" width="19.7" height="9.6"/>
		
			<rect x="252.4" y="223.2" transform="matrix(2.535182e-06 1 -1 2.535182e-06 490.1793 -34.2306)" class="st1" width="19.7" height="9.6"/>
		
			<rect x="252.4" y="154.2" transform="matrix(2.535182e-06 1 -1 2.535182e-06 421.1793 -103.2304)" class="st1" width="19.7" height="9.6"/>
		<path class="st1" d="M257.4,257.4h-4.8v9.6h9.6c2.6,0,4.8-2.1,4.8-4.8v-9.6h-9.6L257.4,257.4L257.4,257.4z"/>
		
			<rect x="188.7" y="252.4" transform="matrix(2.535182e-06 1 -1 2.535182e-06 455.6795 68.7293)" class="st1" width="9.6" height="19.7"/>
		
			<rect x="223.2" y="252.4" transform="matrix(2.535182e-06 1 -1 2.535182e-06 490.1794 34.2293)" class="st1" width="9.6" height="19.7"/>
		
			<rect x="154.2" y="252.4" transform="matrix(2.535182e-06 1 -1 2.535182e-06 421.1796 103.2293)" class="st1" width="9.6" height="19.7"/>
	</g>
	<g>
		<polygon class="st2" points="30.9,257.4 45.6,257.4 45.6,257.4 65.3,257.4 65.3,257.4 80.1,257.4 80.1,257.4 99.8,257.4 
			99.8,257.4 114.6,257.4 114.6,257.4 134.3,257.4 134.3,257.4 136.9,257.4 136.9,146.5 26,146.5 26,149.1 26,168.8 26,183.6 
			26,203.3 26,218.1 26,237.8 26,252.6 26,257.4 		"/>
		<path class="st1" d="M16.5,149.1v19.7v14.8v19.7v14.8v19.7v14.8v9.6l0,0c0,2.6,2.1,4.8,4.8,4.8h120.5c2.6,0,4.8-2.1,4.8-4.8V141.7
			c0-2.6-2.1-4.8-4.8-4.8H21.3c-2.6,0-4.8,2.1-4.8,4.8C16.5,141.7,16.5,149.1,16.5,149.1z M26,252.6v-14.8v-19.7v-14.8v-19.7v-14.8
			v-19.7v-2.6h110.9v110.9h-2.6l0,0h-19.7l0,0H99.8l0,0H80.1l0,0H65.3l0,0H45.6l0,0H30.9l0,0h-4.8L26,252.6L26,252.6z"/>
		
			<rect x="11.4" y="85.2" transform="matrix(2.535182e-06 1 -1 2.535182e-06 111.2499 68.7198)" class="st1" width="19.7" height="9.6"/>
		
			<rect x="11.4" y="119.7" transform="matrix(2.535182e-06 1 -1 2.535182e-06 145.7499 103.2197)" class="st1" width="19.7" height="9.6"/>
		
			<rect x="11.4" y="50.7" transform="matrix(2.535182e-06 1 -1 2.535182e-06 76.7499 34.2199)" class="st1" width="19.7" height="9.6"/>
		<path class="st1" d="M26,26h4.8v-9.6h-9.6c-2.6,0-4.8,2.1-4.8,4.8v9.6H26V26z"/>
		
			<rect x="85.2" y="11.4" transform="matrix(2.535182e-06 1 -1 2.535182e-06 111.2498 -68.7201)" class="st1" width="9.6" height="19.7"/>
		
			<rect x="50.7" y="11.4" transform="matrix(2.535182e-06 1 -1 2.535182e-06 76.7499 -34.2201)" class="st1" width="9.6" height="19.7"/>
		
			<rect x="119.7" y="11.4" transform="matrix(2.535182e-06 1 -1 2.535182e-06 145.7497 -103.2201)" class="st1" width="9.6" height="19.7"/>
		
			<rect x="223.2" y="11.4" transform="matrix(2.535182e-06 1 -1 2.535182e-06 249.2394 -206.7101)" class="st1" width="9.6" height="19.7"/>
		
			<rect x="154.2" y="11.4" transform="matrix(2.535182e-06 1 -1 2.535182e-06 180.2396 -137.7101)" class="st1" width="9.6" height="19.7"/>
		
			<rect x="188.7" y="11.4" transform="matrix(2.535182e-06 1 -1 2.535182e-06 214.7395 -172.2101)" class="st1" width="9.6" height="19.7"/>
		<path class="st1" d="M262.2,16.5h-9.6v9.6h4.8v4.8h9.6v-9.6C267,18.6,264.9,16.5,262.2,16.5z"/>
		
			<rect x="252.4" y="85.2" transform="matrix(2.535182e-06 1 -1 2.535182e-06 352.1893 -172.2202)" class="st1" width="19.7" height="9.6"/>
		
			<rect x="252.4" y="50.7" transform="matrix(2.535182e-06 1 -1 2.535182e-06 317.6893 -206.7201)" class="st1" width="19.7" height="9.6"/>
		
			<rect x="252.4" y="188.7" transform="matrix(2.535182e-06 1 -1 2.535182e-06 455.6793 -68.7305)" class="st1" width="19.7" height="9.6"/>
		
			<rect x="252.4" y="119.7" transform="matrix(2.535182e-06 1 -1 2.535182e-06 386.6893 -137.7203)" class="st1" width="19.7" height="9.6"/>
		
			<rect x="252.4" y="223.2" transform="matrix(2.535182e-06 1 -1 2.535182e-06 490.1793 -34.2306)" class="st1" width="19.7" height="9.6"/>
		
			<rect x="252.4" y="154.2" transform="matrix(2.535182e-06 1 -1 2.535182e-06 421.1793 -103.2304)" class="st1" width="19.7" height="9.6"/>
		<path class="st1" d="M257.4,257.4h-4.8v9.6h9.6c2.6,0,4.8-2.1,4.8-4.8v-9.6h-9.6L257.4,257.4L257.4,257.4z"/>
		
			<rect x="188.7" y="252.4" transform="matrix(2.535182e-06 1 -1 2.535182e-06 455.6795 68.7293)" class="st1" width="9.6" height="19.7"/>
		
			<rect x="223.2" y="252.4" transform="matrix(2.535182e-06 1 -1 2.535182e-06 490.1794 34.2293)" class="st1" width="9.6" height="19.7"/>
		
			<rect x="154.2" y="252.4" transform="matrix(2.535182e-06 1 -1 2.535182e-06 421.1796 103.2293)" class="st1" width="9.6" height="19.7"/>
	</g>
	<g>
		<polygon class="st3" points="30.9,257.4 45.6,257.4 45.6,257.4 65.3,257.4 65.3,257.4 80.1,257.4 80.1,257.4 99.8,257.4 
			99.8,257.4 114.6,257.4 114.6,257.4 134.3,257.4 134.3,257.4 136.9,257.4 136.9,146.5 26,146.5 26,149.1 26,168.8 26,183.6 
			26,203.3 26,218.1 26,237.8 26,252.6 26,257.4 		"/>
		<path class="st3" d="M16.5,149.1v19.7v14.8v19.7v14.8v19.7v14.8v9.6l0,0c0,2.6,2.1,4.8,4.8,4.8h120.5c2.6,0,4.8-2.1,4.8-4.8V141.7
			c0-2.6-2.1-4.8-4.8-4.8H21.3c-2.6,0-4.8,2.1-4.8,4.8C16.5,141.7,16.5,149.1,16.5,149.1z M26,252.6v-14.8v-19.7v-14.8v-19.7v-14.8
			v-19.7v-2.6h110.9v110.9h-2.6l0,0h-19.7l0,0H99.8l0,0H80.1l0,0H65.3l0,0H45.6l0,0H30.9l0,0h-4.8L26,252.6L26,252.6z"/>
		
			<rect x="11.4" y="85.2" transform="matrix(2.535182e-06 1 -1 2.535182e-06 111.2499 68.7198)" class="st3" width="19.7" height="9.6"/>
		
			<rect x="11.4" y="119.7" transform="matrix(2.535182e-06 1 -1 2.535182e-06 145.7499 103.2197)" class="st3" width="19.7" height="9.6"/>
		
			<rect x="11.4" y="50.7" transform="matrix(2.535182e-06 1 -1 2.535182e-06 76.7499 34.2199)" class="st3" width="19.7" height="9.6"/>
		<path class="st3" d="M26,26h4.8v-9.6h-9.6c-2.6,0-4.8,2.1-4.8,4.8v9.6H26V26z"/>
		
			<rect x="85.2" y="11.4" transform="matrix(2.535182e-06 1 -1 2.535182e-06 111.2498 -68.7201)" class="st3" width="9.6" height="19.7"/>
		
			<rect x="50.7" y="11.4" transform="matrix(2.535182e-06 1 -1 2.535182e-06 76.7499 -34.2201)" class="st3" width="9.6" height="19.7"/>
		
			<rect x="119.7" y="11.4" transform="matrix(2.535182e-06 1 -1 2.535182e-06 145.7497 -103.2201)" class="st3" width="9.6" height="19.7"/>
		
			<rect x="223.2" y="11.4" transform="matrix(2.535182e-06 1 -1 2.535182e-06 249.2394 -206.7101)" class="st3" width="9.6" height="19.7"/>
		
			<rect x="154.2" y="11.4" transform="matrix(2.535182e-06 1 -1 2.535182e-06 180.2396 -137.7101)" class="st3" width="9.6" height="19.7"/>
		
			<rect x="188.7" y="11.4" transform="matrix(2.535182e-06 1 -1 2.535182e-06 214.7395 -172.2101)" class="st3" width="9.6" height="19.7"/>
		<path class="st3" d="M262.2,16.5h-9.6v9.6h4.8v4.8h9.6v-9.6C267,18.6,264.9,16.5,262.2,16.5z"/>
		
			<rect x="252.4" y="85.2" transform="matrix(2.535182e-06 1 -1 2.535182e-06 352.1893 -172.2202)" class="st3" width="19.7" height="9.6"/>
		
			<rect x="252.4" y="50.7" transform="matrix(2.535182e-06 1 -1 2.535182e-06 317.6893 -206.7201)" class="st3" width="19.7" height="9.6"/>
		
			<rect x="252.4" y="188.7" transform="matrix(2.535182e-06 1 -1 2.535182e-06 455.6793 -68.7305)" class="st3" width="19.7" height="9.6"/>
		
			<rect x="252.4" y="119.7" transform="matrix(2.535182e-06 1 -1 2.535182e-06 386.6893 -137.7203)" class="st3" width="19.7" height="9.6"/>
		
			<rect x="252.4" y="223.2" transform="matrix(2.535182e-06 1 -1 2.535182e-06 490.1793 -34.2306)" class="st3" width="19.7" height="9.6"/>
		
			<rect x="252.4" y="154.2" transform="matrix(2.535182e-06 1 -1 2.535182e-06 421.1793 -103.2304)" class="st3" width="19.7" height="9.6"/>
		<path class="st3" d="M257.4,257.4h-4.8v9.6h9.6c2.6,0,4.8-2.1,4.8-4.8v-9.6h-9.6L257.4,257.4L257.4,257.4z"/>
		
			<rect x="188.7" y="252.4" transform="matrix(2.535182e-06 1 -1 2.535182e-06 455.6795 68.7293)" class="st3" width="9.6" height="19.7"/>
		
			<rect x="223.2" y="252.4" transform="matrix(2.535182e-06 1 -1 2.535182e-06 490.1794 34.2293)" class="st3" width="9.6" height="19.7"/>
		
			<rect x="154.2" y="252.4" transform="matrix(2.535182e-06 1 -1 2.535182e-06 421.1796 103.2293)" class="st3" width="9.6" height="19.7"/>
	</g>
</g>
</svg>
