<?xml version="1.0" encoding="utf-8"?>
<!-- Generator: Adobe Illustrator 27.0.1, SVG Export Plug-In . SVG Version: 6.00 Build 0)  -->
<svg version="1.1" id="レイヤー_1" xmlns="http://www.w3.org/2000/svg" xmlns:xlink="http://www.w3.org/1999/xlink" x="0px"
	 y="0px" viewBox="0 0 283.5 283.5" style="enable-background:new 0 0 283.5 283.5;" xml:space="preserve">
<style type="text/css">
	.st0{fill:#FFAAFF;stroke:#000000;stroke-miterlimit:10;}
	.st1{fill:#FFFFFF;}
</style>
<rect y="9" class="st0" width="283.5" height="267"/>
<g id="レイヤー_2_00000182496291140857568010000013744860035418526634_">
</g>
<g id="レイヤー_1_00000050644164867471045780000002218528124152240512_">
	<rect x="28.4" y="250.3" class="st1" width="226.8" height="9.6"/>
	<path class="st1" d="M32.1,184.2v47.6c0,2.6,2.2,4.8,4.8,4.8h47.6c2.7,0,4.8-2.1,4.8-4.8v-47.6c0-2.6-2.2-4.8-4.8-4.8H36.9
		C34.2,179.4,32.1,181.6,32.1,184.2z M41.7,189h38v38h-38V189z"/>
	<path class="st1" d="M118,179.4c-2.7,0-4.8,2.1-4.8,4.8v47.6c0,2.6,2.2,4.8,4.8,4.8h47.6c2.6,0,4.8-2.1,4.8-4.8v-47.6
		c0-2.6-2.1-4.8-4.8-4.8H118z M160.8,227h-38v-38h38V227z"/>
	<path class="st1" d="M194.4,184.2v47.6c0,2.6,2.1,4.8,4.8,4.8h47.6c2.6,0,4.8-2.1,4.8-4.8v-47.6c0-2.6-2.1-4.8-4.8-4.8h-47.6
		C196.5,179.4,194.4,181.6,194.4,184.2z M203.9,189h38v38h-38V189z"/>
</g>
</svg>
