<?xml version="1.0" encoding="utf-8"?>
<!-- Generator: Adobe Illustrator 27.0.1, SVG Export Plug-In . SVG Version: 6.00 Build 0)  -->
<svg version="1.1" id="レイヤー_1" xmlns="http://www.w3.org/2000/svg" xmlns:xlink="http://www.w3.org/1999/xlink" x="0px"
	 y="0px" viewBox="0 0 283.5 283.5" style="enable-background:new 0 0 283.5 283.5;" xml:space="preserve">
<style type="text/css">
	.st0{fill:#FFAAFF;stroke:#000000;stroke-miterlimit:10;}
	.st1{fill:#FFFFFF;}
</style>
<rect y="6" class="st0" width="283.5" height="271"/>
<g id="レイヤー_2_00000159468872082609564660000002800750512020879777_">
</g>
<g id="レイヤー_1_00000146475336529053809770000011097416534952944824_">
	<polygon class="st1" points="259.9,255.1 259.9,28.4 255.1,28.4 250.3,28.4 250.3,255.1 255.1,255.1 	"/>
	<path class="st1" d="M179.4,246.6c0,2.6,2.1,4.8,4.8,4.8h47.6c2.6,0,4.8-2.1,4.8-4.8V199c0-2.6-2.1-4.8-4.8-4.8h-47.6
		c-2.6,0-4.8,2.1-4.8,4.8V246.6z M189,203.8h38v38h-38V203.8z"/>
	<path class="st1" d="M179.4,165.4c0,2.6,2.1,4.8,4.8,4.8h47.6c2.6,0,4.8-2.1,4.8-4.8v-47.6c0-2.7-2.1-4.8-4.8-4.8h-47.6
		c-2.6,0-4.8,2.2-4.8,4.8V165.4z M189,122.6h38v38h-38V122.6z"/>
	<path class="st1" d="M231.8,31.9h-47.6c-2.6,0-4.8,2.2-4.8,4.8v47.6c0,2.7,2.1,4.8,4.8,4.8h47.6c2.6,0,4.8-2.2,4.8-4.8V36.7
		C236.6,34.1,234.5,31.9,231.8,31.9z M227,79.5h-38v-38h38V79.5z"/>
</g>
</svg>
