<?xml version="1.0" encoding="utf-8"?>
<!-- Generator: Adobe Illustrator 27.0.1, SVG Export Plug-In . SVG Version: 6.00 Build 0)  -->
<svg version="1.1" id="レイヤー_1" xmlns="http://www.w3.org/2000/svg" xmlns:xlink="http://www.w3.org/1999/xlink" x="0px"
	 y="0px" viewBox="0 0 283.5 283.5" style="enable-background:new 0 0 283.5 283.5;" xml:space="preserve">
<style type="text/css">
	.st0{fill:#FFAAFF;stroke:#000000;stroke-miterlimit:10;}
	.st1{fill:#FFFFFF;}
</style>
<rect y="6" class="st0" width="283.5" height="270"/>
<g id="レイヤー_2_00000072281020791407840630000007693567553708614792_">
</g>
<g id="レイヤー_1_00000064339572413769660230000005331345619781064352_">
	<path class="st1" d="M230.6,254.8V63c0-2.7-2.1-4.8-4.8-4.8h-25.9V28.7c0-2.6-2.1-4.8-4.8-4.8H57.7c-2.7,0-4.8,2.1-4.8,4.8v191.8
		c0,2.6,2.2,4.8,4.8,4.8h25.9v29.5c0,2.6,2.2,4.8,4.8,4.8h137.4C228.4,259.6,230.6,257.4,230.6,254.8z M62.5,215.7V33.5h127.8v182.2
		H62.5z M221,250H93.2v-24.7H195c2.6,0,4.8-2.1,4.8-4.8V67.8H221V250z"/>
</g>
</svg>
