<?xml version="1.0" encoding="utf-8"?>
<!-- Generator: Adobe Illustrator 27.0.1, SVG Export Plug-In . SVG Version: 6.00 Build 0)  -->
<svg version="1.1" id="レイヤー_1" xmlns="http://www.w3.org/2000/svg" xmlns:xlink="http://www.w3.org/1999/xlink" x="0px"
	 y="0px" viewBox="0 0 283.5 283.5" style="enable-background:new 0 0 283.5 283.5;" xml:space="preserve">
<style type="text/css">
	.st0{fill:#FFAAFF;stroke:#000000;stroke-miterlimit:10;}
	.st1{fill:#FFFFFF;}
	.st2{fill:#FFAAFF;}
</style>
<rect y="5" class="st0" width="283.5" height="274"/>
<g id="レイヤー_2_00000170248930763792501630000004231128399626057399_">
</g>
<g id="レイヤー_1_00000103961702189867153920000017429983601055168133_">
	
		<rect x="20.1" y="59.3" transform="matrix(0.7071 -0.7071 0.7071 0.7071 -33.9469 80.4847)" class="st1" width="120.2" height="43.8"/>
	<path class="st1" d="M146.1,46.3l-1.1,1.1l-34.3-34.3c-1.9-1.9-4.9-1.9-6.8,0L12,104.9c-0.9,0.9-1.4,2.1-1.4,3.4s0.5,2.5,1.4,3.4
		L46.4,146l-1.1,1.1c-0.9,0.9-1.4,2.1-1.4,3.4s0.5,2.5,1.4,3.4l118.6,118.6c0.9,0.9,2.2,1.4,3.4,1.4s2.4-0.5,3.4-1.4l100.8-100.9
		c0.9-0.9,1.4-2.1,1.4-3.4s-0.5-2.5-1.4-3.4L152.9,46.3C151,44.4,147.9,44.4,146.1,46.3z"/>
	
		<rect x="20.1" y="59.3" transform="matrix(0.7071 -0.7071 0.7071 0.7071 -33.9469 80.4847)" class="st2" width="120.2" height="43.8"/>
	
		<rect x="91.8" y="80.3" transform="matrix(0.7071 -0.7071 0.7071 0.7071 -66.3164 158.6306)" class="st2" width="133" height="158.1"/>
</g>
</svg>
