<?xml version="1.0" encoding="utf-8"?>
<!-- Generator: Adobe Illustrator 27.0.1, SVG Export Plug-In . SVG Version: 6.00 Build 0)  -->
<svg version="1.1" id="レイヤー_1" xmlns="http://www.w3.org/2000/svg" xmlns:xlink="http://www.w3.org/1999/xlink" x="0px"
	 y="0px" viewBox="0 0 283.5 283.5" style="enable-background:new 0 0 283.5 283.5;" xml:space="preserve">
<style type="text/css">
	.st0{fill:#B395E7;stroke:#000000;stroke-miterlimit:10;}
	.st1{fill:#B391E7;}
	.st2{fill:#FFFFFF;}
</style>
<rect y="11" class="st0" width="283.5" height="261"/>
<g id="レイヤー_2_00000052080277428407455400000004322774361364196485_">
</g>
<g id="レイヤー_1_00000173848860396252283180000013367380325417423294_">
	<path class="st1" d="M199.7,89.3c-13.7-0.9-27,3.5-37.5,12.4c-11.7,10-29.4,10-41.1,0c-10.4-8.9-23.7-13.2-37.5-12.4
		C57.7,91,36.7,111.9,34.9,138c-1,14.8,4,28.8,14,39.6c9.9,10.6,23.9,16.7,38.4,16.7c12.3,0,24.3-4.4,33.7-12.2
		c6-5.1,13.4-7.6,20.8-7.6s14.8,2.5,20.8,7.6c9.4,7.9,21.4,12.2,33.7,12.2c14.5,0,28.5-6.1,38.4-16.7c10-10.8,15-24.8,14-39.6
		C246.8,111.9,225.8,91,199.7,89.3z"/>
	<path class="st2" d="M200.4,79.8c-16.2-1.1-32,4.1-44.3,14.6c-8.2,6.9-20.5,6.9-28.7,0c-12.3-10.5-28.1-15.7-44.3-14.6
		c-30.8,2-55.7,26.7-57.8,57.6c-1.2,17.4,4.7,34,16.5,46.8c11.7,12.5,28.2,19.7,45.4,19.7c14.6,0,28.7-5.1,39.9-14.5
		c8.5-7.1,20.8-7.1,29.3,0c11.1,9.3,25.3,14.5,39.9,14.5c17.1,0,33.7-7.2,45.4-19.7c11.9-12.7,17.7-29.3,16.5-46.8
		C256,106.5,231.2,81.8,200.4,79.8z M234.6,177.5c-9.9,10.6-23.9,16.7-38.4,16.7c-12.3,0-24.3-4.4-33.7-12.2
		c-6-5.1-13.4-7.6-20.8-7.6s-14.8,2.5-20.8,7.6c-9.4,7.9-21.4,12.2-33.7,12.2c-14.5,0-28.5-6.1-38.4-16.7c-10-10.8-15-24.8-14-39.6
		c1.8-26,22.8-46.9,48.9-48.6c13.7-0.9,27,3.5,37.5,12.4c11.7,10,29.4,10,41.1,0c10.4-8.9,23.7-13.2,37.5-12.4
		c26.1,1.7,47.1,22.6,48.9,48.6C249.6,152.7,244.6,166.8,234.6,177.5z"/>
</g>
</svg>
