<?xml version="1.0" encoding="utf-8"?>
<!-- Generator: Adobe Illustrator 27.0.1, SVG Export Plug-In . SVG Version: 6.00 Build 0)  -->
<svg version="1.1" id="レイヤー_1" xmlns="http://www.w3.org/2000/svg" xmlns:xlink="http://www.w3.org/1999/xlink" x="0px"
	 y="0px" viewBox="0 0 283.5 283.5" style="enable-background:new 0 0 283.5 283.5;" xml:space="preserve">
<style type="text/css">
	.st0{fill:#B391E7;stroke:#000000;stroke-miterlimit:10;}
	.st1{fill:none;}
	.st2{fill:#FFFFFF;}
</style>
<rect y="7" class="st0" width="283.5" height="270"/>
<g id="レイヤー_2_00000062886038596417041690000002123383303519269521_">
</g>
<g id="レイヤー_1_00000076579590487243385340000010687188712345122227_">
	<rect x="121.3" y="182.1" class="st1" width="43.7" height="17.1"/>
	<rect x="121.3" y="208.8" class="st1" width="43.7" height="17.1"/>
	<polygon class="st2" points="205.5,75.9 77.9,75.9 90.5,54.3 14.2,85.5 90.5,116.7 77.9,95.1 205.5,95.1 193,116.7 269.3,85.5 
		193,54.3 	"/>
	<path class="st2" d="M169.9,172.5h-53.3c-2.7,0-4.8,2.1-4.8,4.8v21.9H14.2v9.6h97.6v21.9c0,2.6,2.2,4.8,4.8,4.8h53.3
		c2.6,0,4.8-2.1,4.8-4.8v-21.9h94.6v-9.6h-94.6v-21.9C174.6,174.7,172.5,172.5,169.9,172.5z M165.1,225.8h-43.7v-17.1h43.7V225.8z
		 M165.1,199.2h-43.7v-17.1h43.7V199.2z"/>
</g>
</svg>
