<?xml version="1.0" encoding="utf-8"?>
<!-- Generator: Adobe Illustrator 27.0.1, SVG Export Plug-In . SVG Version: 6.00 Build 0)  -->
<svg version="1.1" id="レイヤー_1" xmlns="http://www.w3.org/2000/svg" xmlns:xlink="http://www.w3.org/1999/xlink" x="0px"
	 y="0px" viewBox="0 0 283.5 283.5" style="enable-background:new 0 0 283.5 283.5;" xml:space="preserve">
<style type="text/css">
	.st0{fill:#FF8D00;stroke:#000000;stroke-miterlimit:10;}
	.st1{fill:none;}
	.st2{fill:#FFFFFF;}
</style>
<rect y="6" class="st0" width="283.5" height="271"/>
<g id="レイヤー_2_00000171689199449352351190000010675030077302572699_">
</g>
<g id="レイヤー_1_00000093163720437058085520000014855232221311449483_">
	<polygon class="st1" points="62.5,208.8 41.4,208.8 41.4,199.2 62.5,199.2 62.5,182.2 19,182.2 19,225.8 62.5,225.8 	"/>
	<polygon class="st1" points="264.5,182.2 220.9,182.2 220.9,199.2 242.7,199.2 242.7,208.8 220.9,208.8 220.9,225.8 264.5,225.8 	
		"/>
	<path class="st2" d="M14.2,235.3h53.2c2.7,0,4.8-2.1,4.8-4.8v-21.8h139.2v21.8c0,2.6,2.1,4.8,4.8,4.8h53.2c2.6,0,4.8-2.1,4.8-4.8
		v-53.2c0-2.6-2.1-4.8-4.8-4.8h-53.2c-2.6,0-4.8,2.1-4.8,4.8v21.8H72.1v-21.8c0-2.6-2.2-4.8-4.8-4.8H14.2c-2.6,0-4.8,2.1-4.8,4.8
		v53.2C9.4,233.2,11.5,235.3,14.2,235.3z M220.9,208.8h21.8v-9.6h-21.8v-17h43.6v43.6h-43.6V208.8z M19,182.2h43.6v17H41.4v9.6h21.2
		v17H19V182.2z"/>
	<polygon class="st2" points="269.3,75.9 77.9,75.9 90.5,54.3 14.2,85.5 90.5,116.7 77.9,95.1 269.3,95.1 	"/>
</g>
</svg>
