<?xml version="1.0" encoding="utf-8"?>
<!-- Generator: Adobe Illustrator 27.0.1, SVG Export Plug-In . SVG Version: 6.00 Build 0)  -->
<svg version="1.1" id="レイヤー_1" xmlns="http://www.w3.org/2000/svg" xmlns:xlink="http://www.w3.org/1999/xlink" x="0px"
	 y="0px" viewBox="0 0 283.5 283.5" style="enable-background:new 0 0 283.5 283.5;" xml:space="preserve">
<style type="text/css">
	.st0{fill:#82009A;stroke:#000000;stroke-miterlimit:10;}
	.st1{fill:#82009A;}
	.st2{fill:#FFFFFF;}
</style>
<rect class="st0" width="283.5" height="283.5"/>
<g id="レイヤー_2_00000068659110102875669180000008456784057264236933_">
</g>
<g id="レイヤー_1_00000164481638062481691190000012676632751599879563_">
	<rect x="19" y="53.5" class="st1" width="74.2" height="74.2"/>
	<circle class="st1" cx="227.4" cy="192.8" r="37.1"/>
	<path class="st2" d="M97.9,137.3c2.7,0,4.8-2.1,4.8-4.8V48.8c0-2.7-2.2-4.8-4.8-4.8H14.2c-2.6,0-4.8,2.2-4.8,4.8v83.8
		c0,2.6,2.2,4.8,4.8,4.8L97.9,137.3L97.9,137.3z M19,53.5h74.2v74.2H19V53.5z"/>
	<path class="st2" d="M227.4,146.1c-25.7,0-46.7,20.9-46.7,46.7s20.9,46.7,46.7,46.7s46.7-20.9,46.7-46.7S253.1,146.1,227.4,146.1z
		 M227.4,229.9c-20.4,0-37.1-16.6-37.1-37.1s16.6-37.1,37.1-37.1s37.1,16.6,37.1,37.1S247.9,229.9,227.4,229.9z"/>
	<polygon class="st2" points="182.7,166.2 157.9,133.2 157.8,145.7 140.7,135.5 151.6,129.5 110.9,123.3 135.6,156.2 135.8,143.8 
		152.9,153.9 141.9,160 	"/>
</g>
</svg>
