<?xml version="1.0" encoding="utf-8"?>
<!-- Generator: Adobe Illustrator 27.0.1, SVG Export Plug-In . SVG Version: 6.00 Build 0)  -->
<svg version="1.1" id="レイヤー_1" xmlns="http://www.w3.org/2000/svg" xmlns:xlink="http://www.w3.org/1999/xlink" x="0px"
	 y="0px" viewBox="0 0 283.5 283.5" style="enable-background:new 0 0 283.5 283.5;" xml:space="preserve">
<style type="text/css">
	.st0{fill:#C20072;stroke:#000000;stroke-miterlimit:10;}
	.st1{fill:#C20072;}
	.st2{fill:#FFFFFF;}
</style>
<rect class="st0" width="283.5" height="283.5"/>
<g id="レイヤー_2_00000100379820948593840360000000064089961144242365_">
</g>
<g id="レイヤー_1_00000016047053423540662820000008452674246594594193_">
	<rect x="199.6" y="109.1" class="st1" width="65.3" height="65.4"/>
	<rect x="136.9" y="259.7" class="st2" width="9.6" height="9.6"/>
	<rect x="136.9" y="100.9" class="st2" width="9.6" height="18.2"/>
	<rect x="136.9" y="69.1" class="st2" width="9.6" height="18.2"/>
	<rect x="136.9" y="196.2" class="st2" width="9.6" height="18.1"/>
	<rect x="136.9" y="227.9" class="st2" width="9.6" height="18.1"/>
	<rect x="136.9" y="37.4" class="st2" width="9.6" height="18.1"/>
	<rect x="136.9" y="132.7" class="st2" width="9.6" height="18.1"/>
	<rect x="136.9" y="164.4" class="st2" width="9.6" height="18.1"/>
	<rect x="136.9" y="14.2" class="st2" width="9.6" height="9.6"/>
	<path class="st2" d="M13.7,184h9.6v-9.6h-4.8v-4.8H8.9v9.6C8.9,181.9,11.1,184,13.7,184z"/>
	<rect x="8.9" y="130.6" class="st2" width="9.6" height="22.3"/>
	<path class="st2" d="M18.5,109.1h4.8v-9.6h-9.6c-2.6,0-4.8,2.2-4.8,4.8v9.6h9.6V109.1z"/>
	<rect x="40.1" y="99.5" class="st2" width="22.3" height="9.6"/>
	<path class="st2" d="M93.5,104.3c0-2.7-2.2-4.8-4.8-4.8h-9.6v9.6h4.8v4.8h9.6C93.5,113.8,93.5,104.3,93.5,104.3z"/>
	<rect x="83.9" y="130.6" class="st2" width="9.6" height="22.3"/>
	<path class="st2" d="M83.9,174.4h-4.8v9.6h9.6c2.7,0,4.8-2.1,4.8-4.8v-9.6h-9.6V174.4z"/>
	<rect x="40.1" y="174.4" class="st2" width="22.3" height="9.6"/>
	<path class="st2" d="M269.7,99.5h-74.9c-2.6,0-4.8,2.2-4.8,4.8v74.9c0,2.6,2.1,4.8,4.8,4.8h74.9c2.6,0,4.8-2.1,4.8-4.8v-74.9
		C274.5,101.6,272.4,99.5,269.7,99.5z M264.9,174.4h-65.4v-65.3h65.4V174.4z"/>
</g>
</svg>
