<?xml version="1.0" encoding="utf-8"?>
<!-- Generator: Adobe Illustrator 27.0.1, SVG Export Plug-In . SVG Version: 6.00 Build 0)  -->
<svg version="1.1" id="レイヤー_1" xmlns="http://www.w3.org/2000/svg" xmlns:xlink="http://www.w3.org/1999/xlink" x="0px"
	 y="0px" viewBox="0 0 283.5 283.5" style="enable-background:new 0 0 283.5 283.5;" xml:space="preserve">
<style type="text/css">
	.st0{fill:#82009A;stroke:#000000;stroke-miterlimit:10;}
	.st1{fill:#82009A;}
	.st2{fill:#FFFFFF;}
</style>
<rect class="st0" width="283.5" height="283.5"/>
<g id="レイヤー_2_00000103975117086245600160000011984978712649098123_">
</g>
<g id="レイヤー_1_00000143614675426133957830000009385703043644485052_">
	<rect x="109.1" y="18.5" class="st1" width="65.4" height="65.3"/>
	<rect x="259.7" y="136.9" class="st2" width="9.6" height="9.6"/>
	<rect x="164.4" y="136.9" class="st2" width="18.1" height="9.6"/>
	<rect x="227.9" y="136.9" class="st2" width="18.1" height="9.6"/>
	<rect x="100.9" y="136.9" class="st2" width="18.2" height="9.6"/>
	<rect x="37.4" y="136.9" class="st2" width="18.1" height="9.6"/>
	<rect x="69.1" y="136.9" class="st2" width="18.2" height="9.6"/>
	<rect x="196.2" y="136.9" class="st2" width="18.1" height="9.6"/>
	<rect x="132.7" y="136.9" class="st2" width="18.1" height="9.6"/>
	<rect x="14.2" y="136.9" class="st2" width="9.6" height="9.6"/>
	<path class="st2" d="M184,269.7v-9.6h-9.6v4.8h-4.8v9.6h9.6C181.9,274.5,184,272.4,184,269.7z"/>
	<rect x="130.6" y="264.9" class="st2" width="22.3" height="9.6"/>
	<path class="st2" d="M99.5,269.7c0,2.6,2.2,4.8,4.8,4.8h9.6v-9.6h-4.8v-4.8h-9.6V269.7z"/>
	<rect x="99.5" y="221.1" class="st2" width="9.6" height="22.3"/>
	<path class="st2" d="M113.8,190h-9.6c-2.7,0-4.8,2.1-4.8,4.8v9.6h9.6v-4.8h4.8V190z"/>
	<rect x="130.6" y="190" class="st2" width="22.3" height="9.6"/>
	<path class="st2" d="M184,194.8c0-2.6-2.1-4.8-4.8-4.8h-9.6v9.6h4.8v4.8h9.6V194.8z"/>
	<rect x="174.4" y="221.1" class="st2" width="9.6" height="22.3"/>
	<path class="st2" d="M184,13.7c0-2.6-2.1-4.8-4.8-4.8h-74.9c-2.7,0-4.8,2.2-4.8,4.8v74.9c0,2.7,2.2,4.8,4.8,4.8h74.9
		c2.6,0,4.8-2.2,4.8-4.8V13.7z M174.4,83.9h-65.3V18.5h65.3V83.9z"/>
</g>
</svg>
