<?xml version="1.0" encoding="utf-8"?>
<!-- Generator: Adobe Illustrator 27.0.1, SVG Export Plug-In . SVG Version: 6.00 Build 0)  -->
<svg version="1.1" id="レイヤー_1" xmlns="http://www.w3.org/2000/svg" xmlns:xlink="http://www.w3.org/1999/xlink" x="0px"
	 y="0px" viewBox="0 0 283.5 283.5" style="enable-background:new 0 0 283.5 283.5;" xml:space="preserve">
<style type="text/css">
	.st0{fill:#17E5FF;stroke:#000000;stroke-miterlimit:10;}
	.st1{fill:#17E5FF;}
	.st2{fill:#FFFFFF;}
	.st3{fill:#F8E7FF;}
</style>
<rect class="st0" width="283.5" height="283.5"/>
<g id="レイヤー_2_00000129206783216282025150000007139129141014037129_">
</g>
<g id="レイヤー_1_00000137838296894426802950000009055751752460293012_">
	<g transform="translate(64,-64)">
		<polygon class="st1" points="30.9,257.4 45.6,257.4 45.6,257.4 65.3,257.4 65.3,257.4 80.1,257.4 80.1,257.4 99.8,257.4 
			99.8,257.4 114.6,257.4 114.6,257.4 134.3,257.4 134.3,257.4 136.9,257.4 136.9,146.5 26,146.5 26,149.1 26,168.8 26,183.6 
			26,203.3 26,218.1 26,237.8 26,252.6 26,257.4 		"/>
		<path class="st2" d="M16.5,149.1v19.7v14.8v19.7v14.8v19.7v14.8v9.6l0,0c0,2.6,2.1,4.8,4.8,4.8h120.5c2.6,0,4.8-2.1,4.8-4.8V141.7
			c0-2.6-2.1-4.8-4.8-4.8H21.3c-2.6,0-4.8,2.1-4.8,4.8C16.5,141.7,16.5,149.1,16.5,149.1z M26,252.6v-14.8v-19.7v-14.8v-19.7v-14.8
			v-19.7v-2.6h110.9v110.9h-2.6l0,0h-19.7l0,0H99.8l0,0H80.1l0,0H65.3l0,0H45.6l0,0H30.9l0,0h-4.8L26,252.6L26,252.6z"/>
	</g>
	<rect x="16.5" y="80.1" class="st3" width="9.6" height="19.7"/>
	<rect x="16.5" y="114.6" class="st3" width="9.6" height="19.7"/>
	<rect x="16.5" y="45.6" class="st3" width="9.6" height="19.7"/>
	<path class="st3" d="M26,26h4.8v-9.6h-9.6c-2.6,0-4.8,2.1-4.8,4.8v9.6H26V26z"/>
	<rect x="80.1" y="16.5" class="st3" width="19.7" height="9.6"/>
	<rect x="45.6" y="16.5" class="st3" width="19.7" height="9.6"/>
	<rect x="114.6" y="16.5" class="st3" width="19.7" height="9.6"/>
	<rect x="218.1" y="16.5" class="st3" width="19.7" height="9.6"/>
	<rect x="149.1" y="16.5" class="st3" width="19.7" height="9.6"/>
	<rect x="183.6" y="16.5" class="st3" width="19.7" height="9.6"/>
	<path class="st3" d="M262.2,16.5h-9.6v9.6h4.8v4.8h9.6v-9.6C267,18.6,264.9,16.5,262.2,16.5z"/>
	<rect x="257.4" y="80.1" class="st3" width="9.6" height="19.7"/>
	<rect x="257.4" y="45.6" class="st3" width="9.6" height="19.7"/>
	<rect x="257.4" y="183.6" class="st3" width="9.6" height="19.7"/>
	<rect x="257.4" y="114.6" class="st3" width="9.6" height="19.7"/>
	<rect x="257.4" y="218.1" class="st3" width="9.6" height="19.7"/>
	<rect x="257.4" y="149.1" class="st3" width="9.6" height="19.7"/>
	<path class="st3" d="M257.4,257.4h-4.8v9.6h9.6c2.6,0,4.8-2.1,4.8-4.8v-9.6h-9.6L257.4,257.4L257.4,257.4z"/>
	<rect x="183.6" y="257.4" class="st3" width="19.7" height="9.6"/>
	<rect x="218.1" y="257.4" class="st3" width="19.7" height="9.6"/>
	<rect x="149.1" y="257.4" class="st3" width="19.7" height="9.6"/>
	<g transform="rotate(-90),translate(-283.46,0)">
		
			<rect x="11.4" y="85.2" transform="matrix(-2.535182e-06 -1 1 -2.535182e-06 -68.7199 111.2502)" class="st3" width="19.7" height="9.6"/>
		
			<rect x="11.4" y="119.7" transform="matrix(-2.535182e-06 -1 1 -2.535182e-06 -103.2199 145.7503)" class="st3" width="19.7" height="9.6"/>
		
			<rect x="11.4" y="50.7" transform="matrix(-2.535182e-06 -1 1 -2.535182e-06 -34.2199 76.7501)" class="st3" width="19.7" height="9.6"/>
		<path class="st3" d="M26,26h4.8v-9.6h-9.6c-2.6,0-4.8,2.1-4.8,4.8v9.6H26V26z"/>
		
			<rect x="85.2" y="11.4" transform="matrix(-2.535182e-06 -1 1 -2.535182e-06 68.7202 111.2501)" class="st3" width="9.6" height="19.7"/>
		
			<rect x="50.7" y="11.4" transform="matrix(-2.535182e-06 -1 1 -2.535182e-06 34.2201 76.7501)" class="st3" width="9.6" height="19.7"/>
		
			<rect x="119.7" y="11.4" transform="matrix(-2.535182e-06 -1 1 -2.535182e-06 103.2203 145.75)" class="st3" width="9.6" height="19.7"/>
	</g>
</g>
</svg>
