<?xml version="1.0" encoding="utf-8"?>
<!-- Generator: Adobe Illustrator 27.0.1, SVG Export Plug-In . SVG Version: 6.00 Build 0)  -->
<svg version="1.1" id="レイヤー_1" xmlns="http://www.w3.org/2000/svg" xmlns:xlink="http://www.w3.org/1999/xlink" x="0px"
	 y="0px" viewBox="0 0 283.5 283.5" style="enable-background:new 0 0 283.5 283.5;" xml:space="preserve">
<style type="text/css">
	.st0{fill:#B184FF;}
	.st1{fill:#FFA4A7;}
</style>
<g id="レイヤー_2_00000160161100194700583140000010403825662957827716_">
</g>
<g id="レイヤー_1_00000063635092137927718860000014396619050990025138_">
	<path class="st0" d="M76.6,108.9l-21.1,12.2c5-44.1,42.5-78.6,87.9-78.6V23.4C87.3,23.4,41,66.7,36.2,121.7l-22-12.8l31.2,76.4
		L76.6,108.9z"/>
	<path class="st1" d="M269.3,112.2H126.2c-2.7,0-4.8,2.2-4.8,4.8v143.1c0,2.6,2.2,4.8,4.8,4.8h143.1c2.6,0,4.8-2.1,4.8-4.8V117
		C274.1,114.4,271.9,112.2,269.3,112.2z M264.5,255.3H131V121.8h133.5V255.3z"/>
</g>
</svg>
