<svg xmlns="http://www.w3.org/2000/svg" viewBox="0 0 118 34.194" class="logo" data-v-51abe316>
	<g id="logo" transform="translate(-1409 -574)" data-v-51abe316>
		<path id="logo_kyu" d="M141.851,11.432h-.274c.5,11.408,6.492,17.007,8.7,18.554L153.343,26a24.766,24.766,0,0,1-11.492-14.566m10.209-1.614c0-.362-4.014-3.421-4.2-3.421-.152,0-.15.037-.444.434l-2.1,2.862h-5.037V0h-4.312v9.69h-9.724l0,.431h8.144a42.445,42.445,0,0,1-9.732,19.063V9.886A37.134,37.134,0,0,0,127.95,0h-4.844c-.576,6.714-3.315,15.135-7.5,20.506l0,.3a26.858,26.858,0,0,0,4.745-4.351V33.978h4.309V29.524a30.811,30.811,0,0,0,11.31-11.064V33.978h4.312V10.124h11.3c.221,0,.48-.053.479-.307" transform="translate(1329.486 573.998)" fill="#bf9500" data-v-51abe316>
		</path>
		<path id="logo_ichi_com" d="M15.761,14.38l.42-.089-.019-.1a1.6,1.6,0,0,0-.44-.016l-.073.06c.065.1,0,.046.1.1Zm.986-.211a3.359,3.359,0,0,0-.516.007l.084.151h.45Zm-5.65.665.2.008c.1-.069.1.042.18-.04.1-.1.036,0,.091-.155-.093.026-.263.056-.357.08.081.086-.224.042-.118.106m7.026-.745,0-.042h-.049v.042a1.513,1.513,0,0,0-.208.051v.041l.053,0c.071.069.114.075.261.084l0,.086c.071,0,.138,0,.21,0v-.086l.365.038.1-.045a.089.089,0,0,0,.1.041.092.092,0,0,1,.1-.045l0,.043.417-.006.053.084h.054l0-.042a2.079,2.079,0,0,1,.73-.013l0-.128-.052-.043c-.106-.014-.211-.027-.313-.038,0,0-.033.061-.157.045,0,0-.015-.052-.1-.04v.043h-.051l0-.043a2.276,2.276,0,0,1-.521.053v-.047a5.352,5.352,0,0,0-.627-.031,1.283,1.283,0,0,0-.208.048v-.043ZM0,15.755c.15-.022.221-.009.377-.034v.037l.089,0,0,.037.18,0v.036l.121.056,0,.037.111.1v.037H.926v-.035l.1.07.144.1.16-.045c.061.064.025.041.188.051l.085-.006c.17,0,.009-.007.129-.033.2-.044-.059-.035.15-.05l.124.085.118-.072.109.022h.132l0-.037c.076,0,.15,0,.225,0v-.036l.044.036c.074-.008.15,0,.226,0v-.036l.132.032v-.034l.09,0v-.038h.044v.036l.18,0,0-.036.091.036V16.02l.357-.006v-.038c.073,0,.149,0,.223,0v-.037h.046v.037h.046v-.038l.179,0v-.037c.178.011.357.02.538.028l.042-.11.537-.044,0-.038h.091v-.038l.178,0v-.037L6.3,15.6v-.037h.089v-.037c.12,0-.209,0-.089-.007l0-.036.136,0,0-.036c.151.01.3.022.449.03.041-.152.13-.157.357-.155v-.036c.075.011.15.02.225.032l.087-.111.357-.044.044-.073.091.036,0-.038c.209-.027.069-.057.278-.084l.044.034V15H8.5v-.037H8.63v-.037c.1,0,.209,0,.314-.005v-.037l.359-.007,0-.035.134,0V14.8l.134,0v-.038l.136,0v-.035l.044,0v.037l.133-.039.091.035v-.037c.087,0,.179,0,.267,0l0,.036h.043v-.036l.18,0v-.037l.133,0,0-.033c.152-.018.3-.032.45-.048v-.036l.492-.081v.036c.093.009.09-.039.09-.039.114-.021.162.027.225.034l0-.037a1.025,1.025,0,0,1,.449-.008v-.037c.209-.026.416-.055.625-.084l.045.038.044-.074.314-.042v-.038l.178,0V14.18l.045,0v.038c.077.015.079-.035.089-.039l.136.035v-.037c.266-.017.534-.032.8-.051v-.035a.08.08,0,0,1,.092.035l.043,0,0-.036c.106,0,.211,0,.315-.006v-.037c.371,0,.746-.012,1.12-.019l0-.037h.046c.022.009.029.061.135.034v-.037l.134,0v-.037l.044.037.09-.037.091.034v-.037l.044.037.046-.037.042.035h.046v-.035l.131,0c.076,0,.152,0,.227,0,0,0,0,.048.091.036l0-.036a1.293,1.293,0,0,1,.4.029l0-.037a.08.08,0,0,1,.092.034c.081.006.088-.039.088-.039l.045.038.043-.038c.108-.021.117.035.18.035l.046-.038v.037a1.946,1.946,0,0,1,.446-.045c.488.1,1.256-.043,1.8.119l-.044.111h.045v.038c.1.042.23-.047.268-.042v.036a.863.863,0,0,0,.267-.041l.046.073.181-.04,0-.075h.182v.037c-.051.043-.018,0-.044.076l.268.032,0,.036c.1,0,.208,0,.313-.006V14.3h.133v.035c.106,0,.211,0,.315-.006v.036c.151,0,.3,0,.448-.006l0,.038h.089l.047.072.134-.038v.035l.268,0,0,.037.313.031v-.073c.139.023.207.107.314.144l.18,0v.036h.043v-.036c.21.009.42.017.629.027l.046.073a.712.712,0,0,0,.314,0l.045.072.27,0,.047.073.131-.038,0,.035c.087.012.178.02.267.034l0,.035.221-.077v.037c.051.041.018,0,.048.073a.871.871,0,0,1,.314.032V15c.157.043.377,0,.493.03v.11l.136,0-.047-.035c-.086-.031.089-.039.089-.039v-.038h.044l0,.038c.105.01.208.02.313.031l0,.037.134,0v.037c.074.013.079-.037.089-.039.1.012.209.022.313.032l.046.071.182,0v.037H28.4v-.036l.045,0v.038h.09V15.3c.119,0,.241,0,.358,0l0-.075c.167-.013.331-.028.495-.043.043.065.064.055.094.146l.044,0v.04h-.044l.045.109c.09.012.18.022.271.033.157-.153.257-.021.355-.043v-.036c.089-.027.126.006.18-.041v-.075h.045l0,.037a.759.759,0,0,1,.266-.041c.052.062.03.049.134.073a.149.149,0,0,0,.1.107c.09.149-.109.263-.041.333s.1.03.18.071v.038a.387.387,0,0,0,.18.069l0,.075.182.034v.036l.178,0,.047.074h.134v.033h.046l0,.148c-.051.05,0,.394.009.556a1.193,1.193,0,0,0-.348.08v.159l.082.023,0,.072h.087l0,.111a.674.674,0,0,0-.209.05l-.059.1.049.075-.046.039.046,0c0,.1,0,.2,0,.3-.1.047-.1.085-.221.114a1.092,1.092,0,0,1-.039.3l-.116.021V18.4h.089v.116c-.153.015.1.037-.033.067L31,18.726l.009.048-.044.041h.044c0,.1.028-.009.031.1-.094.049-.042.2-.165.227,0,.141-.082.111-.1.211-.074.012-.147.029-.221.042l0,.039a2.35,2.35,0,0,0-.247.067v.04h-.086l-.086.038-.107.033-.02.021a.156.156,0,0,1-.143.071v-.041l-.01,0-.012.024a.184.184,0,0,1-.187.051V19.7l-.081.041v-.025l-.087.036V19.7h0l-.123.051,0-.05-.1,0V19.7h-.084l-.089.01V19.7h-.17l0-.049-.053.025v-.032c-.352-.016-.663.032-1.022.008l-.047-.084-.026,0-.017-.027a2.032,2.032,0,0,0-.534.051l-.166.029-.128.051-.13-.036c-.145-.006-.118.064-.263.06,0,.072-.163-.024-.163.049l-.113,0-.019.025V19.74c-.07.009-.14.029-.237.036l-.125.117c-.173.034-.108.06-.267.1l-.056.03v.022l-.192.1V20.2c-.1,0-.168.192-.273.192l-.133.086c-.159.164-.322.036-.42.319h-.125c-.02.071-.26.2-.285.27-.124.037-.227.154-.354.189l-.123.157c-.249.041-.143.154-.37.2l-.085.106c-.085,0-.177.094-.261.091a.921.921,0,0,1,.224-.3h.062c.02-.067.044-.14.064-.209.106-.071.212-.139.317-.209l0-.105c.147-.107.391-.3.539-.408l0-.108.269-.179v-.106l.128-.052,0-.106.187-.1-.061-.107.253-.155,0-.108.124-.05,0-.052.126-.052v-.107l.19-.1c0-.071,0-.142,0-.213l-.124-.055v-.053H25.2v.051l-.125-.055v.052H25.01v-.056h-.125v-.053c-.1,0-.209,0-.313,0l0-.053c-.085,0-.169,0-.251,0v-.053l-.189,0v-.055l-.247,0v-.051l-.01,0c-.081,0-.161,0-.243,0v-.051h-.023c-.088.006-.174.014-.263.023v-.041c-.072-.013-.147-.023-.22-.036v-.04l-.019-.013-.1.042V18.4l-.185,0v-.053c-.076-.012-.109.09-.252.051v-.053l-.128,0,0-.054h-.062v.053l-.125-.055c-.042.024.018.085-.065.052l-.062-.106c-.229.014-.457-.06-.689-.048l0-.052h-.118V18.11l-.042-.01v.034h-.044v-.042l-.1,0v.01l-.02-.01h-.007v-.008l-.045-.026V18.1l-.132-.038-.262,0V18.1l-.043,0,0-.04-.437,0v-.041l-.263-.035-.042.116c-.072-.011-.146-.022-.219-.036v-.04l-.131.042v.038h-.088v.039l-.043,0v-.041l-.086.041,0-.04h-.043v.04h-.042l-.046-.039v.039l-.043-.037-.307,0v-.038c-.1,0-.2,0-.308,0v-.039H18.49v.038h-.044v-.038c-.122-.023-.114.035-.131.041h-.044v-.038c-.1,0-.2,0-.306,0a.744.744,0,0,0-.352-.036.117.117,0,0,1-.13.04v-.04c-.257-.059-.6.026-.7-.03H16.74v.038l-.526,0-.306,0,0,.04h-.044l-.086-.04v.04l-.088-.038v.041l-.394,0v-.038h-.042l0,.038c-.321.006-.641.007-.961.011v.039l-.088-.039c-.118,0-.234,0-.35,0v.041c-.088-.014-.175-.026-.263-.039v.039c-.13-.011-.262-.022-.393-.036v.042h-.132l0,.04c-.134,0-.265,0-.4,0v.039c-.29,0-.581,0-.875.008l0,.039-.089-.039v.039c-.3.017-.612.031-.917.046v.042c-.249,0-.5.005-.747.008V18.4l-.087-.038V18.4c-.1,0-.205,0-.306,0v.042l-.307,0v.04h-.22v.04H9.082v-.039c-.071,0-.144,0-.218,0v.039l-.133-.039v.039l-.567.044v.04l-.219,0v.041a.738.738,0,0,0-.305-.038v.038l-.4.044,0,.039L7.159,18.7v.039l-.831.047v.04H6.24v.039c-.073,0-.145,0-.218,0V18.9c-.073,0-.147,0-.219,0v.038l-.044-.038c-.16.017-.322.03-.48.045v.038c-.175.017-.351.029-.524.044v.039l-.13,0,0,.038c-.052.009-.073-.061-.174-.037l0,.038-.262,0v.04c-.133.013-.263.03-.393.043l0,.039H3.748V19.2c-.1-.007-.086.039-.086.039-.073,0-.146,0-.22,0v.039c-.145,0-.291,0-.437,0l0,.04c-.1,0-.205,0-.307,0v.037c-.075,0-.146,0-.22,0v.038c-.087,0-.174,0-.262,0v.039L2,19.415l-.042.079c-.131,0-.261,0-.391,0v.04L1.431,19.5v.042H1.212l0,.041a.661.661,0,0,0-.075,0l-.052,0-.007.039-.066.018L1,19.63l0,.011L.963,19.62v.04c-.089.013-.176.03-.265.042v.041l-.217-.037v.037l-.131,0v.039H.132v.041H.09v-.042L0,19.806V33.9H0v.071H33.978V0H0Zm24.366-1.463,0,.138c-.336-.074-.145.018-.334-.132l.332-.006m-.735-.07v.08l-.3,0,0-.081c.1,0,.2,0,.3,0m-2.5-.2,0,.04a.487.487,0,0,0-.18.038l-.048-.11c.075.012.151.023.224.032m5.378,1.1A4.577,4.577,0,0,0,25.383,15l0,.1c.122.015.1.05.111.047a1.632,1.632,0,0,1,.282-.007l0,.05c.073-.018.148-.039.222-.056v.051l.168-.007,0,.05h.114v.05c.127.034.158-.068.223-.057l0,.05a4.7,4.7,0,0,1,.453.14v.051l.11,0,0,.052a.432.432,0,0,0,.274-.029c.08,0-.023.035.057.049.15,0,.725.045.874.04l0-.1c-.176-.031-.11-.073-.168-.1l-.482-.053-.093-.048-.077.054-.056-.048-.275-.024,0-.049-.114.051V15.2c-.168-.013-.341-.055-.507-.084M84.671,33.484a2.061,2.061,0,0,1-1.01-.242,2.44,2.44,0,0,1-1.08-2.068c-.049-.493-.087-1.026-.089-1.563a11.07,11.07,0,0,1,.346-2.934,1.944,1.944,0,0,1,1.793-1.148,1.817,1.817,0,0,1,1.382.52,1.517,1.517,0,0,0-.923,1.377,1.351,1.351,0,0,0,1.431,1.289A1.381,1.381,0,0,0,87.864,27.4c0-1.416-1.564-2.356-3.457-2.349a4.63,4.63,0,0,0-4.859,4.738c.009,2.506,1.929,4.329,4.809,4.315a4.359,4.359,0,0,0,3.68-2.6l-.24-.161a3.606,3.606,0,0,1-3.127,2.142m10-8.4c-2.141.007-5.04,1.333-5.027,4.513.007,2.3,1.739,4.551,5.124,4.541a4.706,4.706,0,0,0,4.593-2.811,4.568,4.568,0,0,0,.246-1.91,4.68,4.68,0,0,0-4.936-4.333M94.7,33.86a1.926,1.926,0,0,1-1.748-1.05c-.161-.3-.381-.742-.391-3.263-.007-1.864.028-4.068,2.088-4.075a1.864,1.864,0,0,1,1.812,1.159c.126.276.254.572.283,2.816.029,2.077.037,4.4-2.044,4.413M75.86,30.784a1.705,1.705,0,1,0,1.75,1.7,1.721,1.721,0,0,0-1.75-1.7M25.574,20.009l.012-.037h-.024v.038Zm-.551-5.128c.044.137-.066.065.248.17-.044-.137-.093-.135-.248-.17m-.094-.021c-.114-.012-.057-.013-.114-.05-.1,0-.059.093-.115,0l-.052,0v.052c-.062.057-.022,0-.052.1l.335-.009Zm91.956,18.7V28.194a2.819,2.819,0,0,0-3.117-3.054,3.386,3.386,0,0,0-3.049,1.791c-.293-.961-1.006-1.791-2.9-1.791a3.726,3.726,0,0,0-3.041,1.577V25.252h0V25.2h-3.715v.432h1.1l-.01,7.931h-1.087v.054h-.005v.378h4.812v-.432h-1.1V28.818a2.993,2.993,0,0,1,.6-2.182,1.821,1.821,0,0,1,1.537-.694c1.134.112,1.255,1.13,1.253,2.3v5.318h-1.095v.432h4.807v-.432H110.71l.006-4.209a3.386,3.386,0,0,1,.822-2.751,2.1,2.1,0,0,1,1.468-.6c1.3.1,1.274,1.206,1.273,2.254v5.305h-1.086v.432H118v-.432Z" transform="translate(1409 574)" fill="#1b4678" data-v-51abe316>
		</path>
	</g>
</svg>

