<?xml version="1.0" encoding="utf-8"?>
<!-- Generator: Adobe Illustrator 27.0.1, SVG Export Plug-In . SVG Version: 6.00 Build 0)  -->
<svg version="1.1" id="レイヤー_1" xmlns="http://www.w3.org/2000/svg" xmlns:xlink="http://www.w3.org/1999/xlink" x="0px"
	 y="0px" viewBox="0 0 283.5 283.5" style="enable-background:new 0 0 283.5 283.5;" xml:space="preserve">
<style type="text/css">
	.st0{fill:#82BF26;}
</style>
<g id="レイヤー_2_00000013173265581980035980000013073772346533970561_">
</g>
<g id="レイヤー_1_00000079454612511661919690000016053803484740493201_">
	<rect x="23.5" y="28.4" width="9.6" height="226.8"/>
	<path class="st0" d="M51.7,89.3h47.6c2.7,0,4.8-2.2,4.8-4.8V36.9c0-2.7-2.2-4.8-4.8-4.8H51.7c-2.7,0-4.8,2.2-4.8,4.8v47.6
		C46.9,87.2,49,89.3,51.7,89.3z M56.5,41.7h38v38h-38V41.7z"/>
	<path class="st0" d="M46.9,165.6c0,2.6,2.2,4.8,4.8,4.8h47.6c2.7,0,4.8-2.1,4.8-4.8V118c0-2.7-2.2-4.8-4.8-4.8H51.7
		c-2.7,0-4.8,2.2-4.8,4.8L46.9,165.6L46.9,165.6z M56.5,122.8h38v38h-38V122.8z"/>
	<path class="st0" d="M46.9,246.8c0,2.6,2.2,4.8,4.8,4.8h47.6c2.7,0,4.8-2.1,4.8-4.8v-47.6c0-2.6-2.2-4.8-4.8-4.8H51.7
		c-2.7,0-4.8,2.1-4.8,4.8L46.9,246.8L46.9,246.8z M56.5,203.9h38v38h-38V203.9z"/>
</g>
</svg>
