<?xml version="1.0" encoding="utf-8"?>
<!-- Generator: Adobe Illustrator 27.0.1, SVG Export Plug-In . SVG Version: 6.00 Build 0)  -->
<svg version="1.1" id="レイヤー_1" xmlns="http://www.w3.org/2000/svg" xmlns:xlink="http://www.w3.org/1999/xlink" x="0px"
	 y="0px" viewBox="0 0 283.5 283.5" style="enable-background:new 0 0 283.5 283.5;" xml:space="preserve">
<style type="text/css">
	.st0{fill:none;}
	.st1{fill:#FF1B00;}
</style>
<g id="レイヤー_2_00000036970877375956599600000002962949665602465956_">
</g>
<g id="レイヤー_1_00000024697075939766518280000018055193869949916856_">
	<path class="st0" d="M141.7,33.1c-59.9,0-108.6,48.7-108.6,108.6s48.7,108.6,108.6,108.6s108.6-48.7,108.6-108.6
		S201.6,33.1,141.7,33.1z M156.6,196.6c0,8.2-6.7,15-14.8,15c-8.2,0-14.8-6.8-14.8-15V129c0-8.2,6.7-14.8,14.8-14.8
		c8.2,0,14.8,6.7,14.8,14.8V196.6z M141.7,102.3c-10,0-16.5-6-16.5-15.3c0-9.2,6.5-15.2,16.5-15.2c9.8,0,16.5,6,16.5,15.2
		C158.2,96.3,151.6,102.3,141.7,102.3z"/>
	<path class="st1" d="M141.7,23.5c-65.2,0-118.2,53-118.2,118.2s53,118.2,118.2,118.2s118.2-53,118.2-118.2S206.9,23.5,141.7,23.5z
		 M141.7,250.3c-59.9,0-108.6-48.7-108.6-108.6S81.8,33.1,141.7,33.1s108.6,48.7,108.6,108.6S201.6,250.3,141.7,250.3z"/>
	<path class="st1" d="M141.7,71.8c-10,0-16.5,6-16.5,15.2c0,9.3,6.5,15.3,16.5,15.3c9.8,0,16.5-6,16.5-15.3
		C158.2,77.8,151.6,71.8,141.7,71.8z"/>
	<path class="st1" d="M141.7,114.2c-8.2,0-14.8,6.7-14.8,14.8v67.6c0,8.2,6.7,15,14.8,15c8.2,0,14.8-6.8,14.8-15V129
		C156.6,120.8,149.9,114.2,141.7,114.2z"/>
</g>
</svg>
