<?xml version="1.0" encoding="utf-8"?>
<!-- Generator: Adobe Illustrator 27.3.1, SVG Export Plug-In . SVG Version: 6.00 Build 0)  -->
<svg version="1.1" xmlns="http://www.w3.org/2000/svg" xmlns:xlink="http://www.w3.org/1999/xlink" x="0px" y="0px"
	 viewBox="0 0 283.46 283.46" style="enable-background:new 0 0 283.46 283.46;" xml:space="preserve">
<style type="text/css">
	.st0{fill:none;}
	.st1{fill:#666666;}
	.st2{fill:#E4E6E6;}
	.st3{fill:#FFFFFF;}
</style>
<g id="レイヤー_2">
</g>
<g id="レイヤー_1">
	<rect x="23.55" y="28.35" class="st1" width="9.59" height="226.77"/>
	<path class="st1" d="M51.66,89.3h47.61c2.65,0,4.79-2.15,4.79-4.79V36.9c0-2.65-2.15-4.79-4.79-4.79H51.66
		c-2.65,0-4.79,2.15-4.79,4.79v47.61C46.86,87.15,49.01,89.3,51.66,89.3z M56.45,41.69h38.02v38.02H56.45V41.69z"/>
	<path class="st1" d="M46.86,165.63c0,2.65,2.15,4.79,4.79,4.79h47.61c2.65,0,4.79-2.15,4.79-4.79v-47.61
		c0-2.65-2.15-4.79-4.79-4.79H51.66c-2.65,0-4.79,2.15-4.79,4.79V165.63z M56.45,122.82h38.02v38.02H56.45V122.82z"/>
	<path class="st1" d="M46.86,246.76c0,2.65,2.15,4.79,4.79,4.79h47.61c2.65,0,4.79-2.15,4.79-4.79v-47.61
		c0-2.65-2.15-4.79-4.79-4.79H51.66c-2.65,0-4.79,2.15-4.79,4.79V246.76z M56.45,203.95h38.02v38.02H56.45V203.95z"/>
</g>
</svg>
