<?xml version="1.0" encoding="utf-8"?>
<!-- Generator: Adobe Illustrator 27.3.1, SVG Export Plug-In . SVG Version: 6.00 Build 0)  -->
<svg version="1.1" xmlns="http://www.w3.org/2000/svg" xmlns:xlink="http://www.w3.org/1999/xlink" x="0px" y="0px"
	 viewBox="0 0 283.46 283.46" style="enable-background:new 0 0 283.46 283.46;" xml:space="preserve">
<style type="text/css">
	.st0{fill:none;}
	.st1{fill:#666666;}
	.st2{fill:#E4E6E6;}
	.st3{fill:#FFFFFF;}
</style>
<g id="レイヤー_2">
</g>
<g id="レイヤー_1">
	<polygon class="st1" points="259.91,255.12 259.91,28.35 255.12,28.35 250.32,28.35 250.32,255.12 255.12,255.12 	"/>
	<path class="st1" d="M179.41,246.57c0,2.65,2.15,4.79,4.79,4.79h47.61c2.65,0,4.79-2.15,4.79-4.79v-47.61
		c0-2.65-2.15-4.79-4.79-4.79H184.2c-2.65,0-4.79,2.15-4.79,4.79V246.57z M189,203.75h38.02v38.02H189V203.75z"/>
	<path class="st1" d="M179.41,165.44c0,2.65,2.15,4.79,4.79,4.79h47.61c2.65,0,4.79-2.15,4.79-4.79v-47.61
		c0-2.65-2.15-4.79-4.79-4.79H184.2c-2.65,0-4.79,2.15-4.79,4.79V165.44z M189,122.63h38.02v38.02H189V122.63z"/>
	<path class="st1" d="M231.81,31.91H184.2c-2.65,0-4.79,2.15-4.79,4.79v47.61c0,2.65,2.15,4.79,4.79,4.79h47.61
		c2.65,0,4.79-2.15,4.79-4.79V36.7C236.6,34.06,234.46,31.91,231.81,31.91z M227.02,79.52H189V41.5h38.02V79.52z"/>
</g>
</svg>
