<?xml version="1.0" encoding="utf-8"?>
<!-- Generator: Adobe Illustrator 27.3.1, SVG Export Plug-In . SVG Version: 6.00 Build 0)  -->
<svg version="1.1" xmlns="http://www.w3.org/2000/svg" xmlns:xlink="http://www.w3.org/1999/xlink" x="0px" y="0px"
	 viewBox="0 0 283.46 283.46" style="enable-background:new 0 0 283.46 283.46;" xml:space="preserve">
<style type="text/css">
	.st0{fill:none;}
	.st1{fill:#666666;}
	.st2{fill:#E4E6E6;}
	.st3{fill:#FFFFFF;}
</style>
<g id="レイヤー_2">
</g>
<g id="レイヤー_1">
	<polygon class="st1" points="255.12,28.35 255.12,23.55 28.35,23.55 28.35,33.14 255.12,33.14 	"/>
	<path class="st1" d="M198.96,46.86c-2.65,0-4.79,2.15-4.79,4.79v47.61c0,2.65,2.15,4.79,4.79,4.79h47.61
		c2.65,0,4.79-2.15,4.79-4.79V51.65c0-2.65-2.15-4.79-4.79-4.79H198.96z M241.77,94.47h-38.02V56.45h38.02V94.47z"/>
	<path class="st1" d="M117.83,46.86c-2.65,0-4.79,2.15-4.79,4.79v47.61c0,2.65,2.15,4.79,4.79,4.79h47.61
		c2.65,0,4.79-2.15,4.79-4.79V51.65c0-2.65-2.15-4.79-4.79-4.79H117.83z M160.65,94.47h-38.02V56.45h38.02V94.47z"/>
	<path class="st1" d="M36.7,46.86c-2.65,0-4.79,2.15-4.79,4.79v47.61c0,2.65,2.15,4.79,4.79,4.79h47.61c2.65,0,4.79-2.15,4.79-4.79
		V51.65c0-2.65-2.15-4.79-4.79-4.79H36.7z M79.52,94.47H41.5V56.45h38.02V94.47z"/>
</g>
</svg>
