<?xml version="1.0" encoding="utf-8"?>
<!-- Generator: Adobe Illustrator 27.3.1, SVG Export Plug-In . SVG Version: 6.00 Build 0)  -->
<svg version="1.1" xmlns="http://www.w3.org/2000/svg" xmlns:xlink="http://www.w3.org/1999/xlink" x="0px" y="0px"
	 viewBox="0 0 283.46 283.46" style="enable-background:new 0 0 283.46 283.46;" xml:space="preserve">
<style type="text/css">
	.st0{fill:none;}
	.st1{fill:#666666;}
	.st2{fill:#E4E6E6;}
	.st3{fill:#FFFFFF;}
</style>
<g id="レイヤー_2">
</g>
<g id="レイヤー_1">
	<rect x="28.35" y="250.32" class="st1" width="226.77" height="9.59"/>
	<path class="st1" d="M32.1,184.2v47.61c0,2.65,2.15,4.79,4.79,4.79h47.61c2.65,0,4.79-2.15,4.79-4.79V184.2
		c0-2.65-2.15-4.79-4.79-4.79H36.9C34.25,179.41,32.1,181.55,32.1,184.2z M41.69,189h38.02v38.02H41.69V189z"/>
	<path class="st1" d="M118.03,179.41c-2.65,0-4.79,2.15-4.79,4.79v47.61c0,2.65,2.15,4.79,4.79,4.79h47.61
		c2.65,0,4.79-2.15,4.79-4.79V184.2c0-2.65-2.15-4.79-4.79-4.79H118.03z M160.84,227.02h-38.02V189h38.02V227.02z"/>
	<path class="st1" d="M194.36,184.2v47.61c0,2.65,2.15,4.79,4.79,4.79h47.61c2.65,0,4.79-2.15,4.79-4.79V184.2
		c0-2.65-2.15-4.79-4.79-4.79h-47.61C196.51,179.41,194.36,181.55,194.36,184.2z M203.95,189h38.02v38.02h-38.02V189z"/>
</g>
</svg>
