<?xml version="1.0" encoding="utf-8"?>
<!-- Generator: Adobe Illustrator 27.3.1, SVG Export Plug-In . SVG Version: 6.00 Build 0)  -->
<svg version="1.1" xmlns="http://www.w3.org/2000/svg" xmlns:xlink="http://www.w3.org/1999/xlink" x="0px" y="0px"
	 viewBox="0 0 283.46 283.46" style="enable-background:new 0 0 283.46 283.46;" xml:space="preserve">
<style type="text/css">
	.st0{fill:none;}
	.st1{fill:#666666;}
	.st2{fill:#E4E6E6;}
	.st3{fill:#FFFFFF;}
</style>
<g id="レイヤー_2">
</g>
<g id="レイヤー_1">
	<path class="st0" d="M146.53,81.5c0,2.65-2.15,4.79-4.79,4.79H86.29v55.44c0,2.65-2.15,4.79-4.79,4.79H26.05v110.88h110.88v-55.44
		c0-2.65,2.15-4.79,4.79-4.79h55.44v-55.44c0-2.65,2.15-4.79,4.79-4.79h55.44V26.05H146.53V81.5z"/>
	<path class="st1" d="M262.2,16.47H141.73c-2.65,0-4.79,2.15-4.79,4.79V76.7H81.5c-2.65,0-4.79,2.15-4.79,4.79v55.44H21.26
		c-2.65,0-4.79,2.15-4.79,4.79v120.47c0,2.65,2.15,4.79,4.79,4.79h120.47c2.65,0,4.79-2.15,4.79-4.79v-55.44h55.44
		c2.65,0,4.79-2.15,4.79-4.79v-55.44h55.44c2.65,0,4.79-2.15,4.79-4.79V21.26C267,18.61,264.85,16.47,262.2,16.47z M257.41,136.94
		h-55.44c-2.65,0-4.79,2.15-4.79,4.79v55.44h-55.44c-2.65,0-4.79,2.15-4.79,4.79v55.44H26.05V146.53H81.5
		c2.65,0,4.79-2.15,4.79-4.79V86.29h55.44c2.65,0,4.79-2.15,4.79-4.79V26.05h110.88V136.94z"/>
</g>
</svg>
