<?xml version="1.0" encoding="utf-8"?>
<!-- Generator: Adobe Illustrator 27.3.1, SVG Export Plug-In . SVG Version: 6.00 Build 0)  -->
<svg version="1.1" xmlns="http://www.w3.org/2000/svg" xmlns:xlink="http://www.w3.org/1999/xlink" x="0px" y="0px"
	 viewBox="0 0 283.46 283.46" style="enable-background:new 0 0 283.46 283.46;" xml:space="preserve">
<style type="text/css">
	.st0{fill:none;}
	.st1{fill:#666666;}
	.st2{fill:#E4E6E6;}
	.st3{fill:#FFFFFF;}
</style>
<g id="レイヤー_2">
</g>
<g id="レイヤー_1">
	<path class="st1" d="M230.59,254.78V62.99c0-2.65-2.15-4.79-4.79-4.79h-25.95V28.69c0-2.65-2.15-4.79-4.79-4.79H57.67
		c-2.65,0-4.79,2.15-4.79,4.79v191.79c0,2.65,2.15,4.79,4.79,4.79h25.95v29.5c0,2.65,2.15,4.79,4.79,4.79H225.8
		C228.44,259.57,230.59,257.42,230.59,254.78z M62.46,215.68V33.48h127.79v182.2H62.46z M221,249.98H93.21v-24.71h101.84
		c2.65,0,4.79-2.15,4.79-4.79V67.78H221V249.98z"/>
</g>
</svg>
