<?xml version="1.0" encoding="utf-8"?>
<!-- Generator: Adobe Illustrator 27.0.1, SVG Export Plug-In . SVG Version: 6.00 Build 0)  -->
<svg version="1.1" id="レイヤー_1" xmlns="http://www.w3.org/2000/svg" xmlns:xlink="http://www.w3.org/1999/xlink" x="0px"
	 y="0px" viewBox="0 0 283.5 283.5" style="enable-background:new 0 0 283.5 283.5;" xml:space="preserve">
<style type="text/css">
	.st0{fill:#8500E7;stroke:#000000;stroke-miterlimit:10;}
	.st1{fill:#D6FF00;}
</style>
<g id="レイヤー_2_00000023971294720336386000000016513507421916339840_">
</g>
<rect x="11.1" y="10" class="st0" width="261.3" height="261.3"/>
<g id="レイヤー_1_00000132057306328236660340000003903216749378387109_">
	<path class="st1" d="M230.4,65.2c-15.4-7.2-32.9-15.4-46-4.4c-13.2,11-8.3,29.6-4,46.1c3.9,15,7.7,29.2-0.8,36.3
		c-8.5,7.1-21.8,0.9-35.8-5.7c-15.4-7.2-32.8-15.4-46-4.4c-13.2,11-8.3,29.6-4,46.1c3.9,15,7.7,29.2-0.8,36.3s-21.8,0.9-35.8-5.7
		c-15.4-7.2-32.8-15.4-46-4.4l6.1,7.4c8.5-7.1,21.8-0.9,35.8,5.7c10,4.7,20.8,9.8,30.8,9.8c5.4,0,10.6-1.5,15.2-5.4
		c13.2-11,8.3-29.6,4-46.1c-3.9-15-7.7-29.2,0.8-36.3c8.5-7.1,21.8-0.9,35.8,5.7c15.4,7.2,32.9,15.4,46,4.4c13.2-11,8.3-29.6,4-46.1
		c-3.9-15-7.7-29.2,0.8-36.3c8.5-7.1,21.8-0.8,35.8,5.7c15.4,7.2,32.9,15.4,46,4.4l-6.1-7.4C257.7,78,244.5,71.8,230.4,65.2z"/>
</g>
</svg>
