<?xml version="1.0" encoding="utf-8"?>
<!-- Generator: Adobe Illustrator 27.3.1, SVG Export Plug-In . SVG Version: 6.00 Build 0)  -->
<svg version="1.1" xmlns="http://www.w3.org/2000/svg" xmlns:xlink="http://www.w3.org/1999/xlink" x="0px" y="0px"
	 viewBox="0 0 283.46 283.46" style="enable-background:new 0 0 283.46 283.46;" xml:space="preserve">
<style type="text/css">
	.st0{fill:none;}
	.st1{fill:#666666;}
	.st2{fill:#E4E6E6;}
	.st3{fill:#FFFFFF;}
</style>
<g id="レイヤー_2">
</g>
<g id="レイヤー_1">
	<path class="st0" d="M140.87,188.36c-0.4,0.74-0.79,1.5-1.16,2.26C140.08,189.86,140.47,189.11,140.87,188.36c0.01,0,0.03,0,0.04,0
		c4.01,0,7.26-3.25,7.26-7.26s-3.25-7.26-7.26-7.26s-7.26,3.25-7.26,7.26C133.65,185.1,136.88,188.34,140.87,188.36z"/>
	<circle class="st0" cx="94.29" cy="214.42" r="30.6"/>
	<circle class="st0" cx="189.17" cy="214.42" r="30.6"/>
	<path class="st1" d="M108.01,161.27c-3.51-0.9-7.15-1.47-10.89-1.66c-0.94-0.05-1.88-0.07-2.82-0.07
		c-11.36,0-21.92,3.45-30.68,9.37c-14.6,9.86-24.19,26.56-24.19,45.5c0,30.31,24.57,54.87,54.87,54.87
		c20.25,0,37.93-10.98,47.44-27.31c0.08,0.14,0.17,0.28,0.26,0.43c0.11,0.18,0.22,0.36,0.33,0.55c0.57,0.94,1.16,1.86,1.79,2.76
		c9.91,14.24,26.39,23.57,45.06,23.57c30.31,0,54.87-24.57,54.87-54.87c0-18.94-9.6-35.64-24.19-45.5
		c-0.73-0.49-1.47-0.97-2.23-1.43c-2.26-1.37-4.63-2.59-7.09-3.63c-0.82-0.35-1.65-0.67-2.49-0.98c-5.88-2.15-12.24-3.33-18.87-3.33
		h0c-1.89,0-3.77,0.1-5.61,0.28c-1.84,0.19-3.66,0.47-5.45,0.83s-3.54,0.82-5.26,1.35s-3.4,1.15-5.04,1.85
		c-0.8,0.34-1.59,0.7-2.37,1.07l66.45-115.1c7.21-12.48,2.93-28.45-9.55-35.66h0l-80.61,139.62L61.13,14.17h0
		c-12.48,7.21-16.76,23.17-9.55,35.66l66.45,115.1c-0.78-0.38-1.57-0.73-2.37-1.07C113.19,162.82,110.64,161.95,108.01,161.27z
		 M189.17,183.81c16.87,0,30.6,13.73,30.6,30.6s-13.73,30.6-30.6,30.6c-16.87,0-30.6-13.73-30.6-30.6S172.3,183.81,189.17,183.81z
		 M140.91,173.85c4.01,0,7.26,3.25,7.26,7.26s-3.25,7.26-7.26,7.26c-0.01,0-0.03,0-0.04,0c-0.4,0.74-0.79,1.5-1.16,2.26
		c0.37-0.77,0.76-1.52,1.16-2.26c-3.99-0.02-7.22-3.26-7.22-7.26C133.65,177.1,136.9,173.85,140.91,173.85z M124.9,214.42
		c0,16.87-13.73,30.6-30.6,30.6c-16.87,0-30.6-13.73-30.6-30.6s13.73-30.6,30.6-30.6C111.17,183.81,124.9,197.54,124.9,214.42z"/>
</g>
</svg>
