<?xml version="1.0" encoding="utf-8"?>
<!-- Generator: Adobe Illustrator 27.3.1, SVG Export Plug-In . SVG Version: 6.00 Build 0)  -->
<svg version="1.1" xmlns="http://www.w3.org/2000/svg" xmlns:xlink="http://www.w3.org/1999/xlink" x="0px" y="0px"
	 viewBox="0 0 283.46 283.46" style="enable-background:new 0 0 283.46 283.46;" xml:space="preserve">
<style type="text/css">
	.st0{fill:none;}
	.st1{fill:#666666;}
	.st2{fill:#E4E6E6;}
	.st3{fill:#FFFFFF;}
</style>
<g id="レイヤー_2">
</g>
<g id="レイヤー_1">
	
		<rect x="20.06" y="59.34" transform="matrix(0.7071 -0.7071 0.7071 0.7071 -33.9457 80.4845)" class="st0" width="120.24" height="43.76"/>
	<path class="st1" d="M146.08,46.26l-1.14,1.14l-34.33-34.33c-1.87-1.87-4.91-1.87-6.78,0l-91.8,91.8c-0.9,0.9-1.4,2.12-1.4,3.39
		s0.5,2.49,1.4,3.39l34.33,34.33l-1.14,1.14c-0.9,0.9-1.4,2.12-1.4,3.39s0.5,2.49,1.4,3.39L163.8,272.47
		c0.94,0.94,2.16,1.4,3.39,1.4s2.45-0.47,3.39-1.4l100.85-100.85c0.9-0.9,1.4-2.12,1.4-3.39s-0.5-2.49-1.4-3.39L152.86,46.26
		C150.98,44.39,147.95,44.39,146.08,46.26z"/>
	
		<rect x="20.06" y="59.34" transform="matrix(0.7071 -0.7071 0.7071 0.7071 -33.9457 80.4845)" class="st3" width="120.24" height="43.76"/>
	
		<rect x="91.81" y="80.31" transform="matrix(0.7071 -0.7071 0.7071 0.7071 -66.3163 158.6344)" class="st2" width="133.04" height="158.11"/>
</g>
</svg>
