<?xml version="1.0" encoding="utf-8"?>
<!-- Generator: Adobe Illustrator 27.3.1, SVG Export Plug-In . SVG Version: 6.00 Build 0)  -->
<svg version="1.1" xmlns="http://www.w3.org/2000/svg" xmlns:xlink="http://www.w3.org/1999/xlink" x="0px" y="0px"
	 viewBox="0 0 283.46 283.46" style="enable-background:new 0 0 283.46 283.46;" xml:space="preserve">
<style type="text/css">
	.st0{fill:none;}
	.st1{fill:#666666;}
	.st2{fill:#E4E6E6;}
	.st3{fill:#FFFFFF;}
</style>
<g id="レイヤー_2">
</g>
<g id="レイヤー_1">
	<rect x="189.24" y="44.78" class="st1" width="80.05" height="19.17"/>
	<path class="st1" d="M167.55,229.1v-9.59h-9.59v4.79h-4.79v9.59h9.59C165.4,233.89,167.55,231.75,167.55,229.1z"/>
	<rect x="115.42" y="224.3" class="st1" width="21.57" height="9.59"/>
	<rect x="39.94" y="224.3" class="st1" width="21.57" height="9.59"/>
	<rect x="77.68" y="224.3" class="st1" width="21.57" height="9.59"/>
	<path class="st1" d="M14.17,233.89h9.59v-9.59h-4.79v-4.79H9.38v9.59C9.38,231.75,11.53,233.89,14.17,233.89z"/>
	<rect x="9.38" y="144.03" class="st1" width="9.59" height="21.57"/>
	<rect x="9.38" y="181.77" class="st1" width="9.59" height="21.57"/>
	<rect x="9.38" y="106.28" class="st1" width="9.59" height="21.57"/>
	<path class="st1" d="M18.97,85.31h4.79v-9.59h-9.59c-2.65,0-4.79,2.15-4.79,4.79v9.59h9.59V85.31z"/>
	<rect x="77.68" y="75.73" class="st1" width="21.57" height="9.59"/>
	<rect x="39.94" y="75.73" class="st1" width="21.57" height="9.59"/>
	<rect x="115.42" y="75.73" class="st1" width="21.57" height="9.59"/>
	<path class="st1" d="M157.96,90.11h9.59v-9.59c0-2.65-2.15-4.79-4.79-4.79h-9.59v9.59h4.79V90.11z"/>
	<rect x="157.96" y="144.02" class="st1" width="9.59" height="21.57"/>
	<rect x="157.96" y="181.77" class="st1" width="9.59" height="21.57"/>
	<rect x="157.96" y="106.28" class="st1" width="9.59" height="21.57"/>
	<rect x="57.16" y="123.51" class="st1" width="62.6" height="62.6"/>
</g>
</svg>
