<?xml version="1.0" encoding="utf-8"?>
<!-- Generator: Adobe Illustrator 27.0.1, SVG Export Plug-In . SVG Version: 6.00 Build 0)  -->
<svg version="1.1" id="レイヤー_1" xmlns="http://www.w3.org/2000/svg" xmlns:xlink="http://www.w3.org/1999/xlink" x="0px"
	 y="0px" viewBox="0 0 283.5 283.5" style="enable-background:new 0 0 283.5 283.5;" xml:space="preserve">
<style type="text/css">
	.st0{fill:#FFFFFF;}
	.st1{fill:#FFC466;}
</style>
<g id="レイヤー_2_00000096050245784826564720000005371658421151798203_">
</g>
<g id="レイヤー_1_00000070084116901851998110000010269443779923014276_">
	<path class="st0" d="M119.9,45.3v20.3v66.6h-9.6V65.6c0-3.1-1.2-6-3.5-8.2c-2.2-2.2-5.2-3.3-8.3-3.2c-6.1,0.2-11.1,5.6-11.1,12.2
		v26l0,0v39.9h-9.6v-40c0-3.1-1.2-6.1-3.5-8.2c-2.2-2.1-5-3.2-8-3.2c-0.1,0-0.2,0-0.4,0C59.8,81,54.8,86.5,54.8,93v101.7
		c0,38.4,18.4,55.6,36.6,55.6h50.3c19.6,0,27-5.4,33.2-14.9c2.8-4.2,4.9-10.5,7.1-17.3c3.2-9.7,6.6-19.6,12.6-26.2
		c5.4-5.8,33.1-35.3,33.3-35.6c0,0,0.1-0.1,0.1-0.1c0.6-0.6,0.8-2.1,0.2-2.8c-3.4-4.6-8.2-7.3-13.5-7.7c-5.2-0.4-10.4,1.6-14.4,5.7
		l-16.9,16.9c-1.4,1.4-3.4,1.8-5.2,1c-1.8-0.7-3-2.5-3-4.4V66.3c0-6.5-5-12-11.1-12.2c-3.1-0.1-6.1,1-8.3,3.2
		c-2.2,2.2-3.5,5.1-3.5,8.2v66.6h-9.6V65.6v-21c0-3.1-1.2-6-3.5-8.2c-2.2-2.2-5.2-3.3-8.3-3.2C124.9,33.3,119.9,38.8,119.9,45.3z"/>
	<path class="st1" d="M110.3,45.3V48c-3.6-2.3-7.8-3.5-12.1-3.4c-11.2,0.3-20.4,10.1-20.4,21.7v8.3c-3.6-2.3-7.8-3.5-12.1-3.4
		C54.4,71.6,45.2,81.3,45.2,93v101.7c0,17.1,3.9,32.9,11.1,44.4c8.4,13.6,20.5,20.8,35.2,20.8h50.3c23.7,0,33.6-7.7,41.2-19.2
		c3.4-5.2,5.7-12.2,8.2-19.5c2.9-8.7,5.9-17.7,10.6-22.7c5.3-5.7,32-34.1,33.3-35.5c4-4,4.4-10.7,1-15.2
		c-5.1-6.8-12.4-10.9-20.5-11.5c-8.1-0.6-15.8,2.4-21.9,8.5l-8.7,8.7V66.3c0-11.7-9.2-21.4-20.4-21.7c-4.4-0.1-8.6,1-12.1,3.4v-3.3
		c0-5.8-2.3-11.1-6.4-15.1s-9.6-6.1-15.3-5.9C119.4,23.9,110.3,33.7,110.3,45.3z M139.3,36.4c2.2,2.2,3.5,5.1,3.5,8.2v21v66.6h9.6
		V65.6c0-3.1,1.2-6,3.5-8.2c2.2-2.2,5.2-3.3,8.3-3.2c6.1,0.2,11.1,5.6,11.1,12.2V165c0,1.9,1.2,3.7,3,4.4c1.8,0.7,3.9,0.3,5.2-1
		l16.9-16.9c4.1-4.1,9.2-6.1,14.4-5.7c5.2,0.4,10,3.1,13.5,7.7c0.6,0.7,0.4,2.1-0.2,2.8c0,0-0.1,0.1-0.1,0.1
		c-0.3,0.3-28,29.8-33.3,35.6c-6.1,6.5-9.4,16.5-12.6,26.2c-2.2,6.7-4.4,13.1-7.1,17.3c-6.2,9.4-13.6,14.9-33.2,14.9H91.5
		c-18.2,0-36.7-17.2-36.7-55.6V93c0-6.5,5-12,11.1-12.2c0.1,0,0.2,0,0.4,0c3,0,5.8,1.1,8,3.2c2.2,2.2,3.5,5.1,3.5,8.2v39.9h9.6V92.3
		l0,0v-26c0-6.5,5-12,11.1-12.2c3.2-0.1,6.1,1,8.3,3.2c2.2,2.2,3.5,5.1,3.5,8.2v66.6h9.6V65.6V45.3c0-6.5,5-12,11.1-12.2
		C134.1,33.1,137.1,34.2,139.3,36.4z"/>
</g>
</svg>
