<?xml version="1.0" encoding="utf-8"?>
<!-- Generator: Adobe Illustrator 27.3.1, SVG Export Plug-In . SVG Version: 6.00 Build 0)  -->
<svg version="1.1" xmlns="http://www.w3.org/2000/svg" xmlns:xlink="http://www.w3.org/1999/xlink" x="0px" y="0px"
	 viewBox="0 0 283.46 283.46" style="enable-background:new 0 0 283.46 283.46;" xml:space="preserve">
<style type="text/css">
	.st0{fill:none;}
	.st1{fill:#666666;}
	.st2{fill:#E4E6E6;}
	.st3{fill:#FFFFFF;}
</style>
<g id="レイヤー_2">
</g>
<g id="レイヤー_1">
	<path class="st0" d="M141.73,33.14c-59.88,0-108.59,48.71-108.59,108.59s48.71,108.59,108.59,108.59s108.59-48.71,108.59-108.59
		S201.61,33.14,141.73,33.14z M156.56,196.63c0,8.16-6.66,14.99-14.83,14.99c-8.16,0-14.83-6.83-14.83-14.99v-67.64
		c0-8.16,6.66-14.83,14.83-14.83c8.16,0,14.83,6.66,14.83,14.83V196.63z M141.73,102.33c-10,0-16.49-6-16.49-15.33
		c0-9.16,6.5-15.16,16.49-15.16c9.83,0,16.49,6,16.49,15.16C158.23,96.33,151.56,102.33,141.73,102.33z"/>
	<path class="st1" d="M141.73,23.55c-65.16,0-118.18,53.02-118.18,118.18s53.02,118.18,118.18,118.18s118.18-53.02,118.18-118.18
		S206.9,23.55,141.73,23.55z M141.73,250.32c-59.88,0-108.59-48.71-108.59-108.59S81.85,33.14,141.73,33.14
		s108.59,48.71,108.59,108.59S201.61,250.32,141.73,250.32z"/>
	<path class="st1" d="M141.73,71.84c-10,0-16.49,6-16.49,15.16c0,9.33,6.5,15.33,16.49,15.33c9.83,0,16.49-6,16.49-15.33
		C158.23,77.84,151.56,71.84,141.73,71.84z"/>
	<path class="st1" d="M141.73,114.16c-8.16,0-14.83,6.66-14.83,14.83v67.64c0,8.16,6.66,14.99,14.83,14.99
		c8.16,0,14.83-6.83,14.83-14.99v-67.64C156.56,120.83,149.89,114.16,141.73,114.16z"/>
</g>
</svg>
