<?xml version="1.0" encoding="utf-8"?>
<!-- Generator: Adobe Illustrator 27.0.1, SVG Export Plug-In . SVG Version: 6.00 Build 0)  -->
<svg version="1.1" id="レイヤー_1" xmlns="http://www.w3.org/2000/svg" xmlns:xlink="http://www.w3.org/1999/xlink" x="0px"
	 y="0px" viewBox="0 0 283.5 283.5" style="enable-background:new 0 0 283.5 283.5;" xml:space="preserve">
<style type="text/css">
	.st0{fill:#FFED2E;stroke:#000000;stroke-miterlimit:10;}
</style>
<g id="レイヤー_2_00000014617175727369035000000000991483747527814812_">
</g>
<rect y="8" class="st0" width="283.5" height="268"/>
<g id="レイヤー_1_00000047745757441135727640000000525036886708925109_">
	<path d="M230.9,192.6c-0.6-2-2.5-3.3-4.6-3.3h-34.2v-17.3c11.2-1.8,21.5-4.2,30.6-7.2c30-9.9,36.3-22.2,36.3-30.8V65.4
		c0-27.2-60.5-41.9-117.4-41.9c-30.6,0-59.4,3.9-81.1,11.1c-30,9.9-36.3,22.2-36.3,30.8v68.7c0,19.7,31.7,32.8,70.8,38.6v16.7H61
		c-2.1,0-3.9,1.3-4.5,3.3s0,4.1,1.7,5.4l82.7,61c0.9,0.6,1.9,0.9,2.9,0.9s2-0.3,2.9-0.9l82.7-61
		C230.9,196.8,231.6,194.6,230.9,192.6z M63.6,43.8c20.8-6.8,48.5-10.6,78.1-10.6s57.3,3.8,78.1,10.6c18.6,6.1,29.7,14.2,29.7,21.7
		S238.4,81,219.9,87.1c-20.8,6.8-48.5,10.6-78.1,10.6s-57.3-3.8-78.1-10.6C45,81,33.9,72.9,33.9,65.4S45,49.9,63.6,43.8z
		 M63.6,155.8c-18.6-6.1-29.7-14.2-29.7-21.7V82.8c19.3,16,64.6,24.5,107.8,24.5c30.6,0,59.4-3.9,81.1-11.1
		c12.7-4.2,21.2-8.8,26.7-13.4v51.3c0,7.4-11.1,15.5-29.7,21.7c-20.8,6.9-48.5,10.6-78.1,10.6S84.4,162.6,63.6,155.8z M143.7,249.2
		l-68.1-50.2H100c2.7,0,4.8-2.1,4.8-4.8v-20.2c12.1,1.4,24.6,2.1,37,2.1c14.2,0,28-0.9,40.9-2.5v20.7c0,2.6,2.1,4.8,4.8,4.8h24.4
		L143.7,249.2z"/>
</g>
</svg>
