<?xml version="1.0" encoding="utf-8"?>
<!-- Generator: Adobe Illustrator 27.3.1, SVG Export Plug-In . SVG Version: 6.00 Build 0)  -->
<svg version="1.1" xmlns="http://www.w3.org/2000/svg" xmlns:xlink="http://www.w3.org/1999/xlink" x="0px" y="0px"
	 viewBox="0 0 283.46 283.46" style="enable-background:new 0 0 283.46 283.46;" xml:space="preserve">
<style type="text/css">
	.st0{fill:none;}
	.st1{fill:#666666;}
	.st2{fill:#E4E6E6;}
	.st3{fill:#FFFFFF;}
</style>
<g id="レイヤー_2">
</g>
<g id="レイヤー_1">
	<path class="st1" d="M230.93,192.65c-0.65-1.97-2.48-3.3-4.55-3.3h-34.16v-17.26c11.19-1.82,21.54-4.24,30.63-7.23
		c29.98-9.87,36.28-22.18,36.28-30.77V65.42c0-27.19-60.49-41.86-117.4-41.86c-30.57,0-59.38,3.94-81.12,11.1
		c-29.98,9.87-36.28,22.18-36.28,30.77v68.67c0,19.69,31.73,32.82,70.85,38.56v16.7H61.03c-2.07,0-3.91,1.33-4.55,3.3
		s0.04,4.13,1.71,5.36l82.68,60.97c0.85,0.62,1.85,0.94,2.85,0.94s2-0.31,2.85-0.94L229.23,198
		C230.89,196.77,231.58,194.61,230.93,192.65z M63.61,43.76c20.8-6.85,48.54-10.62,78.12-10.62s57.33,3.77,78.12,10.62
		c18.59,6.12,29.69,14.22,29.69,21.66s-11.1,15.54-29.69,21.66c-20.8,6.85-48.54,10.62-78.12,10.62s-57.33-3.77-78.12-10.62
		c-18.59-6.12-29.69-14.22-29.69-21.66S45.02,49.88,63.61,43.76z M63.61,155.75c-18.59-6.12-29.69-14.22-29.69-21.66V82.81
		c19.27,16,64.57,24.47,107.81,24.47c30.57,0,59.38-3.94,81.12-11.1c12.72-4.19,21.17-8.82,26.69-13.41v51.32
		c0,7.44-11.1,15.54-29.69,21.66c-20.8,6.85-48.54,10.62-78.12,10.62S84.41,162.59,63.61,155.75z M143.7,249.16l-68.1-50.22h24.38
		c2.65,0,4.79-2.15,4.79-4.79v-20.25c12.05,1.36,24.59,2.06,36.96,2.06c14.19,0,28-0.86,40.9-2.49v20.68c0,2.65,2.15,4.79,4.79,4.79
		h24.38L143.7,249.16z"/>
</g>
</svg>
