<?xml version="1.0" encoding="utf-8"?>
<!-- Generator: Adobe Illustrator 27.3.1, SVG Export Plug-In . SVG Version: 6.00 Build 0)  -->
<svg version="1.1" xmlns="http://www.w3.org/2000/svg" xmlns:xlink="http://www.w3.org/1999/xlink" x="0px" y="0px"
	 viewBox="0 0 283.46 283.46" style="enable-background:new 0 0 283.46 283.46;" xml:space="preserve">
<style type="text/css">
	.st0{fill:none;}
	.st1{fill:#666666;}
	.st2{fill:#E4E6E6;}
	.st3{fill:#FFFFFF;}
</style>
<g id="レイヤー_2">
</g>
<g id="レイヤー_1">
	<rect x="109.06" y="18.54" class="st0" width="65.35" height="65.35"/>
	<rect x="259.7" y="136.94" class="st1" width="9.59" height="9.59"/>
	<rect x="164.42" y="136.94" class="st1" width="18.15" height="9.59"/>
	<rect x="227.94" y="136.94" class="st1" width="18.15" height="9.59"/>
	<rect x="100.9" y="136.94" class="st1" width="18.15" height="9.59"/>
	<rect x="37.37" y="136.94" class="st1" width="18.15" height="9.59"/>
	<rect x="69.13" y="136.94" class="st1" width="18.15" height="9.59"/>
	<rect x="196.18" y="136.94" class="st1" width="18.15" height="9.59"/>
	<rect x="132.66" y="136.94" class="st1" width="18.15" height="9.59"/>
	<rect x="14.17" y="136.94" class="st1" width="9.59" height="9.59"/>
	<path class="st1" d="M184,269.72v-9.59h-9.59v4.79h-4.79v9.59h9.59C181.85,274.51,184,272.37,184,269.72z"/>
	<rect x="130.58" y="264.93" class="st1" width="22.31" height="9.59"/>
	<path class="st1" d="M99.47,269.72c0,2.65,2.15,4.79,4.79,4.79h9.59v-9.59h-4.79v-4.79h-9.59V269.72z"/>
	<rect x="99.47" y="221.1" class="st1" width="9.59" height="22.31"/>
	<path class="st1" d="M113.85,189.99h-9.59c-2.65,0-4.79,2.15-4.79,4.79v9.59h9.59v-4.79h4.79V189.99z"/>
	<rect x="130.58" y="189.99" class="st1" width="22.31" height="9.59"/>
	<path class="st1" d="M184,194.78c0-2.65-2.15-4.79-4.79-4.79h-9.59v9.59h4.79v4.79H184V194.78z"/>
	<rect x="174.41" y="221.1" class="st1" width="9.59" height="22.31"/>
	<path class="st1" d="M184,13.74c0-2.65-2.15-4.79-4.79-4.79h-74.94c-2.65,0-4.79,2.15-4.79,4.79v74.94c0,2.65,2.15,4.79,4.79,4.79
		h74.94c2.65,0,4.79-2.15,4.79-4.79V13.74z M174.41,83.89h-65.35V18.54h65.35V83.89z"/>
</g>
</svg>
