<?xml version="1.0" encoding="utf-8"?>
<!-- Generator: Adobe Illustrator 27.4.0, SVG Export Plug-In . SVG Version: 6.00 Build 0)  -->
<svg version="1.1" xmlns="http://www.w3.org/2000/svg" xmlns:xlink="http://www.w3.org/1999/xlink" x="0px" y="0px"
	 viewBox="0 0 283.46 283.46" style="enable-background:new 0 0 283.46 283.46;" xml:space="preserve">
<style type="text/css">
	.st0{fill:none;}
	.st1{fill:#666666;}
	.st2{fill:#E4E6E6;}
</style>
<g id="レイヤー_2">
</g>
<g id="レイヤー_1">
	<g>
		<path class="st0" d="M157.96,102.93H18.97v138.99h138.99V102.93z M119.76,203.72h-62.6v-62.6h62.6V203.72z"/>
		<polygon class="st1" points="219.68,112.01 238.85,112.01 238.85,81.57 269.29,81.57 269.29,62.4 238.85,62.4 238.85,31.96 
			219.68,31.96 219.68,62.4 189.24,62.4 189.24,81.57 219.68,81.57 		"/>
		<path class="st1" d="M14.17,251.51h148.58c2.65,0,4.79-2.15,4.79-4.79V98.14c0-2.65-2.15-4.79-4.79-4.79H14.17
			c-2.65,0-4.79,2.15-4.79,4.79v148.58C9.38,249.36,11.53,251.51,14.17,251.51z M18.97,102.93h138.99v138.99H18.97V102.93z"/>
		<rect x="57.16" y="141.13" class="st1" width="62.6" height="62.6"/>
	</g>
</g>
</svg>
