<?xml version="1.0" encoding="utf-8"?>
<!-- Generator: Adobe Illustrator 27.3.1, SVG Export Plug-In . SVG Version: 6.00 Build 0)  -->
<svg version="1.1" xmlns="http://www.w3.org/2000/svg" xmlns:xlink="http://www.w3.org/1999/xlink" x="0px" y="0px"
	 viewBox="0 0 283.46 283.46" style="enable-background:new 0 0 283.46 283.46;" xml:space="preserve">
<style type="text/css">
	.st0{fill:none;}
	.st1{fill:#666666;}
	.st2{fill:#E4E6E6;}
	.st3{fill:#FFFFFF;}
</style>
<g id="レイヤー_2">
</g>
<g id="レイヤー_1">
	<path class="st0" d="M157.96,105.33H18.97v138.99h138.99V105.33z M119.76,206.12h-62.6v-62.6h62.6V206.12z"/>
	<polygon class="st1" points="219.68,114.41 238.85,114.41 238.85,83.97 269.29,83.97 269.29,64.79 238.85,64.79 238.85,34.35 
		219.68,34.35 219.68,64.79 189.24,64.79 189.24,83.97 219.68,83.97 	"/>
	<path class="st1" d="M14.17,253.91h148.58c2.65,0,4.79-2.15,4.79-4.79V100.53c0-2.65-2.15-4.79-4.79-4.79H14.17
		c-2.65,0-4.79,2.15-4.79,4.79v148.58C9.38,251.76,11.53,253.91,14.17,253.91z M18.97,105.33h138.99v138.99H18.97V105.33z"/>
	<rect x="57.16" y="143.52" class="st1" width="62.6" height="62.6"/>
</g>
</svg>
