<?xml version="1.0" encoding="utf-8"?>
<!-- Generator: Adobe Illustrator 27.3.1, SVG Export Plug-In . SVG Version: 6.00 Build 0)  -->
<svg version="1.1" xmlns="http://www.w3.org/2000/svg" xmlns:xlink="http://www.w3.org/1999/xlink" x="0px" y="0px"
	 viewBox="0 0 283.46 283.46" style="enable-background:new 0 0 283.46 283.46;" xml:space="preserve">
<style type="text/css">
	.st0{fill:none;}
	.st1{fill:#666666;}
	.st2{fill:#E4E6E6;}
	.st3{fill:#FFFFFF;}
</style>
<g id="レイヤー_2">
</g>
<g id="レイヤー_1">
	<path class="st2" d="M135.06,86.56c47.57,6.14,83.84,36.89,83.84,73.79c0,6.94-1.29,13.66-3.69,20.04h42.42V57.8H135.06V86.56z"/>
	<path class="st1" d="M262.43,48.22H130.27c-2.65,0-4.79,2.15-4.79,4.79v32.65c-2.61-0.15-5.24-0.23-7.9-0.23
		c-2.96,0-5.94,0.1-8.87,0.28c-4.7,0.3-8.97,2.69-11.72,6.56c-2.71,3.82-3.55,8.57-2.31,13.03c2.54,9.12,1.46,18.89-3.14,28.24
		c-2.96,6.02-7.95,10.95-14.04,13.89c-12.53,6.04-26.01,5.71-36.98-0.92c-5.03-3.04-11.08-3.14-16.18-0.27
		c-5.06,2.85-8.09,8.02-8.1,13.83l0,0.24c0,41.3,45.46,74.91,101.33,74.91c41.65,0,77.5-18.67,93.06-45.28h51.8
		c2.65,0,4.79-2.15,4.79-4.79V53.01C267.23,50.36,265.08,48.22,262.43,48.22z M117.57,225.66c-50.59,0-91.75-29.3-91.75-65.3l0-0.23
		c0.01-3.34,2.25-4.96,3.22-5.51c0.99-0.56,2.07-0.83,3.15-0.83c1.16,0,2.32,0.32,3.37,0.95c13.79,8.33,30.6,8.82,46.1,1.35
		c8.01-3.86,14.58-10.36,18.48-18.3c5.66-11.5,6.96-23.62,3.78-35.05c-0.46-1.67-0.14-3.45,0.89-4.91c1.07-1.5,2.71-2.43,4.51-2.54
		c2.72-0.18,5.5-0.26,8.25-0.26c50.59,0,91.75,29.3,91.75,65.32S168.16,225.66,117.57,225.66z M257.64,180.38h-42.42
		c2.4-6.38,3.69-13.1,3.69-20.04c0-36.9-36.27-67.64-83.84-73.79V57.8h122.57V180.38z"/>
	<path class="st2" d="M155.63,178.11c-5.35,0-9.7,4.35-9.7,9.7s4.35,9.7,9.7,9.7s9.7-4.35,9.7-9.7S160.98,178.11,155.63,178.11z"/>
	<path class="st1" d="M155.63,168.52c-10.64,0-19.29,8.65-19.29,19.29c0,10.64,8.65,19.29,19.29,19.29
		c10.64,0,19.29-8.65,19.29-19.29C174.92,177.18,166.27,168.52,155.63,168.52z M155.63,197.52c-5.35,0-9.7-4.35-9.7-9.7
		s4.35-9.7,9.7-9.7s9.7,4.35,9.7,9.7S160.98,197.52,155.63,197.52z"/>
	<path class="st2" d="M164.34,147.38c0,7.5,6.1,13.61,13.61,13.61s13.61-6.1,13.61-13.61s-6.1-13.61-13.61-13.61
		S164.34,139.87,164.34,147.38z"/>
	<path class="st1" d="M154.76,147.38c0,12.79,10.41,23.2,23.2,23.2c12.79,0,23.19-10.41,23.19-23.2c0-12.79-10.41-23.19-23.19-23.19
		C165.16,124.18,154.76,134.59,154.76,147.38z M191.56,147.38c0,7.5-6.1,13.61-13.61,13.61s-13.61-6.1-13.61-13.61
		s6.1-13.61,13.61-13.61S191.56,139.87,191.56,147.38z"/>
	<path class="st2" d="M117.57,196.56c-3.81,0-6.92,3.1-6.92,6.92s3.1,6.92,6.92,6.92s6.92-3.1,6.92-6.92
		S121.39,196.56,117.57,196.56z"/>
	<path class="st1" d="M117.57,186.97c-9.1,0-16.5,7.4-16.5,16.5c0,9.1,7.4,16.5,16.5,16.5c9.1,0,16.5-7.4,16.5-16.5
		C134.08,194.37,126.67,186.97,117.57,186.97z M117.57,210.39c-3.81,0-6.92-3.1-6.92-6.92s3.1-6.92,6.92-6.92s6.92,3.1,6.92,6.92
		S121.39,210.39,117.57,210.39z"/>
	<path class="st2" d="M81.69,197.3c-1.92,0-3.48,1.56-3.48,3.48s1.56,3.48,3.48,3.48s3.48-1.56,3.48-3.48S83.61,197.3,81.69,197.3z"
		/>
	<path class="st1" d="M81.69,187.71c-7.21,0-13.07,5.86-13.07,13.07s5.86,13.07,13.07,13.07c7.21,0,13.07-5.86,13.07-13.07
		S88.89,187.71,81.69,187.71z M81.69,204.26c-1.92,0-3.48-1.56-3.48-3.48s1.56-3.48,3.48-3.48s3.48,1.56,3.48,3.48
		S83.61,204.26,81.69,204.26z"/>
</g>
</svg>
