<?xml version="1.0" encoding="utf-8"?>
<!-- Generator: Adobe Illustrator 27.3.1, SVG Export Plug-In . SVG Version: 6.00 Build 0)  -->
<svg version="1.1" xmlns="http://www.w3.org/2000/svg" xmlns:xlink="http://www.w3.org/1999/xlink" x="0px" y="0px"
	 viewBox="0 0 283.46 283.46" style="enable-background:new 0 0 283.46 283.46;" xml:space="preserve">
<style type="text/css">
	.st0{fill:none;}
	.st1{fill:#666666;}
	.st2{fill:#E4E6E6;}
	.st3{fill:#FFFFFF;}
</style>
<g id="レイヤー_2">
</g>
<g id="レイヤー_1">
	<path class="st2" d="M199.74,89.35c-13.73-0.9-27.04,3.5-37.46,12.36c-11.71,9.96-29.38,9.96-41.09,0
		c-10.42-8.86-23.72-13.25-37.46-12.36c-26.06,1.69-47.06,22.6-48.86,48.64c-1.02,14.75,3.95,28.8,13.98,39.55
		c9.9,10.6,23.89,16.69,38.39,16.69c12.31,0,24.28-4.35,33.7-12.25c6.03-5.06,13.42-7.58,20.81-7.58c7.39,0,14.78,2.53,20.81,7.58
		c9.42,7.9,21.38,12.25,33.7,12.25c14.5,0,28.49-6.08,38.39-16.69c10.03-10.75,15-24.8,13.98-39.55
		C246.8,111.95,225.79,91.04,199.74,89.35z"/>
	<path class="st1" d="M200.36,79.78c-16.23-1.05-31.96,4.14-44.29,14.62c-8.17,6.94-20.5,6.94-28.67,0
		c-12.33-10.48-28.05-15.66-44.29-14.62c-30.83,2-55.68,26.74-57.81,57.55c-1.2,17.43,4.67,34.04,16.53,46.75
		c11.7,12.54,28.25,19.73,45.39,19.73c14.56,0,28.72-5.15,39.86-14.49c8.49-7.12,20.81-7.12,29.29,0
		c11.14,9.34,25.3,14.49,39.86,14.49c17.15,0,33.69-7.19,45.39-19.73c11.87-12.72,17.74-29.32,16.53-46.75
		C256.04,106.52,231.18,81.78,200.36,79.78z M234.62,177.54c-9.9,10.6-23.89,16.69-38.39,16.69c-12.31,0-24.28-4.35-33.7-12.25
		c-6.03-5.06-13.42-7.58-20.81-7.58c-7.39,0-14.78,2.53-20.81,7.58c-9.42,7.9-21.38,12.25-33.7,12.25
		c-14.5,0-28.49-6.08-38.39-16.69c-10.03-10.75-15-24.8-13.98-39.55c1.8-26.04,22.81-46.95,48.86-48.64
		c13.74-0.9,27.04,3.5,37.46,12.36c11.71,9.96,29.38,9.96,41.09,0c10.42-8.86,23.72-13.25,37.46-12.36
		c26.06,1.69,47.06,22.6,48.86,48.64C249.62,152.74,244.65,166.79,234.62,177.54z"/>
</g>
</svg>
