<?xml version="1.0" encoding="utf-8"?>
<!-- Generator: Adobe Illustrator 27.3.1, SVG Export Plug-In . SVG Version: 6.00 Build 0)  -->
<svg version="1.1" xmlns="http://www.w3.org/2000/svg" xmlns:xlink="http://www.w3.org/1999/xlink" x="0px" y="0px"
	 viewBox="0 0 283.46 283.46" style="enable-background:new 0 0 283.46 283.46;" xml:space="preserve">
<style type="text/css">
	.st0{fill:none;}
	.st1{fill:#666666;}
	.st2{fill:#E4E6E6;}
	.st3{fill:#FFFFFF;}
</style>
<g id="レイヤー_2">
</g>
<g id="レイヤー_1">
	<rect x="121.35" y="182.11" class="st0" width="43.71" height="17.06"/>
	<rect x="121.35" y="208.76" class="st0" width="43.71" height="17.06"/>
	<polygon class="st1" points="205.52,75.94 77.94,75.94 90.48,54.35 14.17,85.52 90.48,116.71 77.94,95.11 205.52,95.11 
		192.98,116.71 269.29,85.52 192.98,54.35 	"/>
	<path class="st1" d="M169.86,172.52h-53.3c-2.65,0-4.79,2.15-4.79,4.79v21.86H14.17v9.59h97.59v21.86c0,2.65,2.15,4.79,4.79,4.79
		h53.3c2.65,0,4.79-2.15,4.79-4.79v-21.86h94.64v-9.59h-94.64v-21.86C174.65,174.66,172.5,172.52,169.86,172.52z M165.06,225.82
		h-43.71v-17.06h43.71V225.82z M165.06,199.17h-43.71v-17.06h43.71V199.17z"/>
</g>
</svg>
