<?xml version="1.0" encoding="utf-8"?>
<!-- Generator: Adobe Illustrator 27.0.1, SVG Export Plug-In . SVG Version: 6.00 Build 0)  -->
<svg version="1.1" id="レイヤー_1" xmlns="http://www.w3.org/2000/svg" xmlns:xlink="http://www.w3.org/1999/xlink" x="0px"
	 y="0px" viewBox="0 0 283.5 283.5" style="enable-background:new 0 0 283.5 283.5;" xml:space="preserve">
<style type="text/css">
	.st0{fill:#FF5CD2;}
</style>
<g id="レイヤー_2_00000080919589209994606540000011092881405829221766_">
</g>
<g id="レイヤー_1_00000119119566278465713790000002555416603767209379_">
	<path d="M238.1,180.5l31.2-76.4l-22,12.8c-4.8-55-51.1-98.3-107.3-98.3v19.2c45.4,0,83,34.4,87.9,78.6l-21.1-12.2L238.1,180.5z"/>
	<path class="st0" d="M14.2,260.1h143.1c2.6,0,4.8-2.1,4.8-4.8V112.2c0-2.7-2.1-4.8-4.8-4.8H14.2c-2.6,0-4.8,2.2-4.8,4.8v143.1
		C9.4,258,11.5,260.1,14.2,260.1z M19,117h133.5v133.5H19V117z"/>
</g>
</svg>
