<?xml version="1.0" encoding="utf-8"?>
<!-- Generator: Adobe Illustrator 27.3.1, SVG Export Plug-In . SVG Version: 6.00 Build 0)  -->
<svg version="1.1" xmlns="http://www.w3.org/2000/svg" xmlns:xlink="http://www.w3.org/1999/xlink" x="0px" y="0px"
	 viewBox="0 0 283.46 283.46" style="enable-background:new 0 0 283.46 283.46;" xml:space="preserve">
<style type="text/css">
	.st0{fill:none;}
	.st1{fill:#666666;}
	.st2{fill:#E4E6E6;}
	.st3{fill:#FFFFFF;}
</style>
<g id="レイヤー_2">
</g>
<g id="レイヤー_1">
	<path class="st1" d="M238.06,180.53l31.23-76.43l-22.04,12.8c-4.77-55.01-51.07-98.33-107.3-98.33v19.21
		c45.44,0,82.98,34.42,87.95,78.55l-21.06-12.23L238.06,180.53z"/>
	<path class="st1" d="M14.17,260.1h143.07c2.65,0,4.79-2.15,4.79-4.79V112.24c0-2.65-2.15-4.79-4.79-4.79H14.17
		c-2.65,0-4.79,2.15-4.79,4.79v143.07C9.38,257.95,11.53,260.1,14.17,260.1z M18.97,117.03h133.48v133.48H18.97V117.03z"/>
</g>
</svg>
