<?xml version="1.0" encoding="utf-8"?>
<!-- Generator: Adobe Illustrator 27.3.1, SVG Export Plug-In . SVG Version: 6.00 Build 0)  -->
<svg version="1.1" xmlns="http://www.w3.org/2000/svg" xmlns:xlink="http://www.w3.org/1999/xlink" x="0px" y="0px"
	 viewBox="0 0 283.46 283.46" style="enable-background:new 0 0 283.46 283.46;" xml:space="preserve">
<style type="text/css">
	.st0{fill:none;}
	.st1{fill:#666666;}
	.st2{fill:#E4E6E6;}
	.st3{fill:#FFFFFF;}
</style>
<g id="レイヤー_2">
</g>
<g id="レイヤー_1">
	<path class="st1" d="M76.63,108.89l-21.07,12.23c4.96-44.14,42.51-78.56,87.95-78.56V23.36c-56.23,0-102.53,43.31-107.31,98.33
		l-22.04-12.8l31.23,76.43L76.63,108.89z"/>
	<path class="st1" d="M269.29,112.24H126.22c-2.65,0-4.79,2.15-4.79,4.79V260.1c0,2.65,2.15,4.79,4.79,4.79h143.08
		c2.65,0,4.79-2.15,4.79-4.79V117.03C274.09,114.38,271.94,112.24,269.29,112.24z M264.5,255.31H131.01V121.82H264.5V255.31z"/>
</g>
</svg>
