<?xml version="1.0" encoding="utf-8"?>
<!-- Generator: Adobe Illustrator 27.0.1, SVG Export Plug-In . SVG Version: 6.00 Build 0)  -->
<svg version="1.1" id="レイヤー_1" xmlns="http://www.w3.org/2000/svg" xmlns:xlink="http://www.w3.org/1999/xlink" x="0px"
	 y="0px" viewBox="0 0 283.5 283.5" style="enable-background:new 0 0 283.5 283.5;" xml:space="preserve">
<style type="text/css">
	.st0{fill:#89BFFF;}
	.st1{fill:#FFA4A7;}
	.st2{fill:#666666;}
	.st3{fill:#89C4FF;}
</style>
<g id="レイヤー_2_00000139255788102429957820000007975851445771721103_">
</g>
<g id="レイヤー_1_00000166671627953091170430000015219350250007128751_">
	<path class="st0" d="M118.6,59.9c0-2.7,2.2-4.8,4.8-4.8h10.1v-4.1h-17.9v17.8h2.9L118.6,59.9L118.6,59.9z"/>
	<rect x="128.2" y="64.7" class="st1" width="5.3" height="4.1"/>
	<rect x="246.6" y="64.7" class="st1" width="4.1" height="4.1"/>
	<path class="st0" d="M246.6,55.1h8.9c2.7,0,4.8,2.2,4.8,4.8v8.9h4.1V51h-17.9L246.6,55.1L246.6,55.1z"/>
	<path class="st0" d="M260.4,192c0,2.6-2.1,4.8-4.8,4.8h-8.9v4.1h17.9v-17.9h-4.1L260.4,192L260.4,192z"/>
	<rect x="246.6" y="183.1" class="st1" width="4.1" height="4.1"/>
	<path class="st1" d="M250.8,78.4h-8.9c-2.6,0-4.8-2.2-4.8-4.8v-8.9h-93.9v8.9c0,2.7-2.1,4.8-4.8,4.8h-10.1v15
		c47.6,6.1,83.8,36.9,83.8,73.8c0,6.9-1.3,13.7-3.7,20h28.7v-8.9c0-2.6,2.1-4.8,4.8-4.8h8.9L250.8,78.4L250.8,78.4z"/>
	<path class="st2" d="M269.3,41.4h-27.4c-2.6,0-4.8,2.2-4.8,4.8v8.9h-93.9v-8.9c0-2.7-2.1-4.8-4.8-4.8h-27.4c-2.7,0-4.8,2.2-4.8,4.8
		v27.4c0,2.7,2.2,4.8,4.8,4.8h7.7v14.1c-2.6-0.2-5.2-0.2-7.9-0.2c-3,0-5.9,0.1-8.9,0.3c-4.7,0.3-9,2.7-11.7,6.6
		c-2.7,3.8-3.6,8.6-2.3,13c2.5,9.1,1.5,18.9-3.2,28.2c-3,6-7.9,10.9-14,13.9c-12.5,6-26,5.7-37-0.9c-5-3-11.1-3.1-16.2-0.3
		c-5.1,2.9-8.1,8-8.1,13.9v0.2c0,41.3,45.5,74.9,101.3,74.9c41.7,0,77.5-18.7,93.1-45.3h33.3v8.9c0,2.6,2.1,4.8,4.8,4.8h27.4
		c2.6,0,4.8-2.1,4.8-4.8v-27.4c0-2.6-2.1-4.8-4.8-4.8h-8.9V78.4h8.9c2.6,0,4.8-2.2,4.8-4.8V46.2C274.1,43.5,271.9,41.4,269.3,41.4z
		 M246.6,64.7h4.1v4.1h-4.1V64.7z M115.7,68.8V51h17.9v4.1h-10.1c-2.7,0-4.8,2.2-4.8,4.8v8.9H115.7z M133.6,64.7v4.1h-5.3v-4.1
		H133.6z M110.7,232.5c-50.6,0-91.8-29.3-91.8-65.3V167c0-3.3,2.2-5,3.2-5.5c1-0.6,2.1-0.8,3.1-0.8c1.2,0,2.3,0.3,3.4,0.9
		c13.8,8.3,30.6,8.8,46.1,1.4c8-3.9,14.6-10.4,18.5-18.3c5.7-11.5,7-23.6,3.8-35.1c-0.5-1.7-0.1-3.5,0.9-4.9
		c1.1-1.5,2.7-2.4,4.5-2.5c2.7-0.2,5.5-0.3,8.2-0.3c50.6,0,91.7,29.3,91.7,65.3S161.3,232.5,110.7,232.5z M237.1,178.3v8.9h-28.7
		c2.4-6.4,3.7-13.1,3.7-20c0-36.9-36.3-67.6-83.8-73.8v-15h10.1c2.6,0,4.8-2.2,4.8-4.8v-8.9h93.9v8.9c0,2.7,2.1,4.8,4.8,4.8h8.9
		v95.1h-8.9C239.2,173.5,237.1,175.7,237.1,178.3z M250.8,183.1v4.1h-4.1v-4.1H250.8z M264.5,183.1V201h-17.9v-4.1h8.9
		c2.7,0,4.8-2.1,4.8-4.8v-8.9L264.5,183.1L264.5,183.1z M264.5,68.8h-4.1v-8.9c0-2.7-2.1-4.8-4.8-4.8h-8.9V51h17.9L264.5,68.8
		L264.5,68.8z"/>
	<path class="st0" d="M148.8,185c-5.4,0-9.7,4.4-9.7,9.7s4.4,9.7,9.7,9.7s9.7-4.4,9.7-9.7S154.1,185,148.8,185z"/>
	<path class="st2" d="M148.8,175.4c-10.6,0-19.3,8.6-19.3,19.3c0,10.6,8.6,19.3,19.3,19.3c10.6,0,19.3-8.6,19.3-19.3
		C168.1,184,159.4,175.4,148.8,175.4z M148.8,204.4c-5.4,0-9.7-4.4-9.7-9.7s4.4-9.7,9.7-9.7s9.7,4.4,9.7,9.7
		S154.1,204.4,148.8,204.4z"/>
	<path class="st0" d="M157.5,154.2c0,7.5,6.1,13.6,13.6,13.6s13.6-6.1,13.6-13.6s-6.1-13.6-13.6-13.6S157.5,146.7,157.5,154.2z"/>
	<path class="st2" d="M147.9,154.2c0,12.8,10.4,23.2,23.2,23.2c12.8,0,23.2-10.4,23.2-23.2c0-12.8-10.4-23.2-23.2-23.2
		C158.3,131,147.9,141.4,147.9,154.2z M184.7,154.2c0,7.5-6.1,13.6-13.6,13.6s-13.6-6.1-13.6-13.6s6.1-13.6,13.6-13.6
		S184.7,146.7,184.7,154.2z"/>
	<path class="st0" d="M110.7,203.4c-3.8,0-6.9,3.1-6.9,6.9s3.1,6.9,6.9,6.9s6.9-3.1,6.9-6.9S114.5,203.4,110.7,203.4z"/>
	<path class="st2" d="M110.7,193.8c-9.1,0-16.5,7.4-16.5,16.5s7.4,16.5,16.5,16.5s16.5-7.4,16.5-16.5S119.8,193.8,110.7,193.8z
		 M110.7,217.2c-3.8,0-6.9-3.1-6.9-6.9s3.1-6.9,6.9-6.9s6.9,3.1,6.9,6.9S114.5,217.2,110.7,217.2z"/>
	<path class="st3" d="M74.8,204.2c-1.9,0-3.5,1.6-3.5,3.5s1.6,3.5,3.5,3.5s3.5-1.6,3.5-3.5S76.8,204.2,74.8,204.2z"/>
	<path class="st2" d="M74.8,194.6c-7.2,0-13.1,5.9-13.1,13.1s5.9,13.1,13.1,13.1s13.1-5.9,13.1-13.1C87.9,200.4,82,194.6,74.8,194.6
		z M74.8,211.1c-1.9,0-3.5-1.6-3.5-3.5s1.6-3.5,3.5-3.5s3.5,1.6,3.5,3.5S76.8,211.1,74.8,211.1z"/>
</g>
</svg>
