<?xml version="1.0" encoding="utf-8"?>
<!-- Generator: Adobe Illustrator 27.0.1, SVG Export Plug-In . SVG Version: 6.00 Build 0)  -->
<svg version="1.1" id="レイヤー_1" xmlns="http://www.w3.org/2000/svg" xmlns:xlink="http://www.w3.org/1999/xlink" x="0px"
	 y="0px" viewBox="0 0 283.5 283.5" style="enable-background:new 0 0 283.5 283.5;" xml:space="preserve">
<style type="text/css">
	.st0{fill:#999999;}
	.st1{fill:#00CAC4;}
</style>
<g id="レイヤー_2_00000000193111824163029120000005607454980485165710_">
</g>
<g id="レイヤー_1_00000117654463889816526310000000843015309576515249_">
	<path class="st0" d="M230.9,176.9h-3.4l-43.3-43.3c-0.5-0.5-1.2-0.6-1.8-0.4c-0.6,0.3-1,0.9-1,1.6v46.9h-0.3v9.6h0.3v65.5
		c0,0.8,0.5,1.4,1.2,1.6c0.1,0,0.3,0.1,0.4,0.1c0.6,0,1.2-0.3,1.5-0.8l21.1-36.5l19.1,46.2c0.3,0.6,0.9,1,1.6,1c0.2,0,0.4,0,0.6-0.1
		l19.4-8c0.4-0.2,0.7-0.5,0.9-0.9c0.2-0.4,0.2-0.9,0-1.3l-19.1-46.1l40.7,10.9c0.7,0.2,1.5-0.1,1.9-0.8c0.4-0.7,0.3-1.5-0.3-2
		l-39.5-39.5L230.9,176.9L230.9,176.9z"/>
	<rect x="110" y="181.8" class="st1" width="20.3" height="9.6"/>
	<rect x="74.5" y="181.8" class="st1" width="20.3" height="9.6"/>
	<rect x="145.5" y="181.8" class="st1" width="20.3" height="9.6"/>
	<rect x="39" y="181.8" class="st1" width="20.3" height="9.6"/>
	<path class="st1" d="M23.8,191.3v-9.6H19V177H9.4v9.6c0,2.6,2.2,4.8,4.8,4.8H23.8z"/>
	<rect x="9.4" y="142.9" class="st1" width="9.6" height="19.4"/>
	<rect x="9.4" y="40.9" class="st1" width="9.6" height="19.4"/>
	<rect x="9.4" y="74.9" class="st1" width="9.6" height="19.4"/>
	<rect x="9.4" y="108.9" class="st1" width="9.6" height="19.4"/>
	<path class="st1" d="M19,21.5h4.8V12h-9.6c-2.6,0-4.8,2.1-4.8,4.8v9.6H19C19,26.3,19,21.5,19,21.5z"/>
	<rect x="145.5" y="12" class="st1" width="20.3" height="9.6"/>
	<rect x="39" y="12" class="st1" width="20.3" height="9.6"/>
	<rect x="74.5" y="12" class="st1" width="20.3" height="9.6"/>
	<rect x="110" y="12" class="st1" width="20.3" height="9.6"/>
	<rect x="181.1" y="12" class="st1" width="20.3" height="9.6"/>
	<path class="st1" d="M230.9,16.8c0-2.6-2.1-4.8-4.8-4.8h-9.6v9.6h4.8v4.8h9.6V16.8z"/>
	<rect x="221.4" y="108.9" class="st1" width="9.6" height="19.4"/>
	<rect x="221.4" y="74.9" class="st1" width="9.6" height="19.4"/>
	<rect x="221.4" y="40.9" class="st1" width="9.6" height="19.4"/>
	<rect x="221.4" y="142.9" class="st1" width="9.6" height="19.4"/>
</g>
</svg>
