<?xml version="1.0" encoding="utf-8"?>
<!-- Generator: Adobe Illustrator 27.3.1, SVG Export Plug-In . SVG Version: 6.00 Build 0)  -->
<svg version="1.1" xmlns="http://www.w3.org/2000/svg" xmlns:xlink="http://www.w3.org/1999/xlink" x="0px" y="0px"
	 viewBox="0 0 283.46 283.46" style="enable-background:new 0 0 283.46 283.46;" xml:space="preserve">
<style type="text/css">
	.st0{fill:none;}
	.st1{fill:#666666;}
	.st2{fill:#E4E6E6;}
	.st3{fill:#FFFFFF;}
</style>
<g id="レイヤー_2">
</g>
<g id="レイヤー_1">
	<path class="st1" d="M230.94,176.95h-3.4l-43.34-43.34c-0.48-0.48-1.21-0.63-1.84-0.37c-0.63,0.26-1.04,0.88-1.04,1.56v46.93h-0.27
		v9.59h0.27v65.5c0,0.77,0.51,1.44,1.25,1.63c0.15,0.04,0.29,0.06,0.44,0.06c0.59,0,1.16-0.31,1.46-0.84l21.1-36.48l19.11,46.15
		c0.27,0.65,0.9,1.04,1.56,1.04c0.21,0,0.43-0.04,0.65-0.13l19.44-8.05c0.41-0.17,0.74-0.5,0.92-0.92c0.17-0.41,0.17-0.88,0-1.29
		l-19.12-46.15l40.72,10.87c0.74,0.2,1.52-0.13,1.9-0.79c0.38-0.66,0.27-1.5-0.27-2.04l-39.54-39.54V176.95z"/>
	<rect x="110.01" y="181.75" class="st1" width="20.29" height="9.59"/>
	<rect x="74.5" y="181.75" class="st1" width="20.29" height="9.59"/>
	<rect x="145.53" y="181.75" class="st1" width="20.29" height="9.59"/>
	<rect x="38.98" y="181.75" class="st1" width="20.29" height="9.59"/>
	<path class="st1" d="M23.76,191.33v-9.59h-4.79v-4.79H9.38v9.59c0,2.65,2.15,4.79,4.79,4.79H23.76z"/>
	<rect x="9.38" y="142.94" class="st1" width="9.59" height="19.43"/>
	<rect x="9.38" y="40.92" class="st1" width="9.59" height="19.43"/>
	<rect x="9.38" y="74.93" class="st1" width="9.59" height="19.43"/>
	<rect x="9.38" y="108.94" class="st1" width="9.59" height="19.43"/>
	<path class="st1" d="M18.97,21.55h4.79v-9.59h-9.59c-2.65,0-4.79,2.15-4.79,4.79v9.59h9.59V21.55z"/>
	<rect x="145.53" y="11.96" class="st1" width="20.29" height="9.59"/>
	<rect x="38.98" y="11.96" class="st1" width="20.29" height="9.59"/>
	<rect x="74.5" y="11.96" class="st1" width="20.29" height="9.59"/>
	<rect x="110.01" y="11.96" class="st1" width="20.29" height="9.59"/>
	<rect x="181.05" y="11.96" class="st1" width="20.29" height="9.59"/>
	<path class="st1" d="M230.94,16.76c0-2.65-2.15-4.79-4.79-4.79h-9.59v9.59h4.79v4.79h9.59V16.76z"/>
	<rect x="221.36" y="108.94" class="st1" width="9.59" height="19.43"/>
	<rect x="221.36" y="74.93" class="st1" width="9.59" height="19.43"/>
	<rect x="221.36" y="40.92" class="st1" width="9.59" height="19.43"/>
	<rect x="221.36" y="142.94" class="st1" width="9.59" height="19.43"/>
</g>
</svg>
