<?xml version="1.0" encoding="utf-8"?>
<!-- Generator: Adobe Illustrator 27.0.1, SVG Export Plug-In . SVG Version: 6.00 Build 0)  -->
<svg version="1.1" id="レイヤー_1" xmlns="http://www.w3.org/2000/svg" xmlns:xlink="http://www.w3.org/1999/xlink" x="0px"
	 y="0px" viewBox="0 0 283.5 283.5" style="enable-background:new 0 0 283.5 283.5;" xml:space="preserve">
<style type="text/css">
	.st0{fill:#89BFFF;}
</style>
<g id="レイヤー_2_00000058586226527227967820000005569431569120868505_">
</g>
<g id="レイヤー_1_00000161605351875818490970000009142208282464247467_">
	<path class="st0" d="M67.8,251.8c0.2,0,0.3,0.1,0.4,0.1c0.6,0,1.2-0.3,1.5-0.8l42.4-73.3l38.2,92.2c0.2,0.4,0.5,0.7,0.9,0.9
		c0.2,0.1,0.4,0.1,0.6,0.1s0.4,0,0.6-0.1l37.6-15.6c0.9-0.4,1.3-1.4,0.9-2.2l-38.2-92.2l81.9,21.9c0.7,0.2,1.5-0.1,1.9-0.8
		c0.4-0.7,0.3-1.5-0.3-2L69.5,13c-0.5-0.5-1.2-0.6-1.8-0.4s-1,0.9-1,1.6v236C66.6,251,67.1,251.6,67.8,251.8z"/>
</g>
</svg>
