<?xml version="1.0" encoding="utf-8"?>
<!-- Generator: Adobe Illustrator 27.0.1, SVG Export Plug-In . SVG Version: 6.00 Build 0)  -->
<svg version="1.1" id="レイヤー_1" xmlns="http://www.w3.org/2000/svg" xmlns:xlink="http://www.w3.org/1999/xlink" x="0px"
	 y="0px" viewBox="0 0 283.5 283.5" style="enable-background:new 0 0 283.5 283.5;" xml:space="preserve">
<style type="text/css">
	.st0{fill:#FFD200;stroke:#000000;stroke-miterlimit:10;}
	.st1{fill:none;}
	.st2{fill:#7700D0;}
</style>
<g id="レイヤー_2_00000127011104637170553310000006784330202939653775_">
</g>
<rect y="11" class="st0" width="283.5" height="264"/>
<g id="レイヤー_1_00000142870593794998740870000006765996000526308005_">
	<path class="st1" d="M76.7,202.9v7.1h21.9v-7.2c-3.7,0.7-7.5,1.1-11.4,1.1C83.7,203.8,80.1,203.5,76.7,202.9z"/>
	<path class="st1" d="M76.7,193.1c3.5,0.7,7,1.1,10.6,1.1c3.8,0,7.7-0.4,11.4-1.2v-4.9H76.7V193.1z"/>
	<path class="st1" d="M26.1,130.8H19v21.9h7.1c-0.9-5-1.2-10.1-0.8-15.4C25.5,135.1,25.7,132.9,26.1,130.8z"/>
	<path class="st1" d="M205.8,90.1c-2-0.4-4-0.6-6.1-0.8c-5.4-0.3-10.8,0.1-15.9,1.4v4.7h21.9L205.8,90.1L205.8,90.1z"/>
	<path class="st1" d="M98.6,80.7v-7.2H76.7v7.1c2.1-0.4,4.3-0.6,6.4-0.8C88.4,79.4,93.6,79.8,98.6,80.7z"/>
	<path class="st1" d="M200.4,79.8c1.8,0.1,3.6,0.3,5.4,0.6v-6.9h-21.9v7.4C189.2,79.8,194.8,79.4,200.4,79.8z"/>
	<path class="st1" d="M98.6,90.5c-4.8-1.1-9.8-1.5-14.9-1.1c-2.4,0.2-4.8,0.5-7.1,0.9v5.1h21.9V90.5z"/>
	<path class="st1" d="M40.9,130.8h-5c-0.5,2.4-0.8,4.8-1,7.2c-0.3,5,0,10,1,14.7h5V130.8z"/>
	<path class="st1" d="M258.2,137.3c0.4,5.2,0.1,10.4-0.8,15.4h7.1v-21.9h-7.2C257.7,132.9,258,135.1,258.2,137.3z"/>
	<path class="st1" d="M183.9,202.6v7.4h21.9v-6.9c-3.1,0.5-6.4,0.8-9.6,0.8C192.1,203.8,187.9,203.4,183.9,202.6z"/>
	<path class="st1" d="M233,157.5V126c0-2.7,2.1-4.8,4.8-4.8h6.8c-5.5-12.9-16.1-23.2-29.1-28.3v7.4c0,2.7-2.1,4.8-4.8,4.8h-31.5
		c-2.6,0-4.8-2.2-4.8-4.8v-6.2c-4.3,2-8.3,4.5-12,7.7c-11.7,10-29.4,10-41.1,0c-4-3.4-8.3-6.1-13-8.1v6.6c0,2.7-2.2,4.8-4.8,4.8
		H71.9c-2.7,0-4.8-2.2-4.8-4.8v-7c-12.6,5.3-22.8,15.3-28.2,27.9h6.8c2.7,0,4.8,2.2,4.8,4.8v31.5c0,2.6-2.2,4.8-4.8,4.8h-6.8
		c2.4,5.5,5.7,10.7,9.9,15.2c5.1,5.5,11.4,9.8,18.2,12.6v-6.9c0-2.6,2.2-4.8,4.8-4.8h31.5c2.7,0,4.8,2.1,4.8,4.8v6.6
		c4.6-2,8.9-4.6,12.7-7.9c6-5.1,13.4-7.6,20.8-7.6s14.8,2.5,20.8,7.6c3.6,3,7.5,5.5,11.7,7.4v-6.1c0-2.6,2.1-4.8,4.8-4.8h31.5
		c2.6,0,4.8,2.1,4.8,4.8v7.3c7.2-2.8,13.8-7.3,19.2-13c4.2-4.6,7.6-9.7,9.9-15.2h-6.8C235.1,162.3,233,160.1,233,157.5z"/>
	<path class="st1" d="M183.9,192.7c4,1,8.2,1.5,12.4,1.5c3.2,0,6.4-0.3,9.6-0.9v-5.3h-21.9L183.9,192.7L183.9,192.7z"/>
	<path class="st1" d="M247.6,130.8h-5v21.9h5c1-4.8,1.4-9.7,1-14.7C248.4,135.5,248.1,133.1,247.6,130.8z"/>
	<path class="st2" d="M269.3,121.2h-14.5c-6.4-18.2-21.1-32.5-39.4-38.5v-14c0-2.7-2.1-4.8-4.8-4.8h-31.5c-2.6,0-4.8,2.2-4.8,4.8v15
		c-6.6,2.5-12.7,6.1-18.2,10.7c-8.2,6.9-20.5,6.9-28.7,0c-5.8-4.9-12.3-8.6-19.2-11.1V68.7c0-2.7-2.2-4.8-4.8-4.8H71.9
		c-2.7,0-4.8,2.2-4.8,4.8V83c-17.9,6.2-32.2,20.3-38.4,38.2H14.2c-2.6,0-4.8,2.2-4.8,4.8v31.5c0,2.6,2.2,4.8,4.8,4.8h14.4
		c2.8,8,7.2,15.4,13.2,21.8c7,7.5,15.7,13.1,25.2,16.3v14.4c0,2.6,2.2,4.8,4.8,4.8h31.5c2.7,0,4.8-2.1,4.8-4.8v-14.6
		c6.8-2.5,13.2-6.1,18.9-10.8c8.5-7.1,20.8-7.1,29.3,0c5.4,4.5,11.4,8,17.9,10.5v15c0,2.6,2.1,4.8,4.8,4.8h31.5
		c2.6,0,4.8-2.1,4.8-4.8v-14c9.9-3.2,19-8.9,26.2-16.7c6-6.4,10.4-13.8,13.2-21.8h14.4c2.6,0,4.8-2.1,4.8-4.8V126
		C274.1,123.3,271.9,121.2,269.3,121.2z M26.1,152.7H19v-21.9h7.2c-0.4,2.2-0.7,4.4-0.8,6.6C24.9,142.6,25.2,147.7,26.1,152.7z
		 M183.9,73.5h21.9v6.9c-1.8-0.3-3.6-0.5-5.4-0.6c-5.6-0.4-11.1,0-16.5,1.1V73.5z M183.9,90.7c5.1-1.2,10.5-1.7,15.9-1.4
		c2.1,0.1,4.1,0.4,6.1,0.8v5.3h-21.9L183.9,90.7L183.9,90.7z M76.7,73.5h21.9v7.2c-5.1-0.9-10.2-1.3-15.5-0.9
		c-2.2,0.1-4.3,0.4-6.4,0.8V73.5z M76.7,90.3c2.3-0.5,4.7-0.8,7.1-0.9c5.1-0.3,10.1,0.1,14.9,1.1v4.9H76.7V90.3z M34.9,138
		c0.2-2.5,0.5-4.9,1-7.2h5v21.9h-5C34.9,147.9,34.5,143,34.9,138z M98.6,210H76.7v-7.1c3.5,0.6,7,0.9,10.6,0.9
		c3.8,0,7.7-0.4,11.4-1.1V210z M98.6,193c-3.7,0.8-7.5,1.2-11.4,1.2c-3.6,0-7.1-0.4-10.6-1.1v-5.1h21.9V193z M205.8,210h-21.9v-7.4
		c4.1,0.8,8.2,1.3,12.4,1.3c3.2,0,6.4-0.2,9.6-0.8L205.8,210L205.8,210z M205.8,193.3c-3.1,0.6-6.3,0.9-9.6,0.9
		c-4.2,0-8.4-0.5-12.4-1.5V188h21.9V193.3z M234.6,177.5c-5.4,5.8-12,10.2-19.2,13v-7.3c0-2.6-2.1-4.8-4.8-4.8h-31.5
		c-2.6,0-4.8,2.1-4.8,4.8v6.1c-4.2-1.9-8.1-4.4-11.7-7.4c-6-5.1-13.4-7.6-20.8-7.6s-14.8,2.5-20.8,7.6c-3.9,3.2-8.2,5.9-12.7,7.9
		v-6.6c0-2.6-2.2-4.8-4.8-4.8H71.9c-2.7,0-4.8,2.1-4.8,4.8v6.9c-6.8-2.9-13.1-7.1-18.2-12.6c-4.2-4.6-7.6-9.7-9.9-15.2h6.8
		c2.7,0,4.8-2.1,4.8-4.8V126c0-2.7-2.2-4.8-4.8-4.8h-6.8c5.4-12.6,15.5-22.7,28.1-27.9v7c0,2.7,2.2,4.8,4.8,4.8h31.5
		c2.7,0,4.8-2.2,4.8-4.8v-6.6c4.7,2,9,4.8,13,8.1c11.7,10,29.4,10,41.1,0c3.7-3.1,7.7-5.7,12-7.7v6.2c0,2.7,2.1,4.8,4.8,4.8h31.5
		c2.6,0,4.8-2.2,4.8-4.8v-7.4c13.1,5.1,23.6,15.4,29.1,28.3h-6.8c-2.6,0-4.8,2.2-4.8,4.8v31.5c0,2.6,2.1,4.8,4.8,4.8h6.8
		C242.2,167.8,238.9,173,234.6,177.5z M247.6,152.7h-5v-21.9h5c0.5,2.4,0.8,4.8,1,7.2C248.9,143,248.6,147.9,247.6,152.7z
		 M264.5,152.7h-7.1c0.9-5,1.2-10.1,0.8-15.4c-0.1-2.2-0.4-4.4-0.8-6.6h7.2L264.5,152.7L264.5,152.7z"/>
</g>
</svg>
