<?xml version="1.0" encoding="utf-8"?>
<!-- Generator: Adobe Illustrator 27.3.1, SVG Export Plug-In . SVG Version: 6.00 Build 0)  -->
<svg version="1.1" xmlns="http://www.w3.org/2000/svg" xmlns:xlink="http://www.w3.org/1999/xlink" x="0px" y="0px"
	 viewBox="0 0 283.46 283.46" style="enable-background:new 0 0 283.46 283.46;" xml:space="preserve">
<style type="text/css">
	.st0{fill:none;}
	.st1{fill:#666666;}
	.st2{fill:#E4E6E6;}
	.st3{fill:#FFFFFF;}
</style>
<g id="レイヤー_2">
</g>
<g id="レイヤー_1">
	<polygon class="st0" points="202.42,100.79 232.95,100.79 232.95,90.32 217.68,90.32 217.68,80.73 232.95,80.73 232.95,70.26 
		202.42,70.26 	"/>
	<polygon class="st0" points="80.56,70.26 50.03,70.26 50.03,80.73 68.01,80.73 68.01,90.32 50.03,90.32 50.03,100.79 80.56,100.79 
			"/>
	<rect x="202.42" y="188.7" class="st0" width="30.53" height="10.47"/>
	<rect x="202.42" y="208.76" class="st0" width="30.53" height="10.47"/>
	<rect x="50.03" y="208.76" class="st0" width="30.53" height="10.47"/>
	<rect x="50.03" y="188.7" class="st0" width="30.53" height="10.47"/>
	<polygon class="st1" points="141.56,119.02 141.56,137.35 127.23,137.35 146.35,170.47 165.47,137.35 151.15,137.35 151.15,119.02 
			"/>
	<path class="st1" d="M45.24,110.38h40.12c2.65,0,4.79-2.15,4.79-4.79V65.47c0-2.65-2.15-4.79-4.79-4.79H45.24
		c-2.65,0-4.79,2.15-4.79,4.79v15.27H16.4v9.59h24.04v15.27C40.44,108.23,42.59,110.38,45.24,110.38z M50.03,90.32h17.98v-9.59
		H50.03V70.26h30.53v30.53H50.03V90.32z"/>
	<path class="st1" d="M242.54,65.47c0-2.65-2.15-4.79-4.79-4.79h-40.12c-2.65,0-4.79,2.15-4.79,4.79v40.12
		c0,2.65,2.15,4.79,4.79,4.79h40.12c2.65,0,4.79-2.15,4.79-4.79V90.32h26.75v-9.59h-26.75V65.47z M232.95,80.73h-15.27v9.59h15.27
		v10.47h-30.53V70.26h30.53V80.73z"/>
	<path class="st1" d="M242.54,183.9c0-2.65-2.15-4.79-4.79-4.79h-40.12c-2.65,0-4.79,2.15-4.79,4.79v15.27H90.15V183.9
		c0-2.65-2.15-4.79-4.79-4.79H45.24c-2.65,0-4.79,2.15-4.79,4.79v15.27H14.17v9.59h26.27v15.27c0,2.65,2.15,4.79,4.79,4.79h40.12
		c2.65,0,4.79-2.15,4.79-4.79v-15.27h102.68v15.27c0,2.65,2.15,4.79,4.79,4.79h40.12c2.65,0,4.79-2.15,4.79-4.79v-15.27h26.75v-9.59
		h-26.75V183.9z M80.56,219.23H50.03v-10.47h30.53V219.23z M80.56,199.17H50.03V188.7h30.53V199.17z M232.95,219.23h-30.53v-10.47
		h30.53V219.23z M232.95,199.17h-30.53V188.7h30.53V199.17z"/>
</g>
</svg>
