<?xml version="1.0" encoding="utf-8"?>
<!-- Generator: Adobe Illustrator 27.0.1, SVG Export Plug-In . SVG Version: 6.00 Build 0)  -->
<svg version="1.1" id="レイヤー_1" xmlns="http://www.w3.org/2000/svg" xmlns:xlink="http://www.w3.org/1999/xlink" x="0px"
	 y="0px" viewBox="0 0 283.5 283.5" style="enable-background:new 0 0 283.5 283.5;" xml:space="preserve">
<style type="text/css">
	.st0{fill:#0026FF;stroke:#000000;stroke-miterlimit:10;}
	.st1{fill:#0026FF;}
	.st2{fill:#FFFFFF;}
</style>
<g id="レイヤー_2_00000136407962211951907390000003804424938975823774_">
</g>
<rect y="6" class="st0" width="283.5" height="272"/>
<g id="レイヤー_1_00000072277797776715484010000014063971821421199539_">
	<polygon class="st1" points="198.4,151.3 85,151.3 97.6,172.9 34.1,147 34.1,253.4 257.4,253.4 257.4,143.7 185.9,172.9 	"/>
	<polygon class="st1" points="34.1,136.5 97.6,110.6 85,132.1 198.4,132.1 185.9,110.6 257.4,139.8 257.4,30.1 34.1,30.1 	"/>
	<path class="st2" d="M262.2,20.5H29.3c-2.6,0-4.8,2.1-4.8,4.8v115.1l-3.3,1.3l3.3,1.3v115.1c0,2.6,2.1,4.8,4.8,4.8h232.9
		c2.6,0,4.8-2.1,4.8-4.8V25.3C267,22.6,264.9,20.5,262.2,20.5z M257.4,253.4H34.1V147l63.5,25.9L85,151.3h113.4l-12.5,21.6
		l71.5-29.2V253.4z M257.4,139.8l-71.5-29.2l12.5,21.6H85l12.5-21.6l-63.5,25.9V30.1h223.3V139.8z"/>
</g>
</svg>
