<?xml version="1.0" encoding="utf-8"?>
<!-- Generator: Adobe Illustrator 27.0.1, SVG Export Plug-In . SVG Version: 6.00 Build 0)  -->
<svg version="1.1" id="レイヤー_1" xmlns="http://www.w3.org/2000/svg" xmlns:xlink="http://www.w3.org/1999/xlink" x="0px"
	 y="0px" viewBox="0 0 283.5 283.5" style="enable-background:new 0 0 283.5 283.5;" xml:space="preserve">
<style type="text/css">
	.st0{fill:#FFA0FF;stroke:#000000;stroke-miterlimit:10;}
	.st1{fill:#FFFFFF;}
</style>
<rect class="st0" width="283.5" height="283.5"/>
<g id="レイヤー_2_00000018214990338409443690000018123473672190961083_">
</g>
<g id="レイヤー_1_00000136383679551043387180000001556144039359817653_">
	<polygon class="st1" points="255.1,28.4 255.1,23.5 28.4,23.5 28.4,33.1 255.1,33.1 	"/>
	<path class="st1" d="M199,46.9c-2.6,0-4.8,2.2-4.8,4.8v47.6c0,2.7,2.1,4.8,4.8,4.8h47.6c2.6,0,4.8-2.2,4.8-4.8V51.7
		c0-2.7-2.1-4.8-4.8-4.8H199z M241.8,94.5h-38v-38h38V94.5z"/>
	<path class="st1" d="M117.8,46.9c-2.7,0-4.8,2.2-4.8,4.8v47.6c0,2.7,2.2,4.8,4.8,4.8h47.6c2.6,0,4.8-2.2,4.8-4.8V51.7
		c0-2.7-2.1-4.8-4.8-4.8H117.8z M160.6,94.5h-38v-38h38V94.5z"/>
	<path class="st1" d="M36.7,46.9c-2.7,0-4.8,2.2-4.8,4.8v47.6c0,2.7,2.2,4.8,4.8,4.8h47.6c2.7,0,4.8-2.2,4.8-4.8V51.7
		c0-2.7-2.2-4.8-4.8-4.8H36.7z M79.5,94.5h-38v-38h38C79.5,56.5,79.5,94.5,79.5,94.5z"/>
</g>
</svg>
