<?xml version="1.0" encoding="utf-8"?>
<!-- Generator: Adobe Illustrator 27.0.1, SVG Export Plug-In . SVG Version: 6.00 Build 0)  -->
<svg version="1.1" id="レイヤー_1" xmlns="http://www.w3.org/2000/svg" xmlns:xlink="http://www.w3.org/1999/xlink" x="0px"
	 y="0px" viewBox="0 0 283.5 283.5" style="enable-background:new 0 0 283.5 283.5;" xml:space="preserve">
<style type="text/css">
	.st0{fill:#D09DFF;stroke:#000000;stroke-miterlimit:10;}
	.st1{fill:none;}
	.st2{fill:#FFFFFF;}
</style>
<rect class="st0" width="283.5" height="283.5"/>
<g id="レイヤー_2_00000098204072664075644630000009680852619159700621_">
</g>
<g id="レイヤー_1_00000140732067534583652210000007374396248021917824_">
	<path class="st1" d="M140.9,188.4c-0.4,0.7-0.8,1.5-1.2,2.3C140.1,189.9,140.5,189.1,140.9,188.4
		C140.9,188.4,140.9,188.4,140.9,188.4c4,0,7.3-3.2,7.3-7.3s-3.2-7.3-7.3-7.3s-7.3,3.2-7.3,7.3C133.6,185.1,136.9,188.3,140.9,188.4
		z"/>
	<circle class="st1" cx="94.3" cy="214.4" r="30.6"/>
	<circle class="st1" cx="189.2" cy="214.4" r="30.6"/>
	<path class="st2" d="M108,161.3c-3.5-0.9-7.2-1.5-10.9-1.7c-0.9-0.1-1.9-0.1-2.8-0.1c-11.4,0-21.9,3.4-30.7,9.4
		c-14.6,9.9-24.2,26.6-24.2,45.5c0,30.3,24.6,54.9,54.9,54.9c20.2,0,37.9-11,47.4-27.3c0.1,0.1,0.2,0.3,0.3,0.4
		c0.1,0.2,0.2,0.4,0.3,0.6c0.6,0.9,1.2,1.9,1.8,2.8c9.9,14.2,26.4,23.6,45.1,23.6c30.3,0,54.9-24.6,54.9-54.9
		c0-18.9-9.6-35.6-24.2-45.5c-0.7-0.5-1.5-1-2.2-1.4c-2.3-1.4-4.6-2.6-7.1-3.6c-0.8-0.4-1.6-0.7-2.5-1c-5.9-2.1-12.2-3.3-18.9-3.3
		l0,0c-1.9,0-3.8,0.1-5.6,0.3c-1.8,0.2-3.7,0.5-5.4,0.8s-3.5,0.8-5.3,1.4s-3.4,1.1-5,1.9c-0.8,0.3-1.6,0.7-2.4,1.1l66.4-115.1
		c7.2-12.5,2.9-28.5-9.6-35.7l0,0l-80.6,139.6L61.1,14.2l0,0c-12.5,7.2-16.8,23.2-9.5,35.7L118,164.9c-0.8-0.4-1.6-0.7-2.4-1.1
		C113.2,162.8,110.6,161.9,108,161.3z M189.2,183.8c16.9,0,30.6,13.7,30.6,30.6S206,245,189.2,245s-30.6-13.7-30.6-30.6
		S172.3,183.8,189.2,183.8z M140.9,173.9c4,0,7.3,3.2,7.3,7.3s-3.2,7.3-7.3,7.3c0,0,0,0,0,0c-0.4,0.7-0.8,1.5-1.2,2.3
		c0.4-0.8,0.8-1.5,1.2-2.3c-4,0-7.2-3.3-7.2-7.3C133.6,177.1,136.9,173.9,140.9,173.9z M124.9,214.4c0,16.9-13.7,30.6-30.6,30.6
		s-30.6-13.7-30.6-30.6s13.7-30.6,30.6-30.6C111.2,183.8,124.9,197.5,124.9,214.4z"/>
</g>
</svg>
