<?xml version="1.0" encoding="utf-8"?>
<!-- Generator: Adobe Illustrator 27.0.1, SVG Export Plug-In . SVG Version: 6.00 Build 0)  -->
<svg version="1.1" id="レイヤー_1" xmlns="http://www.w3.org/2000/svg" xmlns:xlink="http://www.w3.org/1999/xlink" x="0px"
	 y="0px" viewBox="0 0 283.5 283.5" style="enable-background:new 0 0 283.5 283.5;" xml:space="preserve">
<style type="text/css">
	.st0{fill:#D09DFF;stroke:#000000;stroke-miterlimit:10;}
	.st1{fill:none;}
	.st2{fill:#FFFFFF;}
</style>
<rect class="st0" width="283.5" height="283.5"/>
<g id="レイヤー_2_00000062182207517371215900000006545202870118180748_">
</g>
<g id="レイヤー_1_00000127045388943654871890000005446003265922550408_">
	<polygon class="st1" points="19,225.8 62.5,225.8 62.5,208.8 41.4,208.8 41.4,199.2 62.5,199.2 62.5,182.2 19,182.2 	"/>
	<polygon class="st1" points="220.9,199.2 242.7,199.2 242.7,208.8 220.9,208.8 220.9,225.8 264.5,225.8 264.5,182.2 220.9,182.2 	
		"/>
	<path class="st2" d="M269.3,172.6h-53.2c-2.6,0-4.8,2.1-4.8,4.8v21.8H72.1v-21.8c0-2.6-2.2-4.8-4.8-4.8H14.2
		c-2.6,0-4.8,2.1-4.8,4.8v53.2c0,2.6,2.2,4.8,4.8,4.8h53.2c2.7,0,4.8-2.1,4.8-4.8v-21.8h139.2v21.8c0,2.6,2.1,4.8,4.8,4.8h53.2
		c2.6,0,4.8-2.1,4.8-4.8v-53.2C274.1,174.7,271.9,172.6,269.3,172.6z M62.5,199.2H41.4v9.6h21.2v17H19v-43.6h43.6
		C62.6,182.2,62.6,199.2,62.5,199.2z M264.5,225.8h-43.6v-17h21.8v-9.6h-21.8v-17h43.6V225.8z"/>
	<polygon class="st2" points="14.2,95.1 205.5,95.1 193,116.7 269.3,85.5 193,54.3 205.5,75.9 14.2,75.9 	"/>
</g>
</svg>
