<?xml version="1.0" encoding="utf-8"?>
<!-- Generator: Adobe Illustrator 27.0.1, SVG Export Plug-In . SVG Version: 6.00 Build 0)  -->
<svg version="1.1" id="レイヤー_1" xmlns="http://www.w3.org/2000/svg" xmlns:xlink="http://www.w3.org/1999/xlink" x="0px"
	 y="0px" viewBox="0 0 283.5 283.5" style="enable-background:new 0 0 283.5 283.5;" xml:space="preserve">
<style type="text/css">
	.st0{fill:#FFA0FF;stroke:#000000;stroke-miterlimit:10;}
	.st1{fill:none;}
	.st2{fill:#FFFFFF;}
</style>
<rect class="st0" width="283.5" height="283.5"/>
<g id="レイヤー_2_00000176008259661161551130000015489156838495826061_">
</g>
<g id="レイヤー_1_00000124866082557423872870000000619940019007578527_">
	<polygon class="st1" points="172.9,97.6 151.3,85 151.3,198.4 172.9,185.9 145.3,253.4 253.4,253.4 253.4,30.1 145.3,30.1 	"/>
	<polygon class="st1" points="30.1,30.1 30.1,253.4 138.1,253.4 110.6,185.9 132.1,198.4 132.1,85 110.6,97.6 138.1,30.1 	"/>
	<path class="st2" d="M258.2,20.5H25.3c-2.6,0-4.8,2.1-4.8,4.8v232.9c0,2.6,2.1,4.8,4.8,4.8h232.9c2.6,0,4.8-2.1,4.8-4.8V25.3
		C263,22.6,260.8,20.5,258.2,20.5z M132.1,85v113.4l-21.6-12.5l27.6,67.5H30.1V30.1h108.1l-27.6,67.5L132.1,85z M253.4,253.4H145.3
		l27.6-67.5l-21.6,12.5V85l21.6,12.5l-27.6-67.5h108.1V253.4z"/>
</g>
</svg>
