<?xml version="1.0" encoding="utf-8"?>
<!-- Generator: Adobe Illustrator 27.3.1, SVG Export Plug-In . SVG Version: 6.00 Build 0)  -->
<svg version="1.1" xmlns="http://www.w3.org/2000/svg" xmlns:xlink="http://www.w3.org/1999/xlink" x="0px" y="0px"
	 viewBox="0 0 283.46 283.46" style="enable-background:new 0 0 283.46 283.46;" xml:space="preserve">
<style type="text/css">
	.st0{fill:none;}
	.st1{fill:#666666;}
	.st2{fill:#E4E6E6;}
	.st3{fill:#FFFFFF;}
</style>
<g id="レイヤー_2">
</g>
<g id="レイヤー_1">
	<path class="st0" d="M76.66,202.88v7.11h21.95v-7.24c-3.73,0.7-7.54,1.06-11.38,1.06C83.67,203.81,80.13,203.49,76.66,202.88z"/>
	<path class="st0" d="M76.66,193.14c3.46,0.72,7,1.09,10.57,1.09c3.85,0,7.66-0.43,11.38-1.25v-4.93H76.66V193.14z"/>
	<path class="st0" d="M26.12,130.76h-7.16v21.95h7.14c-0.88-5-1.17-10.15-0.81-15.38C25.45,135.1,25.74,132.91,26.12,130.76z"/>
	<path class="st0" d="M205.8,90.12c-1.99-0.37-4.01-0.63-6.07-0.77c-5.41-0.35-10.75,0.13-15.88,1.37v4.7h21.95V90.12z"/>
	<path class="st0" d="M98.61,80.7v-7.23H76.66v7.09c2.12-0.36,4.27-0.63,6.45-0.77C88.36,79.44,93.56,79.77,98.61,80.7z"/>
	<path class="st0" d="M200.36,79.78c1.84,0.12,3.65,0.32,5.45,0.6v-6.92h-21.95v7.44C189.22,79.82,194.75,79.42,200.36,79.78z"/>
	<path class="st0" d="M98.61,90.48c-4.82-1.06-9.82-1.46-14.88-1.13c-2.4,0.16-4.76,0.48-7.07,0.95v5.12h21.95V90.48z"/>
	<path class="st0" d="M40.91,130.76h-5.04c-0.5,2.36-0.84,4.77-1.01,7.23c-0.35,5.02,0.02,9.96,1.02,14.71h5.03V130.76z"/>
	<path class="st0" d="M258.16,137.33c0.36,5.23,0.07,10.38-0.81,15.38h7.14v-21.95h-7.16C257.73,132.91,258.01,135.1,258.16,137.33z
		"/>
	<path class="st0" d="M183.85,202.55v7.44h21.95v-6.93c-3.15,0.5-6.35,0.75-9.57,0.75C192.05,203.81,187.91,203.38,183.85,202.55z"
		/>
	<path class="st0" d="M232.96,157.5v-31.54c0-2.65,2.15-4.79,4.79-4.79h6.78c-5.51-12.9-16.06-23.17-29.15-28.32v7.36
		c0,2.65-2.15,4.79-4.79,4.79h-31.54c-2.65,0-4.79-2.15-4.79-4.79v-6.16c-4.28,1.98-8.32,4.53-11.99,7.65
		c-11.71,9.96-29.38,9.96-41.09,0c-3.96-3.36-8.34-6.08-12.99-8.11v6.62c0,2.65-2.15,4.79-4.79,4.79H71.87
		c-2.65,0-4.79-2.15-4.79-4.79v-6.96c-12.62,5.27-22.78,15.34-28.15,27.91h6.78c2.65,0,4.79,2.15,4.79,4.79v31.54
		c0,2.65-2.15,4.79-4.79,4.79H38.9c2.36,5.54,5.69,10.69,9.94,15.25c5.14,5.5,11.38,9.78,18.23,12.63v-6.92
		c0-2.65,2.15-4.79,4.79-4.79h31.54c2.65,0,4.79,2.15,4.79,4.79v6.59c4.57-1.99,8.87-4.62,12.73-7.86
		c6.03-5.06,13.42-7.58,20.81-7.58s14.78,2.53,20.81,7.58c3.58,3,7.53,5.49,11.73,7.42v-6.15c0-2.65,2.15-4.79,4.79-4.79h31.54
		c2.65,0,4.79,2.15,4.79,4.79v7.32c7.24-2.84,13.84-7.26,19.23-13.03c4.25-4.56,7.58-9.71,9.94-15.25h-6.81
		C235.11,162.29,232.96,160.15,232.96,157.5z"/>
	<path class="st0" d="M183.85,192.73c4.03,0.98,8.18,1.5,12.38,1.5c3.23,0,6.43-0.32,9.57-0.9v-5.28h-21.95V192.73z"/>
	<path class="st0" d="M247.59,130.76h-5.04v21.95h5.03c1-4.76,1.37-9.69,1.02-14.71C248.43,135.53,248.09,133.12,247.59,130.76z"/>
	<path class="st1" d="M269.29,121.17h-14.47c-6.4-18.18-21.06-32.52-39.43-38.49v-14c0-2.65-2.15-4.79-4.79-4.79h-31.54
		c-2.65,0-4.79,2.15-4.79,4.79v14.98c-6.57,2.48-12.72,6.09-18.2,10.74c-8.17,6.94-20.5,6.95-28.67,0
		c-5.76-4.89-12.26-8.61-19.2-11.1V68.68c0-2.65-2.15-4.79-4.79-4.79H71.87c-2.65,0-4.79,2.15-4.79,4.79v14.33
		c-17.9,6.16-32.15,20.31-38.43,38.16H14.17c-2.65,0-4.79,2.15-4.79,4.79v31.54c0,2.65,2.15,4.79,4.79,4.79h14.43
		c2.8,7.99,7.25,15.38,13.23,21.79c6.99,7.48,15.7,13.05,25.24,16.33v14.38c0,2.65,2.15,4.79,4.79,4.79h31.54
		c2.65,0,4.79-2.15,4.79-4.79v-14.63c6.84-2.46,13.25-6.1,18.89-10.83c8.49-7.12,20.81-7.12,29.29,0
		c5.36,4.5,11.42,8.01,17.89,10.46v15.01c0,2.65,2.15,4.79,4.79,4.79h31.54c2.65,0,4.79-2.15,4.79-4.79v-14.03
		c9.93-3.23,19.01-8.93,26.24-16.68c5.98-6.41,10.43-13.8,13.23-21.79h14.43c2.65,0,4.79-2.15,4.79-4.79v-31.54
		C274.09,123.32,271.94,121.17,269.29,121.17z M26.11,152.71h-7.14v-21.95h7.16c-0.38,2.16-0.67,4.35-0.82,6.57
		C24.94,142.56,25.23,147.71,26.11,152.71z M183.85,73.47h21.95v6.92c-1.79-0.28-3.61-0.48-5.45-0.6c-5.6-0.36-11.14,0.04-16.5,1.12
		V73.47z M183.85,90.72c5.13-1.24,10.47-1.72,15.88-1.37c2.06,0.13,4.08,0.4,6.07,0.77v5.3h-21.95V90.72z M76.66,73.47h21.95v7.23
		c-5.05-0.94-10.25-1.26-15.5-0.92c-2.18,0.14-4.33,0.41-6.45,0.77V73.47z M76.66,90.3c2.31-0.47,4.67-0.79,7.07-0.95
		c5.06-0.33,10.06,0.06,14.88,1.13v4.94H76.66V90.3z M34.86,137.99c0.17-2.46,0.51-4.88,1.01-7.23h5.04v21.95h-5.03
		C34.88,147.95,34.52,143.01,34.86,137.99z M98.61,209.99H76.66v-7.11c3.47,0.6,7.01,0.93,10.57,0.93c3.84,0,7.65-0.37,11.38-1.06
		V209.99z M98.61,192.98c-3.71,0.83-7.53,1.25-11.38,1.25c-3.57,0-7.11-0.37-10.57-1.09v-5.09h21.95V192.98z M205.8,209.99h-21.95
		v-7.44c4.05,0.83,8.2,1.26,12.38,1.26c3.22,0,6.42-0.25,9.57-0.75V209.99z M205.8,193.32c-3.14,0.59-6.34,0.9-9.57,0.9
		c-4.2,0-8.35-0.52-12.38-1.5v-4.68h21.95V193.32z M234.62,177.54c-5.39,5.77-11.99,10.19-19.23,13.03v-7.32
		c0-2.65-2.15-4.79-4.79-4.79h-31.54c-2.65,0-4.79,2.15-4.79,4.79v6.15c-4.2-1.93-8.15-4.42-11.73-7.42
		c-6.03-5.06-13.42-7.58-20.81-7.58s-14.78,2.53-20.81,7.58c-3.86,3.24-8.16,5.87-12.73,7.86v-6.59c0-2.65-2.15-4.79-4.79-4.79
		H71.87c-2.65,0-4.79,2.15-4.79,4.79v6.92c-6.84-2.85-13.09-7.12-18.23-12.63c-4.25-4.56-7.58-9.71-9.94-15.25h6.81
		c2.65,0,4.79-2.15,4.79-4.79v-31.54c0-2.65-2.15-4.79-4.79-4.79h-6.78c5.37-12.57,15.52-22.65,28.15-27.91v6.96
		c0,2.65,2.15,4.79,4.79,4.79h31.54c2.65,0,4.79-2.15,4.79-4.79v-6.62c4.66,2.03,9.03,4.75,12.99,8.11
		c11.71,9.96,29.38,9.96,41.09,0c3.67-3.12,7.71-5.68,11.99-7.65v6.16c0,2.65,2.15,4.79,4.79,4.79h31.54c2.65,0,4.79-2.15,4.79-4.79
		v-7.36c13.09,5.14,23.64,15.41,29.15,28.32h-6.78c-2.65,0-4.79,2.15-4.79,4.79v31.54c0,2.65,2.15,4.79,4.79,4.79h6.81
		C242.2,167.83,238.87,172.99,234.62,177.54z M247.58,152.71h-5.03v-21.95h5.04c0.5,2.36,0.84,4.77,1.01,7.23
		C248.95,143.01,248.58,147.95,247.58,152.71z M264.5,152.71h-7.14c0.88-5,1.17-10.15,0.81-15.38c-0.15-2.23-0.44-4.42-0.82-6.57
		h7.16V152.71z"/>
</g>
</svg>
