<?xml version="1.0" encoding="utf-8"?>
<!-- Generator: Adobe Illustrator 27.0.1, SVG Export Plug-In . SVG Version: 6.00 Build 0)  -->
<svg version="1.1" id="レイヤー_1" xmlns="http://www.w3.org/2000/svg" xmlns:xlink="http://www.w3.org/1999/xlink" x="0px"
	 y="0px" viewBox="0 0 283.5 283.5" style="enable-background:new 0 0 283.5 283.5;" xml:space="preserve">
<style type="text/css">
	.st0{fill:#FFFFFF;}
	.st1{fill:#666666;}
	.st2{fill:#2E97FF;}
</style>
<g id="レイヤー_2_00000006694420631253950780000017270913614627636147_">
</g>
<g id="レイヤー_1_00000045603191158823979650000017090719125591957938_">
	<polygon class="st0" points="202.4,100.8 232.9,100.8 232.9,90.3 217.7,90.3 217.7,80.7 232.9,80.7 232.9,70.3 202.4,70.3 	"/>
	<polygon class="st0" points="80.6,70.3 50,70.3 50,80.7 68,80.7 68,90.3 50,90.3 50,100.8 80.6,100.8 	"/>
	<rect x="202.4" y="188.7" class="st0" width="30.5" height="10.5"/>
	<rect x="202.4" y="208.8" class="st0" width="30.5" height="10.5"/>
	<rect x="50" y="208.8" class="st0" width="30.5" height="10.5"/>
	<rect x="50" y="188.7" class="st0" width="30.5" height="10.5"/>
	<polygon class="st1" points="141.6,119 141.6,137.4 127.2,137.4 146.4,170.5 165.5,137.4 151.1,137.4 151.1,119 	"/>
	<path class="st2" d="M45.2,110.4h40.1c2.7,0,4.8-2.2,4.8-4.8V65.5c0-2.7-2.2-4.8-4.8-4.8H45.2c-2.7,0-4.8,2.2-4.8,4.8v15.3H16.4
		v9.6h24v15.3C40.4,108.2,42.6,110.4,45.2,110.4z M50,90.3h18v-9.6H50V70.3h30.5v30.5H50V90.3z"/>
	<path class="st2" d="M242.5,65.5c0-2.7-2.1-4.8-4.8-4.8h-40.1c-2.6,0-4.8,2.2-4.8,4.8v40.1c0,2.7,2.1,4.8,4.8,4.8h40.1
		c2.6,0,4.8-2.2,4.8-4.8V90.3h26.7v-9.6h-26.8L242.5,65.5L242.5,65.5z M232.9,80.7h-15.3v9.6h15.3v10.5h-30.5V70.3h30.5V80.7z"/>
	<path class="st2" d="M242.5,183.9c0-2.6-2.1-4.8-4.8-4.8h-40.1c-2.6,0-4.8,2.1-4.8,4.8v15.3H90.2v-15.3c0-2.6-2.2-4.8-4.8-4.8H45.2
		c-2.7,0-4.8,2.1-4.8,4.8v15.3H14.2v9.6h26.3V224c0,2.6,2.2,4.8,4.8,4.8h40.1c2.7,0,4.8-2.1,4.8-4.8v-15.3h102.7V224
		c0,2.6,2.1,4.8,4.8,4.8h40.1c2.6,0,4.8-2.1,4.8-4.8v-15.3h26.8v-9.6h-26.8L242.5,183.9L242.5,183.9z M80.6,219.2H50v-10.5h30.5
		V219.2z M80.6,199.2H50v-10.5h30.5V199.2z M232.9,219.2h-30.5v-10.5h30.5V219.2z M232.9,199.2h-30.5v-10.5h30.5V199.2z"/>
</g>
</svg>
