<?xml version="1.0" encoding="utf-8"?>
<!-- Generator: Adobe Illustrator 27.3.1, SVG Export Plug-In . SVG Version: 6.00 Build 0)  -->
<svg version="1.1" xmlns="http://www.w3.org/2000/svg" xmlns:xlink="http://www.w3.org/1999/xlink" x="0px" y="0px"
	 viewBox="0 0 283.46 283.46" style="enable-background:new 0 0 283.46 283.46;" xml:space="preserve">
<style type="text/css">
	.st0{fill:none;}
	.st1{fill:#666666;}
	.st2{fill:#E4E6E6;}
	.st3{fill:#FFFFFF;}
</style>
<g id="レイヤー_2">
</g>
<g id="レイヤー_1">
	<polygon class="st0" points="18.97,225.75 62.55,225.75 62.55,208.76 41.4,208.76 41.4,199.17 62.55,199.17 62.55,182.17 
		18.97,182.17 	"/>
	<polygon class="st0" points="220.92,199.17 242.71,199.17 242.71,208.76 220.92,208.76 220.92,225.75 264.5,225.75 264.5,182.17 
		220.92,182.17 	"/>
	<path class="st1" d="M269.29,172.59h-53.17c-2.65,0-4.79,2.15-4.79,4.79v21.79H72.13v-21.79c0-2.65-2.15-4.79-4.79-4.79H14.17
		c-2.65,0-4.79,2.15-4.79,4.79v53.17c0,2.65,2.15,4.79,4.79,4.79h53.17c2.65,0,4.79-2.15,4.79-4.79v-21.79h139.2v21.79
		c0,2.65,2.15,4.79,4.79,4.79h53.17c2.65,0,4.79-2.15,4.79-4.79v-53.17C274.09,174.73,271.94,172.59,269.29,172.59z M62.55,199.17
		H41.4v9.59h21.15v17H18.97v-43.58h43.58V199.17z M264.5,225.75h-43.58v-17h21.79v-9.59h-21.79v-17h43.58V225.75z"/>
	<polygon class="st1" points="14.17,95.11 205.52,95.11 192.98,116.71 269.29,85.52 192.98,54.35 205.52,75.94 14.17,75.94 	"/>
</g>
</svg>
