<?xml version="1.0" encoding="utf-8"?>
<!-- Generator: Adobe Illustrator 27.3.1, SVG Export Plug-In . SVG Version: 6.00 Build 0)  -->
<svg version="1.1" xmlns="http://www.w3.org/2000/svg" xmlns:xlink="http://www.w3.org/1999/xlink" x="0px" y="0px"
	 viewBox="0 0 283.46 283.46" style="enable-background:new 0 0 283.46 283.46;" xml:space="preserve">
<style type="text/css">
	.st0{fill:none;}
	.st1{fill:#666666;}
	.st2{fill:#E4E6E6;}
	.st3{fill:#FFFFFF;}
</style>
<g id="レイヤー_2">
</g>
<g id="レイヤー_1">
	<polygon class="st0" points="172.91,97.57 151.32,85.03 151.32,198.43 172.91,185.89 145.34,253.39 253.39,253.39 253.39,30.08 
		145.33,30.08 	"/>
	<polygon class="st0" points="30.08,30.08 30.08,253.39 138.13,253.39 110.55,185.89 132.14,198.43 132.14,85.03 110.55,97.57 
		138.13,30.08 	"/>
	<path class="st1" d="M258.18,20.49H25.28c-2.65,0-4.79,2.15-4.79,4.79v232.9c0,2.65,2.15,4.79,4.79,4.79h232.9
		c2.65,0,4.79-2.15,4.79-4.79V25.28C262.97,22.64,260.83,20.49,258.18,20.49z M132.14,85.03v113.4l-21.59-12.54l27.58,67.49H30.08
		V30.08h108.05l-27.58,67.49L132.14,85.03z M253.39,253.39H145.34l27.57-67.49l-21.59,12.54V85.03l21.59,12.54l-27.57-67.49h108.05
		V253.39z"/>
</g>
</svg>
