<?xml version="1.0" encoding="utf-8"?>
<!-- Generator: Adobe Illustrator 27.3.1, SVG Export Plug-In . SVG Version: 6.00 Build 0)  -->
<svg version="1.1" xmlns="http://www.w3.org/2000/svg" xmlns:xlink="http://www.w3.org/1999/xlink" x="0px" y="0px"
	 viewBox="0 0 283.46 283.46" style="enable-background:new 0 0 283.46 283.46;" xml:space="preserve">
<style type="text/css">
	.st0{fill:none;}
	.st1{fill:#666666;}
	.st2{fill:#E4E6E6;}
	.st3{fill:#FFFFFF;}
</style>
<g id="レイヤー_2">
</g>
<g id="レイヤー_1">
	<rect x="199.58" y="109.06" class="st0" width="65.35" height="65.35"/>
	<rect x="136.94" y="259.7" class="st1" width="9.59" height="9.59"/>
	<rect x="136.94" y="100.9" class="st1" width="9.59" height="18.15"/>
	<rect x="136.94" y="69.13" class="st1" width="9.59" height="18.15"/>
	<rect x="136.94" y="196.18" class="st1" width="9.59" height="18.15"/>
	<rect x="136.94" y="227.94" class="st1" width="9.59" height="18.15"/>
	<rect x="136.94" y="37.37" class="st1" width="9.59" height="18.15"/>
	<rect x="136.94" y="132.66" class="st1" width="9.59" height="18.15"/>
	<rect x="136.94" y="164.42" class="st1" width="9.59" height="18.15"/>
	<rect x="136.94" y="14.17" class="st1" width="9.59" height="9.59"/>
	<path class="st1" d="M13.74,183.99h9.59v-9.59h-4.79v-4.79H8.95v9.59C8.95,181.85,11.1,183.99,13.74,183.99z"/>
	<rect x="8.95" y="130.58" class="st1" width="9.59" height="22.31"/>
	<path class="st1" d="M18.54,109.06h4.79v-9.59h-9.59c-2.65,0-4.79,2.15-4.79,4.79v9.59h9.59V109.06z"/>
	<rect x="40.06" y="99.47" class="st1" width="22.31" height="9.59"/>
	<path class="st1" d="M93.48,104.26c0-2.65-2.15-4.79-4.79-4.79h-9.59v9.59h4.79v4.79h9.59V104.26z"/>
	<rect x="83.89" y="130.58" class="st1" width="9.59" height="22.31"/>
	<path class="st1" d="M83.89,174.41h-4.79v9.59h9.59c2.65,0,4.79-2.15,4.79-4.79v-9.59h-9.59V174.41z"/>
	<rect x="40.06" y="174.41" class="st1" width="22.31" height="9.59"/>
	<path class="st1" d="M269.72,99.47h-74.94c-2.65,0-4.79,2.15-4.79,4.79v74.94c0,2.65,2.15,4.79,4.79,4.79h74.94
		c2.65,0,4.79-2.15,4.79-4.79v-74.94C274.51,101.62,272.37,99.47,269.72,99.47z M264.93,174.41h-65.35v-65.35h65.35V174.41z"/>
</g>
</svg>
