<?xml version="1.0" encoding="utf-8"?>
<!-- Generator: Adobe Illustrator 27.3.1, SVG Export Plug-In . SVG Version: 6.00 Build 0)  -->
<svg version="1.1" xmlns="http://www.w3.org/2000/svg" xmlns:xlink="http://www.w3.org/1999/xlink" x="0px" y="0px"
	 viewBox="0 0 283.46 283.46" style="enable-background:new 0 0 283.46 283.46;" xml:space="preserve">
<style type="text/css">
	.st0{fill:none;}
	.st1{fill:#666666;}
	.st2{fill:#E4E6E6;}
	.st3{fill:#FFFFFF;}
</style>
<g id="レイヤー_2">
</g>
<g id="レイヤー_1">
	<path class="st1" d="M251.41,49.71c-0.73-1.81-2.49-3-4.45-3H98.52c-52.19,0-94.64,42.46-94.64,94.64S46.34,236,98.52,236
		c50.58,0,92.02-39.88,94.52-89.85h53.92c1.95,0,3.71-1.19,4.44-3c0.73-1.81,0.29-3.89-1.12-5.24l-11.96-11.54l11.96-11.54
		c0.94-0.9,1.46-2.15,1.46-3.45c0-1.3-0.53-2.55-1.47-3.45L238.34,96.4l11.95-11.51c0.94-0.9,1.47-2.15,1.47-3.45
		s-0.53-2.55-1.47-3.45l-11.95-11.51l11.95-11.52C251.69,53.6,252.14,51.53,251.41,49.71z M98.52,226.41
		c-46.9,0-85.06-38.16-85.06-85.06S51.62,56.3,98.52,56.3s85.06,38.16,85.06,85.06S145.42,226.41,98.52,226.41z"/>
	<path class="st1" d="M98.52,72.62c-37.9,0-68.73,30.83-68.73,68.73s30.83,68.73,68.73,68.73c37.9,0,68.73-30.83,68.73-68.73
		S136.42,72.62,98.52,72.62z M98.52,200.5c-32.61,0-59.15-26.53-59.15-59.15s26.53-59.15,59.15-59.15s59.15,26.53,59.15,59.15
		S131.13,200.5,98.52,200.5z"/>
</g>
</svg>
