<?xml version="1.0" encoding="utf-8"?>
<!-- Generator: Adobe Illustrator 27.3.1, SVG Export Plug-In . SVG Version: 6.00 Build 0)  -->
<svg version="1.1" xmlns="http://www.w3.org/2000/svg" xmlns:xlink="http://www.w3.org/1999/xlink" x="0px" y="0px"
	 viewBox="0 0 283.46 283.46" style="enable-background:new 0 0 283.46 283.46;" xml:space="preserve">
<style type="text/css">
	.st0{fill:none;}
	.st1{fill:#666666;}
	.st2{fill:#E4E6E6;}
	.st3{fill:#FFFFFF;}
</style>
<g id="レイヤー_2">
</g>
<g id="レイヤー_1">
	<g transform="translate(64,-64)">
		<polygon class="st0" points="30.85,257.41 45.63,257.41 45.63,257.41 65.34,257.41 65.34,257.41 80.13,257.41 80.13,257.41 
			99.84,257.41 99.84,257.41 114.63,257.41 114.63,257.41 134.34,257.41 134.34,257.41 136.94,257.41 136.94,146.53 26.05,146.53 
			26.05,149.13 26.05,168.84 26.05,183.62 26.05,203.34 26.05,218.12 26.05,237.83 26.05,252.62 26.05,257.41 30.85,257.41 	"/>
		<path class="st1" d="M16.47,149.13v19.71v14.79v19.71v14.78v19.71v14.78v9.59v0c0,2.65,2.15,4.79,4.79,4.79h120.47
			c2.65,0,4.79-2.15,4.79-4.79V141.73c0-2.65-2.15-4.79-4.79-4.79H21.26c-2.65,0-4.79,2.15-4.79,4.79V149.13z M26.05,252.62v-14.78
			v-19.71v-14.78v-19.71v-14.79v-19.71v-2.6h110.88v110.88h-2.6v0h-19.71v0H99.84v0H80.13v0H65.34v0H45.63v0H30.85v0h-4.79V252.62z"
		/>
	</g>
	<rect x="16.47" y="80.13" class="st1" width="9.59" height="19.71"/>
	<rect x="16.47" y="114.63" class="st1" width="9.59" height="19.71"/>
	<rect x="16.47" y="45.63" class="st1" width="9.59" height="19.71"/>
	<path class="st1" d="M26.05,26.05h4.79v-9.59h-9.59c-2.65,0-4.79,2.15-4.79,4.79v9.59h9.59V26.05z"/>
	<rect x="80.13" y="16.47" class="st1" width="19.71" height="9.59"/>
	<rect x="45.63" y="16.47" class="st1" width="19.71" height="9.59"/>
	<rect x="114.63" y="16.47" class="st1" width="19.71" height="9.59"/>
	<rect x="218.12" y="16.47" class="st1" width="19.71" height="9.59"/>
	<rect x="149.12" y="16.47" class="st1" width="19.71" height="9.59"/>
	<rect x="183.62" y="16.47" class="st1" width="19.71" height="9.59"/>
	<path class="st1" d="M262.2,16.47h-9.59v9.59h4.79v4.79H267v-9.59C267,18.61,264.85,16.47,262.2,16.47z"/>
	<rect x="257.41" y="80.13" class="st1" width="9.59" height="19.71"/>
	<rect x="257.41" y="45.63" class="st1" width="9.59" height="19.71"/>
	<rect x="257.41" y="183.62" class="st1" width="9.59" height="19.71"/>
	<rect x="257.41" y="114.63" class="st1" width="9.59" height="19.71"/>
	<rect x="257.41" y="218.12" class="st1" width="9.59" height="19.71"/>
	<rect x="257.41" y="149.12" class="st1" width="9.59" height="19.71"/>
	<path class="st1" d="M257.41,257.41h-4.79V267h9.59c2.65,0,4.79-2.15,4.79-4.79v-9.59h-9.59V257.41z"/>
	<rect x="183.62" y="257.41" class="st1" width="19.71" height="9.59"/>
	<rect x="218.12" y="257.41" class="st1" width="19.71" height="9.59"/>
	<rect x="149.12" y="257.41" class="st1" width="19.71" height="9.59"/>

	<g transform="rotate(-90),translate(-283.46,0)">
		<rect x="16.47" y="80.13" class="st1" width="9.59" height="19.71"/>
		<rect x="16.47" y="114.63" class="st1" width="9.59" height="19.71"/>
		<rect x="16.47" y="45.63" class="st1" width="9.59" height="19.71"/>
		<path class="st1" d="M26.05,26.05h4.79v-9.59h-9.59c-2.65,0-4.79,2.15-4.79,4.79v9.59h9.59V26.05z"/>
		<rect x="80.13" y="16.47" class="st1" width="19.71" height="9.59"/>
		<rect x="45.63" y="16.47" class="st1" width="19.71" height="9.59"/>
		<rect x="114.63" y="16.47" class="st1" width="19.71" height="9.59"/>
	</g>
</g>
</svg>
