<?xml version="1.0" encoding="utf-8"?>
<!-- Generator: Adobe Illustrator 27.3.1, SVG Export Plug-In . SVG Version: 6.00 Build 0)  -->
<svg version="1.1" xmlns="http://www.w3.org/2000/svg" xmlns:xlink="http://www.w3.org/1999/xlink" x="0px" y="0px"
	 viewBox="0 0 283.46 283.46" style="enable-background:new 0 0 283.46 283.46;" xml:space="preserve">
<style type="text/css">
	.st0{fill:none;}
	.st1{fill:#666666;}
	.st2{fill:#E4E6E6;}
	.st3{fill:#FFFFFF;}
</style>
<g id="レイヤー_2">
</g>
<g id="レイヤー_1">
	<path class="st0" d="M118.62,59.87c0-2.65,2.15-4.79,4.79-4.79h10.14v-4.13H115.7v17.85h2.91V59.87z"/>
	<rect x="128.21" y="64.66" class="st0" width="5.34" height="4.13"/>
	<rect x="246.65" y="64.66" class="st0" width="4.13" height="4.13"/>
	<path class="st0" d="M246.65,55.07h8.92c2.65,0,4.79,2.15,4.79,4.79v8.92h4.13V50.95h-17.85V55.07z"/>
	<path class="st0" d="M260.37,192.03c0,2.65-2.15,4.79-4.79,4.79h-8.92v4.13h17.85v-17.85h-4.13V192.03z"/>
	<rect x="246.65" y="183.11" class="st0" width="4.13" height="4.13"/>
	<path class="st0" d="M250.78,78.38h-8.92c-2.65,0-4.79-2.15-4.79-4.79v-8.92h-93.93v8.92c0,2.65-2.15,4.79-4.79,4.79h-10.14v15.04
		c47.57,6.14,83.84,36.89,83.84,73.79c0,6.94-1.29,13.66-3.69,20.04h28.7v-8.92c0-2.65,2.15-4.79,4.79-4.79h8.92V78.38z"/>
	<path class="st1" d="M269.29,41.36h-27.43c-2.65,0-4.79,2.15-4.79,4.79v8.92h-93.93v-8.92c0-2.65-2.15-4.79-4.79-4.79h-27.43
		c-2.65,0-4.79,2.15-4.79,4.79v27.43c0,2.65,2.15,4.79,4.79,4.79h7.71v14.14c-2.61-0.15-5.24-0.23-7.9-0.23
		c-2.96,0-5.94,0.1-8.87,0.28c-4.7,0.3-8.97,2.69-11.72,6.56c-2.71,3.82-3.55,8.57-2.31,13.03c2.54,9.12,1.46,18.89-3.15,28.25
		c-2.96,6.02-7.95,10.95-14.04,13.89c-12.53,6.04-26.01,5.71-36.98-0.92c-5.03-3.04-11.08-3.14-16.18-0.27
		c-5.06,2.85-8.09,8.02-8.1,13.85v0.22c0,41.3,45.46,74.91,101.33,74.91c41.65,0,77.5-18.67,93.06-45.28h33.28v8.92
		c0,2.65,2.15,4.79,4.79,4.79h27.43c2.65,0,4.79-2.15,4.79-4.79v-27.43c0-2.65-2.15-4.79-4.79-4.79h-8.92V78.38h8.92
		c2.65,0,4.79-2.15,4.79-4.79V46.15C274.09,43.5,271.94,41.36,269.29,41.36z M246.65,64.66h4.13v4.13h-4.13V64.66z M115.7,68.79
		V50.95h17.85v4.13h-10.14c-2.65,0-4.79,2.15-4.79,4.79v8.92H115.7z M133.55,64.66v4.13h-5.34v-4.13H133.55z M110.71,232.52
		c-50.59,0-91.75-29.3-91.75-65.32v-0.21c0.01-3.34,2.25-4.96,3.22-5.51c0.99-0.56,2.07-0.83,3.15-0.83c1.16,0,2.32,0.32,3.37,0.95
		c13.79,8.33,30.6,8.82,46.1,1.35c8.01-3.86,14.58-10.36,18.48-18.3c5.66-11.5,6.96-23.62,3.78-35.05
		c-0.46-1.67-0.14-3.46,0.89-4.91c1.06-1.5,2.71-2.43,4.51-2.54c2.73-0.18,5.5-0.26,8.25-0.26c50.59,0,91.75,29.3,91.75,65.32
		S161.3,232.52,110.71,232.52z M237.06,178.31v8.92h-28.7c2.4-6.38,3.69-13.1,3.69-20.04c0-36.9-36.27-67.64-83.84-73.79V78.38
		h10.14c2.65,0,4.79-2.15,4.79-4.79v-8.92h93.93v8.92c0,2.65,2.15,4.79,4.79,4.79h8.92v95.14h-8.92
		C239.21,173.52,237.06,175.67,237.06,178.31z M250.78,183.11v4.13h-4.13v-4.13H250.78z M264.5,183.11v17.85h-17.85v-4.13h8.92
		c2.65,0,4.79-2.15,4.79-4.79v-8.92H264.5z M264.5,68.79h-4.13v-8.92c0-2.65-2.15-4.79-4.79-4.79h-8.92v-4.13h17.85V68.79z"/>
	<path class="st2" d="M148.77,184.97c-5.35,0-9.7,4.35-9.7,9.7s4.35,9.7,9.7,9.7s9.7-4.35,9.7-9.7S154.12,184.97,148.77,184.97z"/>
	<path class="st1" d="M148.77,175.38c-10.64,0-19.29,8.65-19.29,19.29c0,10.64,8.65,19.29,19.29,19.29
		c10.64,0,19.29-8.65,19.29-19.29C168.06,184.03,159.41,175.38,148.77,175.38z M148.77,204.38c-5.35,0-9.7-4.35-9.7-9.7
		s4.35-9.7,9.7-9.7s9.7,4.35,9.7,9.7S154.12,204.38,148.77,204.38z"/>
	<path class="st2" d="M157.49,154.23c0,7.5,6.1,13.61,13.61,13.61s13.61-6.1,13.61-13.61s-6.1-13.61-13.61-13.61
		S157.49,146.73,157.49,154.23z"/>
	<path class="st1" d="M147.9,154.23c0,12.79,10.41,23.19,23.19,23.19c12.79,0,23.2-10.41,23.2-23.19c0-12.79-10.41-23.2-23.2-23.2
		C158.3,131.04,147.9,141.44,147.9,154.23z M184.7,154.23c0,7.5-6.1,13.61-13.61,13.61s-13.61-6.1-13.61-13.61
		s6.1-13.61,13.61-13.61S184.7,146.73,184.7,154.23z"/>
	<path class="st2" d="M110.71,203.41c-3.81,0-6.92,3.1-6.92,6.92s3.1,6.92,6.92,6.92s6.92-3.1,6.92-6.92
		S114.53,203.41,110.71,203.41z"/>
	<path class="st1" d="M110.71,193.83c-9.1,0-16.5,7.4-16.5,16.5s7.4,16.5,16.5,16.5c9.1,0,16.5-7.4,16.5-16.5
		S119.81,193.83,110.71,193.83z M110.71,217.25c-3.81,0-6.92-3.1-6.92-6.92s3.1-6.92,6.92-6.92s6.92,3.1,6.92,6.92
		S114.53,217.25,110.71,217.25z"/>
	<path class="st2" d="M74.83,204.16c-1.92,0-3.48,1.56-3.48,3.48s1.56,3.48,3.48,3.48s3.48-1.56,3.48-3.48
		S76.75,204.16,74.83,204.16z"/>
	<path class="st1" d="M74.83,194.57c-7.21,0-13.07,5.86-13.07,13.07c0,7.21,5.86,13.07,13.07,13.07s13.07-5.86,13.07-13.07
		C87.9,200.43,82.04,194.57,74.83,194.57z M74.83,211.12c-1.92,0-3.48-1.56-3.48-3.48s1.56-3.48,3.48-3.48s3.48,1.56,3.48,3.48
		S76.75,211.12,74.83,211.12z"/>
</g>
</svg>
