<?xml version="1.0" encoding="utf-8"?>
<!-- Generator: Adobe Illustrator 27.3.1, SVG Export Plug-In . SVG Version: 6.00 Build 0)  -->
<svg version="1.1" xmlns="http://www.w3.org/2000/svg" xmlns:xlink="http://www.w3.org/1999/xlink" x="0px" y="0px"
	 viewBox="0 0 283.46 283.46" style="enable-background:new 0 0 283.46 283.46;" xml:space="preserve">
<style type="text/css">
	.st0{fill:none;}
	.st1{fill:#666666;}
	.st2{fill:#E4E6E6;}
	.st3{fill:#FFFFFF;}
</style>
<g id="レイヤー_2">
</g>
<g id="レイヤー_1">
	<path class="st1" d="M67.85,251.84c0.15,0.04,0.29,0.06,0.44,0.06c0.59,0,1.16-0.31,1.46-0.84l42.43-73.33l38.2,92.22
		c0.17,0.41,0.5,0.74,0.92,0.92c0.21,0.09,0.43,0.13,0.65,0.13s0.44-0.04,0.65-0.13l37.6-15.57c0.86-0.36,1.27-1.35,0.92-2.21
		l-38.2-92.22l81.85,21.85c0.74,0.2,1.52-0.13,1.9-0.79c0.38-0.66,0.27-1.5-0.27-2.04L69.48,12.98c-0.48-0.48-1.21-0.63-1.84-0.37
		c-0.63,0.26-1.04,0.88-1.04,1.56V250.2C66.59,250.97,67.11,251.64,67.85,251.84z"/>
</g>
</svg>
