<?xml version="1.0" encoding="utf-8"?>
<!-- Generator: Adobe Illustrator 27.3.1, SVG Export Plug-In . SVG Version: 6.00 Build 0)  -->
<svg version="1.1" xmlns="http://www.w3.org/2000/svg" xmlns:xlink="http://www.w3.org/1999/xlink" x="0px" y="0px"
	 viewBox="0 0 283.46 283.46" style="enable-background:new 0 0 283.46 283.46;" xml:space="preserve">
<style type="text/css">
	.st0{fill:none;}
	.st1{fill:#666666;}
	.st2{fill:#E4E6E6;}
	.st3{fill:#FFFFFF;}
</style>
<g id="レイヤー_2">
</g>
<g id="レイヤー_1">
	<polygon class="st0" points="198.43,151.32 85.03,151.32 97.57,172.91 34.1,146.98 34.1,253.39 257.41,253.39 257.41,143.69 
		185.89,172.91 	"/>
	<polygon class="st0" points="34.1,136.49 97.57,110.56 85.03,132.14 198.43,132.14 185.89,110.56 257.41,139.77 257.41,30.08 
		34.1,30.08 	"/>
	<path class="st1" d="M262.21,20.49H29.31c-2.65,0-4.79,2.15-4.79,4.79V140.4l-3.26,1.33l3.26,1.33v115.12
		c0,2.65,2.15,4.79,4.79,4.79h232.9c2.65,0,4.79-2.15,4.79-4.79V25.28C267,22.64,264.85,20.49,262.21,20.49z M257.41,253.39H34.1
		V146.98l63.47,25.93l-12.54-21.59h113.4l-12.54,21.59l71.52-29.22V253.39z M257.41,139.77l-71.52-29.22l12.54,21.59H85.03
		l12.54-21.59L34.1,136.49V30.08h223.31V139.77z"/>
</g>
</svg>
