<?xml version="1.0" encoding="utf-8"?>
<!-- Generator: Adobe Illustrator 27.3.1, SVG Export Plug-In . SVG Version: 6.00 Build 0)  -->
<svg version="1.1" xmlns="http://www.w3.org/2000/svg" xmlns:xlink="http://www.w3.org/1999/xlink" x="0px" y="0px"
	 viewBox="0 0 283.46 283.46" style="enable-background:new 0 0 283.46 283.46;" xml:space="preserve">
<style type="text/css">
	.st0{fill:none;}
	.st1{fill:#666666;}
	.st2{fill:#E4E6E6;}
	.st3{fill:#FFFFFF;}
</style>
<g id="レイヤー_2">
</g>
<g id="レイヤー_1">
	<rect x="18.97" y="53.55" class="st0" width="74.19" height="74.19"/>
	<circle class="st0" cx="227.4" cy="192.82" r="37.09"/>
	<path class="st1" d="M97.95,137.33c2.65,0,4.79-2.15,4.79-4.79V48.76c0-2.65-2.15-4.79-4.79-4.79H14.17
		c-2.65,0-4.79,2.15-4.79,4.79v83.78c0,2.65,2.15,4.79,4.79,4.79H97.95z M18.97,53.55h74.19v74.19H18.97V53.55z"/>
	<path class="st1" d="M227.4,146.14c-25.74,0-46.68,20.94-46.68,46.68s20.94,46.68,46.68,46.68s46.68-20.94,46.68-46.68
		S253.14,146.14,227.4,146.14z M227.4,229.91c-20.45,0-37.09-16.64-37.09-37.09s16.64-37.09,37.09-37.09s37.09,16.64,37.09,37.09
		S247.86,229.91,227.4,229.91z"/>
	<polygon class="st1" points="182.7,166.16 157.92,133.23 157.77,145.71 140.7,135.54 151.62,129.48 110.86,123.33 135.65,156.25 
		135.8,143.77 152.86,153.95 141.95,160.01 	"/>
</g>
</svg>
