<?xml version="1.0" encoding="utf-8"?>
<!-- Generator: Adobe Illustrator 27.3.1, SVG Export Plug-In . SVG Version: 6.00 Build 0)  -->
<svg version="1.1" xmlns="http://www.w3.org/2000/svg" xmlns:xlink="http://www.w3.org/1999/xlink" x="0px" y="0px"
	 viewBox="0 0 283.46 283.46" style="enable-background:new 0 0 283.46 283.46;" xml:space="preserve">
<style type="text/css">
	.st0{fill:none;}
	.st1{fill:#666666;}
	.st2{fill:#E4E6E6;}
	.st3{fill:#FFFFFF;}
</style>
<g id="レイヤー_2">
</g>
<g id="レイヤー_1">
	<path class="st1" d="M230.41,65.19c-15.4-7.21-32.85-15.38-46.01-4.41c-13.17,10.98-8.28,29.61-3.97,46.06
		c3.94,15.01,7.66,29.19-0.83,36.26c-8.48,7.07-21.76,0.85-35.81-5.73c-15.4-7.21-32.85-15.38-46.01-4.41
		c-13.18,10.98-8.29,29.62-3.98,46.07c3.94,15.01,7.65,29.19-0.84,36.27c-8.49,7.08-21.77,0.86-35.83-5.71
		c-15.4-7.21-32.85-15.37-46.03-4.4l6.14,7.37c8.5-7.08,21.77-0.86,35.83,5.71c9.98,4.67,20.83,9.75,30.82,9.75
		c5.42,0,10.58-1.49,15.21-5.35c13.18-10.98,8.29-29.62,3.98-46.07c-3.94-15.01-7.65-29.19,0.84-36.27
		c8.49-7.07,21.76-0.85,35.81,5.73c15.4,7.21,32.85,15.38,46.01,4.41c13.17-10.98,8.28-29.61,3.97-46.06
		c-3.94-15.01-7.66-29.19,0.83-36.26c8.49-7.07,21.76-0.85,35.81,5.73c15.4,7.21,32.85,15.38,46.01,4.41l-6.14-7.37
		C257.74,77.99,244.46,71.77,230.41,65.19z"/>
</g>
</svg>
