<?xml version="1.0" encoding="utf-8"?>
<!-- Generator: Adobe Illustrator 27.4.0, SVG Export Plug-In . SVG Version: 6.00 Build 0)  -->
<svg version="1.1" xmlns="http://www.w3.org/2000/svg" xmlns:xlink="http://www.w3.org/1999/xlink" x="0px" y="0px"
	 viewBox="0 0 283.46 283.46" style="enable-background:new 0 0 283.46 283.46;" xml:space="preserve">
<style type="text/css">
	.st0{fill:none;}
	.st1{fill:#666666;}
	.st2{fill:#E4E6E6;}
</style>
<g id="レイヤー_2">
</g>
<g id="レイヤー_1">
	<rect x="9.38" y="144.03" class="st1" width="9.59" height="21.57"/>
	<rect x="9.38" y="181.77" class="st1" width="9.59" height="21.57"/>
	<rect x="9.38" y="106.28" class="st1" width="9.59" height="21.57"/>
	<g>
		<rect x="189.24" y="62.4" class="st1" width="80.05" height="19.17"/>
		<path class="st1" d="M167.55,246.71v-9.59h-9.59v4.79h-4.79v9.59h9.59C165.4,251.51,167.55,249.36,167.55,246.71z"/>
		<rect x="115.42" y="241.92" class="st1" width="21.57" height="9.59"/>
		<rect x="39.94" y="241.92" class="st1" width="21.57" height="9.59"/>
		<rect x="77.68" y="241.92" class="st1" width="21.57" height="9.59"/>
		<path class="st1" d="M14.17,251.51h9.59v-9.59h-4.79v-4.79H9.38v9.59C9.38,249.36,11.53,251.51,14.17,251.51z"/>
		<path class="st1" d="M18.97,102.93h4.79v-9.59h-9.59c-2.65,0-4.79,2.15-4.79,4.79v9.59h9.59V102.93z"/>
		<rect x="77.68" y="93.34" class="st1" width="21.57" height="9.59"/>
		<rect x="39.94" y="93.34" class="st1" width="21.57" height="9.59"/>
		<rect x="115.42" y="93.34" class="st1" width="21.57" height="9.59"/>
		<path class="st1" d="M157.96,107.72h9.59v-9.59c0-2.65-2.15-4.79-4.79-4.79h-9.59v9.59h4.79V107.72z"/>
		<rect x="157.96" y="161.64" class="st1" width="9.59" height="21.57"/>
		<rect x="157.96" y="199.38" class="st1" width="9.59" height="21.57"/>
		<rect x="157.96" y="123.9" class="st1" width="9.59" height="21.57"/>
		<rect x="57.16" y="141.13" class="st1" width="62.6" height="62.6"/>
	</g>
</g>
</svg>
