<?xml version="1.0" encoding="utf-8"?>
<!-- Generator: Adobe Illustrator 27.3.1, SVG Export Plug-In . SVG Version: 6.00 Build 0)  -->
<svg version="1.1" xmlns="http://www.w3.org/2000/svg" xmlns:xlink="http://www.w3.org/1999/xlink" x="0px" y="0px"
	 viewBox="0 0 283.46 283.46" style="enable-background:new 0 0 283.46 283.46;" xml:space="preserve">
<style type="text/css">
	.st0{fill:none;}
	.st1{fill:#666666;}
	.st2{fill:#E4E6E6;}
	.st3{fill:#FFFFFF;}
</style>
<g id="レイヤー_2">
</g>
<g id="レイヤー_1">
	<path class="st0" d="M119.87,45.29v20.32v66.63h-9.59V65.62c0-3.13-1.24-6.05-3.48-8.23c-2.24-2.18-5.2-3.32-8.34-3.23
		c-6.13,0.18-11.12,5.63-11.12,12.15v26.01v0v39.94h-9.59V92.31c0-3.13-1.24-6.05-3.48-8.23c-2.16-2.1-4.98-3.24-7.99-3.24
		c-0.12,0-0.24,0-0.36,0.01c-6.13,0.18-11.12,5.63-11.12,12.15v101.72c0,38.42,18.41,55.62,36.65,55.62h50.27
		c19.59,0,27-5.45,33.18-14.87c2.75-4.18,4.87-10.54,7.11-17.28c3.22-9.66,6.55-19.64,12.63-26.18
		c5.38-5.78,33.06-35.29,33.34-35.59c0.03-0.04,0.07-0.07,0.11-0.11c0.65-0.65,0.75-2.05,0.2-2.78c-3.44-4.59-8.22-7.32-13.46-7.69
		c-5.25-0.37-10.36,1.65-14.42,5.71l-16.88,16.88c-1.37,1.37-3.43,1.78-5.22,1.04c-1.79-0.74-2.96-2.49-2.96-4.43V66.3
		c0-6.51-4.99-11.96-11.12-12.15c-3.15-0.09-6.1,1.05-8.34,3.23c-2.25,2.18-3.48,5.1-3.48,8.23v66.63h-9.59V65.62V44.61
		c0-3.13-1.24-6.05-3.48-8.23c-2.25-2.18-5.19-3.32-8.34-3.23C124.86,33.33,119.87,38.78,119.87,45.29z"/>
	<path class="st1" d="M110.28,45.29v2.66c-3.57-2.33-7.75-3.51-12.12-3.38C86.91,44.91,77.75,54.66,77.75,66.3v8.34
		c-3.57-2.33-7.76-3.51-12.12-3.38C54.38,71.6,45.22,81.34,45.22,92.99v101.72c0,17.07,3.93,32.85,11.06,44.42
		c8.38,13.6,20.54,20.79,35.18,20.79h50.27c23.73,0,33.63-7.67,41.19-19.2c3.43-5.22,5.74-12.16,8.19-19.51
		c2.9-8.69,5.89-17.67,10.56-22.68c5.26-5.66,31.99-34.15,33.27-35.52c3.97-4.04,4.43-10.72,1.03-15.25
		c-5.13-6.84-12.4-10.93-20.46-11.5c-8.06-0.58-15.83,2.44-21.88,8.49l-8.7,8.7V66.3c0-11.65-9.16-21.39-20.42-21.73
		c-4.35-0.14-8.55,1.05-12.12,3.38v-3.34c0-5.75-2.27-11.11-6.39-15.11c-4.12-4-9.57-6.11-15.31-5.94
		C119.44,23.9,110.28,33.65,110.28,45.29z M139.33,36.38c2.25,2.18,3.48,5.1,3.48,8.23v21.01v66.63h9.59V65.62
		c0-3.13,1.24-6.05,3.48-8.23c2.25-2.18,5.19-3.32,8.34-3.23c6.13,0.18,11.12,5.63,11.12,12.15v98.72c0,1.94,1.17,3.69,2.96,4.43
		c1.79,0.74,3.85,0.33,5.22-1.04l16.88-16.88c4.05-4.05,9.17-6.08,14.42-5.71c5.24,0.37,10.02,3.1,13.46,7.69
		c0.55,0.73,0.45,2.13-0.2,2.78c-0.04,0.04-0.07,0.07-0.11,0.11c-0.28,0.3-27.96,29.81-33.34,35.59
		c-6.08,6.54-9.41,16.52-12.63,26.18c-2.25,6.74-4.37,13.1-7.11,17.28c-6.18,9.42-13.59,14.87-33.18,14.87H91.46
		c-18.24,0-36.65-17.2-36.65-55.62V92.99c0-6.51,4.99-11.96,11.12-12.15c0.12,0,0.24-0.01,0.36-0.01c3,0,5.83,1.14,7.99,3.24
		c2.25,2.18,3.48,5.1,3.48,8.23v39.94h9.59V92.31v0V66.3c0-6.51,4.99-11.96,11.12-12.15c3.15-0.09,6.1,1.05,8.34,3.23
		c2.25,2.18,3.48,5.1,3.48,8.23v66.63h9.59V65.62V45.29c0-6.51,4.99-11.96,11.12-12.15C134.14,33.06,137.09,34.2,139.33,36.38z"/>
</g>
</svg>
