<?xml version="1.0" encoding="utf-8"?>
<!-- Generator: Adobe Illustrator 27.0.1, SVG Export Plug-In . SVG Version: 6.00 Build 0)  -->
<svg version="1.1" id="レイヤー_1" xmlns="http://www.w3.org/2000/svg" xmlns:xlink="http://www.w3.org/1999/xlink" x="0px"
	 y="0px" viewBox="0 0 283.5 283.5" style="enable-background:new 0 0 283.5 283.5;" xml:space="preserve">
<style type="text/css">
	.st0{fill:#1727FF;}
</style>
<g id="レイヤー_1_00000126310265570549055620000003700665659672948148_">
	<rect x="28.3" y="245.5" width="226.8" height="9.6"/>
	<path class="st0" d="M32.1,179.4V227c0,2.6,2.2,4.8,4.8,4.8h47.6c2.7,0,4.8-2.1,4.8-4.8v-47.6c0-2.6-2.2-4.8-4.8-4.8H36.9
		C34.2,174.6,32.1,176.8,32.1,179.4z M41.7,184.2h38v38h-38V184.2z"/>
	<path class="st0" d="M118,174.6c-2.7,0-4.8,2.1-4.8,4.8V227c0,2.6,2.2,4.8,4.8,4.8h47.6c2.6,0,4.8-2.1,4.8-4.8v-47.6
		c0-2.6-2.1-4.8-4.8-4.8H118z M160.8,222.2h-38v-38h38V222.2z"/>
	<path class="st0" d="M194.4,179.4V227c0,2.6,2.1,4.8,4.8,4.8h47.6c2.6,0,4.8-2.1,4.8-4.8v-47.6c0-2.6-2.1-4.8-4.8-4.8h-47.6
		C196.5,174.6,194.4,176.8,194.4,179.4z M203.9,184.2h38v38h-38V184.2z"/>
</g>
</svg>
