<?xml version="1.0" encoding="utf-8"?>
<!-- Generator: Adobe Illustrator 27.0.1, SVG Export Plug-In . SVG Version: 6.00 Build 0)  -->
<svg version="1.1" id="レイヤー_1" xmlns="http://www.w3.org/2000/svg" xmlns:xlink="http://www.w3.org/1999/xlink" x="0px"
	 y="0px" viewBox="0 0 283.5 283.5" style="enable-background:new 0 0 283.5 283.5;" xml:space="preserve">
<style type="text/css">
	.st0{fill:none;}
	.st1{fill:#8E00D0;}
</style>
<g id="レイヤー_2_00000061473311470512680390000002525030419547974033_">
</g>
<g id="レイヤー_1_00000013895194661362165800000001937954169719181206_">
	<g>
		<path class="st0" d="M158,102.9H19v139h139V102.9z M119.8,203.7H57.2v-62.6h62.6V203.7z"/>
		<polygon points="219.7,112 238.9,112 238.9,81.6 269.3,81.6 269.3,62.4 238.9,62.4 238.9,32 219.7,32 219.7,62.4 189.2,62.4 
			189.2,81.6 219.7,81.6 		"/>
		<path class="st1" d="M14.2,251.5h148.6c2.6,0,4.8-2.1,4.8-4.8V98.1c0-2.7-2.1-4.8-4.8-4.8H14.2c-2.6,0-4.8,2.2-4.8,4.8v148.6
			C9.4,249.4,11.5,251.5,14.2,251.5z M19,102.9h139v139H19V102.9z"/>
		<rect x="57.2" y="141.1" width="62.6" height="62.6"/>
	</g>
</g>
</svg>
