<?xml version="1.0" encoding="utf-8"?>
<!-- Generator: Adobe Illustrator 27.0.1, SVG Export Plug-In . SVG Version: 6.00 Build 0)  -->
<svg version="1.1" id="レイヤー_1" xmlns="http://www.w3.org/2000/svg" xmlns:xlink="http://www.w3.org/1999/xlink" x="0px"
	 y="0px" viewBox="0 0 283.5 283.5" style="enable-background:new 0 0 283.5 283.5;" xml:space="preserve">
<style type="text/css">
	.st0{fill:#00F717;stroke:#000000;stroke-miterlimit:10;}
	.st1{fill:#00F717;}
</style>
<g id="レイヤー_2_00000119090702926571589080000002152661144548068998_">
</g>
<rect y="6" class="st0" width="283.5" height="273"/>
<g id="レイヤー_1_00000171679988442796987750000008359771669190760122_">
	<path class="st1" d="M146.5,81.5c0,2.7-2.1,4.8-4.8,4.8H86.3v55.4c0,2.6-2.2,4.8-4.8,4.8H26v110.9h110.9V202c0-2.6,2.1-4.8,4.8-4.8
		h55.4v-55.4c0-2.6,2.1-4.8,4.8-4.8h55.4V26H146.5V81.5z"/>
	<path d="M262.2,16.5H141.7c-2.6,0-4.8,2.1-4.8,4.8v55.4H81.5c-2.7,0-4.8,2.2-4.8,4.8v55.4H21.3c-2.6,0-4.8,2.1-4.8,4.8v120.5
		c0,2.6,2.1,4.8,4.8,4.8h120.5c2.6,0,4.8-2.1,4.8-4.8v-55.4H202c2.6,0,4.8-2.1,4.8-4.8v-55.4h55.4c2.6,0,4.8-2.1,4.8-4.8V21.3
		C267,18.6,264.9,16.5,262.2,16.5z M257.4,136.9H202c-2.6,0-4.8,2.1-4.8,4.8v55.4h-55.4c-2.6,0-4.8,2.1-4.8,4.8v55.4H26V146.5h55.5
		c2.7,0,4.8-2.1,4.8-4.8V86.3h55.4c2.6,0,4.8-2.2,4.8-4.8V26h110.9L257.4,136.9L257.4,136.9z"/>
</g>
</svg>
