<?xml version="1.0" encoding="utf-8"?>
<!-- Generator: Adobe Illustrator 27.0.1, SVG Export Plug-In . SVG Version: 6.00 Build 0)  -->
<svg version="1.1" id="レイヤー_1" xmlns="http://www.w3.org/2000/svg" xmlns:xlink="http://www.w3.org/1999/xlink" x="0px"
	 y="0px" viewBox="0 0 283.5 283.5" style="enable-background:new 0 0 283.5 283.5;" xml:space="preserve">
<style type="text/css">
	.st0{fill:#D000C4;stroke:#000000;stroke-miterlimit:10;}
	.st1{fill:#FFFE2E;}
</style>
<g id="レイヤー_2_00000128475687615721900420000004735583212225905847_">
</g>
<rect y="9" class="st0" width="283.5" height="265"/>
<g id="レイヤー_1_00000080928852452580161830000017161074150493933971_">
	<rect x="9.4" y="144" class="st1" width="9.6" height="21.6"/>
	<rect x="9.4" y="181.8" class="st1" width="9.6" height="21.6"/>
	<rect x="9.4" y="106.3" class="st1" width="9.6" height="21.6"/>
	<g>
		<rect x="189.2" y="62.4" class="st1" width="80.1" height="19.2"/>
		<path class="st1" d="M167.6,246.7v-9.6H158v4.8h-4.8v9.6h9.6C165.4,251.5,167.6,249.4,167.6,246.7z"/>
		<rect x="115.4" y="241.9" class="st1" width="21.6" height="9.6"/>
		<rect x="39.9" y="241.9" class="st1" width="21.6" height="9.6"/>
		<rect x="77.7" y="241.9" class="st1" width="21.6" height="9.6"/>
		<path class="st1" d="M14.2,251.5h9.6v-9.6H19v-4.8H9.4v9.6C9.4,249.4,11.5,251.5,14.2,251.5z"/>
		<path class="st1" d="M19,102.9h4.8v-9.6h-9.6c-2.6,0-4.8,2.2-4.8,4.8v9.6H19C19,107.7,19,102.9,19,102.9z"/>
		<rect x="77.7" y="93.3" class="st1" width="21.6" height="9.6"/>
		<rect x="39.9" y="93.3" class="st1" width="21.6" height="9.6"/>
		<rect x="115.4" y="93.3" class="st1" width="21.6" height="9.6"/>
		<path class="st1" d="M158,107.7h9.6v-9.6c0-2.7-2.1-4.8-4.8-4.8h-9.6v9.6h4.8V107.7z"/>
		<rect x="158" y="161.6" class="st1" width="9.6" height="21.6"/>
		<rect x="158" y="199.4" class="st1" width="9.6" height="21.6"/>
		<rect x="158" y="123.9" class="st1" width="9.6" height="21.6"/>
		<rect x="57.2" y="141.1" class="st1" width="62.6" height="62.6"/>
	</g>
</g>
</svg>
